<svg xmlns="http://www.w3.org/2000/svg" viewBox="0 0 500 500"><g id="freepik--background-simple--inject-55"><path d="M179.18,93.61l215.56,68a59.37,59.37,0,0,1,37.47,78.13L394.78,336a59.38,59.38,0,0,1-87.87,28.15L111.55,236.25A79.67,79.67,0,0,1,94.1,118.46h0A79.67,79.67,0,0,1,179.18,93.61Z" style="fill:#407BFF"></path><path d="M179.18,93.61l215.56,68a59.37,59.37,0,0,1,37.47,78.13L394.78,336a59.38,59.38,0,0,1-87.87,28.15L111.55,236.25A79.67,79.67,0,0,1,94.1,118.46h0A79.67,79.67,0,0,1,179.18,93.61Z" style="fill:#fff;opacity:0.9"></path></g><g id="freepik--Device--inject-55"><path d="M252.89,301.09l-19.1,98.24h49l19.1-98.24Zm20.32,62.84-2.75,14.14a9,9,0,0,1-8.44,7.07,5.66,5.66,0,0,1-5.69-7.07l2.74-14.14a9,9,0,0,1,8.45-7.07A5.66,5.66,0,0,1,273.21,363.93Z" style="fill:#263238"></path><path d="M252.89,301.09l-19.1,98.24h49l19.1-98.24Zm20.32,62.84-2.75,14.14a9,9,0,0,1-8.44,7.07,5.66,5.66,0,0,1-5.69-7.07l2.74-14.14a9,9,0,0,1,8.45-7.07A5.66,5.66,0,0,1,273.21,363.93Z" style="fill:#fff;opacity:0.30000000000000004"></path><polygon points="233.9 399.33 229.6 399.33 248.69 301.09 252.99 301.09 233.9 399.33" style="fill:#263238"></polygon><polygon points="233.9 399.33 229.6 399.33 248.69 301.09 252.99 301.09 233.9 399.33" style="fill:#fff;opacity:0.6000000000000001"></polygon><polygon points="252.88 301.09 248.69 301.09 238.51 353.5 291.7 353.5 301.89 301.09 252.99 301.09 252.88 301.09" style="opacity:0.2"></polygon><path d="M267.52,356.86a7.67,7.67,0,0,0-2,.27,5.64,5.64,0,0,1,3.82,6.8l-2.74,14.14a9.12,9.12,0,0,1-6.48,6.8,6.65,6.65,0,0,0,1.87.27,9,9,0,0,0,8.44-7.07l2.75-14.14A5.66,5.66,0,0,0,267.52,356.86Z" style="fill:#263238"></path><path d="M267.52,356.86a7.67,7.67,0,0,0-2,.27,5.64,5.64,0,0,1,3.82,6.8l-2.74,14.14a9.12,9.12,0,0,1-6.48,6.8,6.65,6.65,0,0,0,1.87.27,9,9,0,0,0,8.44-7.07l2.75-14.14A5.66,5.66,0,0,0,267.52,356.86Z" style="fill:#fff;opacity:0.6000000000000001"></path><rect x="189.83" y="398.9" width="70.32" height="15.76" style="fill:#407BFF"></rect><rect x="189.83" y="398.9" width="70.32" height="15.76" style="fill:#fff;opacity:0.4"></rect><rect x="260.15" y="398.9" width="92.84" height="15.76" style="fill:#407BFF"></rect><rect x="260.15" y="398.9" width="92.84" height="15.76" style="fill:#fff;opacity:0.6000000000000001"></rect><path d="M144.79,347.67H391.86a8.13,8.13,0,0,0,8.28-8,7.67,7.67,0,0,0-.05-1.07L384.48,160.09a10.05,10.05,0,0,0-9.82-9.05H127.59a8.13,8.13,0,0,0-8.28,8,7.67,7.67,0,0,0,0,1.07L135,338.63A10,10,0,0,0,144.79,347.67Z" style="fill:#263238"></path><path d="M144.79,347.67H391.86a8.13,8.13,0,0,0,8.28-8,7.67,7.67,0,0,0-.05-1.07L384.48,160.09a10.05,10.05,0,0,0-9.82-9.05H127.59a8.13,8.13,0,0,0-8.28,8,7.67,7.67,0,0,0,0,1.07L135,338.63A10,10,0,0,0,144.79,347.67Z" style="fill:#fff;opacity:0.30000000000000004"></path><path d="M398.42,319.34l1.68,19.29a8.14,8.14,0,0,1-7.16,9,7.6,7.6,0,0,1-1.07.05H144.79a10,10,0,0,1-9.81-9.05l-1.7-19.29Z" style="fill:#407BFF"></path><path d="M398.42,319.34l1.68,19.29a8.14,8.14,0,0,1-7.16,9,7.6,7.6,0,0,1-1.07.05H144.79a10,10,0,0,1-9.81-9.05l-1.7-19.29Z" style="fill:#fff;isolation:isolate;opacity:0.6000000000000001"></path><path d="M142,313.87H388.75a4.4,4.4,0,0,0,4.49-4.32,3.71,3.71,0,0,0,0-.58L380.31,161.42a5.44,5.44,0,0,0-5.33-4.89H128.24a4.41,4.41,0,0,0-4.5,4.32,5.44,5.44,0,0,0,0,.57L136.67,309A5.45,5.45,0,0,0,142,313.87Z" style="fill:#407BFF"></path><path d="M142,313.87H388.75a4.4,4.4,0,0,0,4.49-4.32,3.71,3.71,0,0,0,0-.58L380.31,161.42a5.44,5.44,0,0,0-5.33-4.89H128.24a4.41,4.41,0,0,0-4.5,4.32,5.44,5.44,0,0,0,0,.57L136.67,309A5.45,5.45,0,0,0,142,313.87Z" style="fill:#407BFF;isolation:isolate;opacity:0.8"></path><path d="M142,313.87H388.75a4.4,4.4,0,0,0,4.49-4.32,3.71,3.71,0,0,0,0-.58L380.31,161.42a5.44,5.44,0,0,0-5.33-4.89H128.24a4.41,4.41,0,0,0-4.5,4.32,5.44,5.44,0,0,0,0,.57L136.67,309A5.45,5.45,0,0,0,142,313.87Z" style="fill:#fff;isolation:isolate;opacity:0.8"></path><g style="opacity:0.5"><polygon points="319.61 313.87 342.13 313.87 308.69 156.53 286.16 156.53 319.61 313.87" style="fill:#fff"></polygon><polygon points="305.34 313.87 311.11 313.87 277.66 156.53 271.89 156.53 305.34 313.87" style="fill:#fff"></polygon><polygon points="221.42 313.87 225.19 313.87 191.75 156.53 187.97 156.53 221.42 313.87" style="fill:#fff"></polygon><polygon points="207.15 313.87 212.91 313.87 179.47 156.53 173.7 156.53 207.15 313.87" style="fill:#fff"></polygon></g><path d="M122.13,151.07h5.46a8.13,8.13,0,0,0-8.28,8,7.6,7.6,0,0,0,0,1.07L135,338.63a10,10,0,0,0,9.81,9.05h-5.46a10.05,10.05,0,0,1-9.82-9.05L113.89,160.1a8.15,8.15,0,0,1,7.19-9A9.23,9.23,0,0,1,122.13,151.07Z" style="fill:#263238"></path><path d="M122.13,151.07h5.46a8.13,8.13,0,0,0-8.28,8,7.6,7.6,0,0,0,0,1.07L135,338.63a10,10,0,0,0,9.81,9.05h-5.46a10.05,10.05,0,0,1-9.82-9.05L113.89,160.1a8.15,8.15,0,0,1,7.19-9A9.23,9.23,0,0,1,122.13,151.07Z" style="fill:#fff;isolation:isolate;opacity:0.6000000000000001"></path><path d="M176.24,206.65H165.1a1.81,1.81,0,0,1-1.76-1.62h0a1.47,1.47,0,0,1,1.48-1.62H176a1.79,1.79,0,0,1,1.75,1.62h0A1.46,1.46,0,0,1,176.24,206.65Z" style="fill:#407BFF"></path><path d="M203.73,193.71h-8.26a1.79,1.79,0,0,1-1.76-1.61h0a1.45,1.45,0,0,1,1.47-1.62h8.27a1.8,1.8,0,0,1,1.76,1.62h0A1.46,1.46,0,0,1,203.73,193.71Z" style="fill:#407BFF"></path><path d="M294.44,206.65H283.3a1.79,1.79,0,0,1-1.75-1.62h0a1.46,1.46,0,0,1,1.47-1.62h11.14a1.81,1.81,0,0,1,1.76,1.62h0A1.47,1.47,0,0,1,294.44,206.65Z" style="fill:#407BFF"></path><path d="M272.17,206.65H187a1.8,1.8,0,0,1-1.76-1.62h0a1.46,1.46,0,0,1,1.47-1.62h85.15a1.8,1.8,0,0,1,1.76,1.62h0A1.46,1.46,0,0,1,272.17,206.65Z" style="fill:#263238"></path><path d="M177.21,217.78H166.08a1.79,1.79,0,0,1-1.76-1.61h0a1.45,1.45,0,0,1,1.47-1.62h11.14a1.8,1.8,0,0,1,1.76,1.62h0A1.45,1.45,0,0,1,177.21,217.78Z" style="fill:#407BFF"></path><path d="M211,217.78H188a1.8,1.8,0,0,1-1.76-1.61h0a1.47,1.47,0,0,1,1.48-1.62h23a1.79,1.79,0,0,1,1.76,1.62h0A1.45,1.45,0,0,1,211,217.78Z" style="fill:#407BFF"></path><path d="M252.3,217.78H218.17a1.8,1.8,0,0,1-1.76-1.61h0a1.46,1.46,0,0,1,1.48-1.62H252a1.8,1.8,0,0,1,1.76,1.62h0A1.45,1.45,0,0,1,252.3,217.78Z" style="fill:#407BFF"></path><path d="M178.19,228.92H167.05a1.8,1.8,0,0,1-1.76-1.61h0a1.46,1.46,0,0,1,1.48-1.62h11.14a1.79,1.79,0,0,1,1.75,1.62h0A1.45,1.45,0,0,1,178.19,228.92Z" style="fill:#407BFF"></path><path d="M234.59,228.92H189a1.79,1.79,0,0,1-1.76-1.61h0a1.45,1.45,0,0,1,1.47-1.62h45.63a1.8,1.8,0,0,1,1.76,1.62h0A1.45,1.45,0,0,1,234.59,228.92Z" style="fill:#263238"></path><path d="M179.16,240.06H168a1.79,1.79,0,0,1-1.75-1.62h0a1.45,1.45,0,0,1,1.47-1.61h11.14a1.8,1.8,0,0,1,1.76,1.61h0A1.46,1.46,0,0,1,179.16,240.06Z" style="fill:#407BFF"></path><path d="M209.16,240.06H189.94a1.8,1.8,0,0,1-1.76-1.62h0a1.46,1.46,0,0,1,1.48-1.61h19.22a1.8,1.8,0,0,1,1.76,1.61h0A1.46,1.46,0,0,1,209.16,240.06Z" style="fill:#263238"></path><path d="M253.17,260.54H234a1.8,1.8,0,0,1-1.76-1.62h0a1.45,1.45,0,0,1,1.47-1.61h19.23a1.78,1.78,0,0,1,1.75,1.61h0A1.46,1.46,0,0,1,253.17,260.54Z" style="fill:#407BFF"></path><path d="M352.69,260.54H263a1.81,1.81,0,0,1-1.76-1.62h0a1.45,1.45,0,0,1,1.48-1.61h89.73a1.78,1.78,0,0,1,1.75,1.61h0A1.46,1.46,0,0,1,352.69,260.54Z" style="fill:#263238"></path><path d="M319.89,271.68H227.38a1.8,1.8,0,0,1-1.76-1.62h0a1.46,1.46,0,0,1,1.47-1.62h92.52a1.81,1.81,0,0,1,1.76,1.62h0A1.47,1.47,0,0,1,319.89,271.68Z" style="fill:#407BFF"></path><path d="M353.66,271.68H331.39a1.8,1.8,0,0,1-1.76-1.62h0a1.46,1.46,0,0,1,1.47-1.62h22.28a1.81,1.81,0,0,1,1.76,1.62h0A1.46,1.46,0,0,1,353.66,271.68Z" style="fill:#407BFF"></path><path d="M303.44,282.81H294.1a1.8,1.8,0,0,1-1.76-1.61h0a1.46,1.46,0,0,1,1.48-1.62h9.34a1.8,1.8,0,0,1,1.76,1.62h0A1.46,1.46,0,0,1,303.44,282.81Z" style="fill:#407BFF"></path><path d="M354.64,282.81H313.5a1.8,1.8,0,0,1-1.76-1.61h0a1.46,1.46,0,0,1,1.48-1.62h41.13a1.79,1.79,0,0,1,1.76,1.62h0A1.45,1.45,0,0,1,354.64,282.81Z" style="fill:#263238"></path><path d="M238,294H210.64a1.79,1.79,0,0,1-1.75-1.62h0a1.45,1.45,0,0,1,1.47-1.61h27.31a1.78,1.78,0,0,1,1.75,1.61h0A1.45,1.45,0,0,1,238,294Z" style="fill:#263238"></path><path d="M355.61,294h-81.2a1.79,1.79,0,0,1-1.75-1.62h0a1.45,1.45,0,0,1,1.47-1.61h81.2a1.8,1.8,0,0,1,1.76,1.61h0A1.47,1.47,0,0,1,355.61,294Z" style="fill:#263238"></path><path d="M269.16,240.06h-49a1.8,1.8,0,0,1-1.76-1.62h0a1.45,1.45,0,0,1,1.48-1.61h49a1.8,1.8,0,0,1,1.76,1.61h0A1.47,1.47,0,0,1,269.16,240.06Z" style="fill:#263238"></path><path d="M187.68,251.2H169a1.81,1.81,0,0,1-1.76-1.62h0a1.46,1.46,0,0,1,1.48-1.62H187.4a1.81,1.81,0,0,1,1.76,1.62h0A1.47,1.47,0,0,1,187.68,251.2Z" style="fill:#263238"></path><path d="M205.7,251.2h-9.93a1.8,1.8,0,0,1-1.76-1.62h0a1.46,1.46,0,0,1,1.47-1.62h9.94a1.81,1.81,0,0,1,1.76,1.62h0A1.47,1.47,0,0,1,205.7,251.2Z" style="fill:#263238"></path><path d="M170.29,185.8l-4.93,1.86,5.25,1.85a1.13,1.13,0,0,1,.74.93v0a.91.91,0,0,1-1.27.93L164,189.14a1.66,1.66,0,0,1-1.06-1.36l0-.24a1.33,1.33,0,0,1,.82-1.36l5.73-2.25a1.08,1.08,0,0,1,1.43.93h0A.91.91,0,0,1,170.29,185.8Z" style="fill:#263238"></path><path d="M177.34,179.18h0a1.24,1.24,0,0,1,1.2,1.5l-3.68,14a1,1,0,0,1-1,.76h0a1.25,1.25,0,0,1-1.2-1.51l3.68-14A1,1,0,0,1,177.34,179.18Z" style="fill:#263238"></path><path d="M188.18,187.54l0,.24a1.3,1.3,0,0,1-.82,1.36l-5.72,2.25a1.08,1.08,0,0,1-1.43-.93v0a.89.89,0,0,1,.57-.93l4.93-1.85-5.26-1.86a1.13,1.13,0,0,1-.73-.94h0a.91.91,0,0,1,1.27-.93l6.11,2.25A1.63,1.63,0,0,1,188.18,187.54Z" style="fill:#263238"></path></g></svg>