<svg xmlns="http://www.w3.org/2000/svg" viewBox="0 0 750 500"><g id="freepik--background-simple--inject-200"><path d="M286.18,112.49c97.48-48,197.73-110.75,311-85.07,35.11,8,67.06,27.87,88.66,56.81,57.75,77.39,53.06,195.92,21.68,283a158.37,158.37,0,0,1-15.79,32.55c-31.85,49.15-85.51,51.47-137.28,37.26-43.8-12-82.61-24.4-127.86-12.17-25.06,6.77-49.35,16.08-74.32,23.17-34,9.64-69.05,16.19-104.45,16.86-93.67,1.75-200.67-46-209-150.63a167.16,167.16,0,0,1-.33-20.39c1.88-41.76,15.68-83.58,53.93-105.26,38.46-21.8,84.09-30.41,125.23-45.87C241,134,263.74,123.54,286.18,112.49Z" style="fill:#338BFF"></path><path d="M286.18,112.49c97.48-48,197.73-110.75,311-85.07,35.11,8,67.06,27.87,88.66,56.81,57.75,77.39,53.06,195.92,21.68,283a158.37,158.37,0,0,1-15.79,32.55c-31.85,49.15-85.51,51.47-137.28,37.26-43.8-12-82.61-24.4-127.86-12.17-25.06,6.77-49.35,16.08-74.32,23.17-34,9.64-69.05,16.19-104.45,16.86-93.67,1.75-200.67-46-209-150.63a167.16,167.16,0,0,1-.33-20.39c1.88-41.76,15.68-83.58,53.93-105.26,38.46-21.8,84.09-30.41,125.23-45.87C241,134,263.74,123.54,286.18,112.49Z" style="fill:#fff;opacity:0.7000000000000001"></path></g><g id="freepik--Gears--inject-200"><path d="M168.63,136.45h-8l-1-6.94a25.21,25.21,0,0,1-9.09-3.8l-5.59,4.19-5.66-5.66,4.21-5.61a25.18,25.18,0,0,1-3.74-9.11l-6.92-1v-8l6.94-1a25.09,25.09,0,0,1,3.8-9.08l-4.19-5.59L145,79.18l5.61,4.21a25.16,25.16,0,0,1,9.12-3.74l1-6.92h8l1,7a25.19,25.19,0,0,1,9.09,3.79l5.59-4.19L190.1,85l-4.21,5.61a24.87,24.87,0,0,1,3.74,9.11l6.92,1v8l-6.94,1a25.13,25.13,0,0,1-3.8,9.09l4.19,5.59L184.34,130l-5.61-4.2a25.33,25.33,0,0,1-9.12,3.74Zm-7.15-1h6.28l1-6.77.35-.06a24.23,24.23,0,0,0,9.38-3.85l.29-.2,5.49,4.11,4.44-4.44-4.1-5.47.2-.29a24.1,24.1,0,0,0,3.91-9.36l.07-.35,6.79-1v-6.28l-6.77-1-.06-.36a24.3,24.3,0,0,0-3.85-9.38l-.2-.29L188.78,85l-4.44-4.44-5.47,4.1-.29-.2a24.1,24.1,0,0,0-9.36-3.91l-.35-.07-1-6.79h-6.28l-1,6.77-.35.07a24.08,24.08,0,0,0-9.38,3.85l-.29.2-5.49-4.12-4.44,4.44,4.1,5.47-.2.3a24.06,24.06,0,0,0-3.91,9.35l-.07.35-6.79,1v6.28l6.77,1,.06.35a24.23,24.23,0,0,0,3.85,9.38l.2.3-4.11,5.49,4.44,4.43,5.47-4.1.29.21a24.08,24.08,0,0,0,9.36,3.9l.35.07Zm3.21-13a17.82,17.82,0,1,1,17.82-17.82A17.84,17.84,0,0,1,164.69,122.41Zm0-34.64a16.82,16.82,0,1,0,16.82,16.82A16.84,16.84,0,0,0,164.69,87.77Z" style="fill:#263238"></path><path d="M222.31,124.51h-7l-.85-6a21.49,21.49,0,0,1-7.7-3.21L202,118.94,197.06,114l3.6-4.8a21.55,21.55,0,0,1-3.17-7.73l-5.93-.85v-7l5.95-.85a21.66,21.66,0,0,1,3.22-7.71l-3.59-4.79,4.93-4.93,4.81,3.6a21.66,21.66,0,0,1,7.73-3.17l.84-5.92h7l.85,6a21.18,21.18,0,0,1,7.7,3.22l4.79-3.6,4.94,4.94L237.1,85.2a21.43,21.43,0,0,1,3.17,7.72l5.93.85v7l-5.95.85A21.66,21.66,0,0,1,237,109.3l3.59,4.79L235.69,119l-4.81-3.6a21.61,21.61,0,0,1-7.72,3.17Zm-6.11-1h5.24l.83-5.77.35-.07a20.59,20.59,0,0,0,8-3.28l.29-.2,4.69,3.51,3.7-3.71-3.5-4.67L236,109a20.55,20.55,0,0,0,3.33-8l.06-.35,5.8-.83V94.63l-5.78-.82-.06-.36a20.76,20.76,0,0,0-3.28-8l-.21-.29,3.52-4.69-3.71-3.71L231,80.28l-.3-.21a20.55,20.55,0,0,0-8-3.33l-.35-.06-.83-5.8h-5.24l-.83,5.78-.35.06a20.49,20.49,0,0,0-8,3.28l-.3.2-4.68-3.51-3.71,3.71,3.5,4.67-.2.29a20.61,20.61,0,0,0-3.33,8l-.07.36-5.8.82v5.25l5.78.82.07.36a20.46,20.46,0,0,0,3.28,8l.2.29-3.51,4.69,3.7,3.71,4.67-3.51.3.21a20.55,20.55,0,0,0,8,3.33l.35.07Zm2.68-11a15.31,15.31,0,1,1,15.31-15.3A15.32,15.32,0,0,1,218.88,112.5Zm0-29.61A14.31,14.31,0,1,0,233.19,97.2,14.33,14.33,0,0,0,218.88,82.89Z" style="fill:#263238"></path><path d="M533.18,389.46h-8l-1-6.95a25,25,0,0,1-9.09-3.8l-5.59,4.2-5.67-5.67,4.21-5.61a25.11,25.11,0,0,1-3.74-9.11l-6.92-1v-8l6.95-1a25,25,0,0,1,3.8-9.09l-4.2-5.59,5.67-5.66,5.61,4.2a25.18,25.18,0,0,1,9.11-3.74l1-6.91h8l1,6.94a25.13,25.13,0,0,1,9.09,3.8l5.59-4.19,5.66,5.66-4.2,5.61a25.18,25.18,0,0,1,3.74,9.11l6.91,1v8l-6.94,1a25,25,0,0,1-3.8,9.09l4.2,5.59L548.89,383l-5.61-4.21a25.11,25.11,0,0,1-9.11,3.74Zm-7.14-1h6.27l1-6.77.35-.07a24,24,0,0,0,9.38-3.85l.3-.2,5.49,4.12,4.44-4.44-4.11-5.47.21-.3a24.27,24.27,0,0,0,3.91-9.35l.06-.35,6.79-1v-6.27l-6.76-1-.07-.35a24.08,24.08,0,0,0-3.85-9.38l-.2-.3,4.11-5.49-4.43-4.43-5.47,4.1-.3-.21a24.27,24.27,0,0,0-9.35-3.91l-.36-.06-1-6.79h-6.27l-1,6.76-.36.07a24,24,0,0,0-9.37,3.85l-.3.2-5.49-4.11-4.44,4.43,4.11,5.47-.21.3a24.21,24.21,0,0,0-3.91,9.35l-.06.36-6.8,1v6.27l6.77,1,.07.36a24,24,0,0,0,3.85,9.37l.2.3-4.12,5.49,4.44,4.44,5.47-4.11.3.21a24.27,24.27,0,0,0,9.35,3.91l.35.06Zm3.2-13a17.82,17.82,0,1,1,17.82-17.81A17.83,17.83,0,0,1,529.24,375.41Zm0-34.63a16.82,16.82,0,1,0,16.82,16.82A16.83,16.83,0,0,0,529.24,340.78Z" style="fill:#263238"></path><path d="M586.86,377.52h-7l-.85-5.95a21.66,21.66,0,0,1-7.71-3.22l-4.79,3.59L561.61,367l3.6-4.81a21.66,21.66,0,0,1-3.17-7.73l-5.92-.84v-7l6-.85a21.3,21.3,0,0,1,3.22-7.71l-3.59-4.78,4.93-4.94,4.81,3.61a21.43,21.43,0,0,1,7.72-3.17l.85-5.93h7l.85,5.95a21.66,21.66,0,0,1,7.71,3.22l4.79-3.59,4.93,4.93-3.6,4.81a21.68,21.68,0,0,1,3.17,7.72l5.92.85v7l-6,.85a21.49,21.49,0,0,1-3.21,7.7l3.59,4.79L600.24,372l-4.8-3.6a21.55,21.55,0,0,1-7.73,3.17Zm-6.1-1H586l.82-5.78.36-.07a20.46,20.46,0,0,0,8-3.28l.3-.2,4.68,3.51,3.71-3.7-3.51-4.67.21-.3a20.55,20.55,0,0,0,3.33-8l.07-.35,5.79-.83v-5.24l-5.77-.83-.07-.35a20.59,20.59,0,0,0-3.28-8l-.2-.29,3.51-4.69-3.71-3.7-4.66,3.5-.3-.21a20.86,20.86,0,0,0-8-3.33l-.35-.06-.83-5.8h-5.24l-.83,5.78-.36.06a20.76,20.76,0,0,0-8,3.28l-.29.21-4.69-3.52L563,333.4l3.5,4.67-.21.3a20.55,20.55,0,0,0-3.33,8l-.06.35-5.8.83v5.24l5.78.83.06.35a20.49,20.49,0,0,0,3.28,8l.2.3-3.51,4.68,3.71,3.71,4.67-3.5.29.2a20.68,20.68,0,0,0,8,3.33l.36.07Zm2.68-11a15.31,15.31,0,1,1,15.31-15.31A15.32,15.32,0,0,1,583.44,365.51Zm0-29.62a14.31,14.31,0,1,0,14.31,14.31A14.33,14.33,0,0,0,583.44,335.89Z" style="fill:#263238"></path><path d="M658.33,108.44h-7l-.85-6a21.61,21.61,0,0,1-7.7-3.22L638,102.86l-4.94-4.93,3.61-4.81a21.48,21.48,0,0,1-3.17-7.73l-5.93-.84v-7l5.95-.85A21.73,21.73,0,0,1,636.75,69l-3.59-4.78,4.93-4.94,4.81,3.61a21.5,21.5,0,0,1,7.72-3.17l.85-5.93h7l.85,6A21.69,21.69,0,0,1,667,63l4.79-3.59,4.93,4.93-3.6,4.81a21.5,21.5,0,0,1,3.17,7.72l5.93.85v7l-6,.85a21.69,21.69,0,0,1-3.22,7.7L676.64,98l-4.93,4.93-4.81-3.6a21.66,21.66,0,0,1-7.73,3.17Zm-6.11-1h5.24l.83-5.78.35-.07a20.34,20.34,0,0,0,8-3.28l.3-.2,4.68,3.51,3.71-3.7-3.5-4.67.2-.3a20.55,20.55,0,0,0,3.33-8l.07-.35,5.8-.83V78.56l-5.78-.83-.07-.35a20.44,20.44,0,0,0-3.28-8l-.2-.29,3.51-4.69-3.7-3.7L667,64.2l-.3-.21a20.55,20.55,0,0,0-8-3.33l-.35-.06-.83-5.8h-5.24l-.83,5.78-.35.06a20.64,20.64,0,0,0-8,3.28l-.3.21-4.69-3.52-3.7,3.71L638,69l-.21.3a20.55,20.55,0,0,0-3.33,8l-.06.35-5.8.83v5.24l5.78.83.06.35a20.7,20.7,0,0,0,3.28,8l.21.3-3.52,4.68,3.71,3.71,4.67-3.5.3.2a20.55,20.55,0,0,0,8,3.33l.35.07Zm2.68-11a15.31,15.31,0,1,1,15.31-15.31A15.33,15.33,0,0,1,654.9,96.43Zm0-29.62a14.31,14.31,0,1,0,14.31,14.31A14.33,14.33,0,0,0,654.9,66.81Z" style="fill:#263238"></path></g><g id="freepik--Tab--inject-200"><path d="M429,78.61H636.2a8.52,8.52,0,0,1,8.52,8.52v215a0,0,0,0,1,0,0H420.46a0,0,0,0,1,0,0v-215A8.52,8.52,0,0,1,429,78.61Z" style="fill:#263238"></path><path d="M644.72,302.62H420.46a.5.5,0,0,1-.5-.5v-215a9,9,0,0,1,9-9H636.2a9,9,0,0,1,9,9v215A.5.5,0,0,1,644.72,302.62Zm-223.76-1H644.22V87.13a8,8,0,0,0-8-8H429a8,8,0,0,0-8,8Z" style="fill:#263238"></path><path d="M434.09,73.51H641.31A8.52,8.52,0,0,1,649.83,82V297a0,0,0,0,1,0,0H425.57a0,0,0,0,1,0,0V82A8.52,8.52,0,0,1,434.09,73.51Z" style="fill:#fff"></path><path d="M649.83,297.51H425.57a.5.5,0,0,1-.5-.5V82a9,9,0,0,1,9-9H641.31a9,9,0,0,1,9,9V297A.5.5,0,0,1,649.83,297.51Zm-223.76-1H649.33V82a8,8,0,0,0-8-8H434.09a8,8,0,0,0-8,8Z" style="fill:#263238"></path><path d="M434.09,73.51H641.31A8.52,8.52,0,0,1,649.83,82V94.87a0,0,0,0,1,0,0H425.57a0,0,0,0,1,0,0V82A8.52,8.52,0,0,1,434.09,73.51Z" style="fill:#338BFF"></path><path d="M649.83,95.37H425.57a.5.5,0,0,1-.5-.5V82a9,9,0,0,1,9-9H641.31a9,9,0,0,1,9,9V94.87A.5.5,0,0,1,649.83,95.37Zm-223.76-1H649.33V82a8,8,0,0,0-8-8H434.09a8,8,0,0,0-8,8Z" style="fill:#263238"></path><circle cx="610.28" cy="84.87" r="3.48" style="fill:#fff"></circle><path d="M610.28,88.85a4,4,0,1,1,4-4A4,4,0,0,1,610.28,88.85Zm0-7a3,3,0,1,0,3,3A3,3,0,0,0,610.28,81.89Z" style="fill:#263238"></path><path d="M624.2,84.87a3.48,3.48,0,1,0-3.48,3.48A3.48,3.48,0,0,0,624.2,84.87Z" style="fill:#fff"></path><path d="M620.72,88.85a4,4,0,1,1,4-4A4,4,0,0,1,620.72,88.85Zm0-7a3,3,0,1,0,3,3A3,3,0,0,0,620.72,81.89Z" style="fill:#263238"></path><circle cx="631.17" cy="84.87" r="3.48" style="fill:#263238"></circle><path d="M631.17,88.85a4,4,0,1,1,4-4A4,4,0,0,1,631.17,88.85Zm0-7a3,3,0,1,0,3,3A3,3,0,0,0,631.17,81.89Z" style="fill:#263238"></path><path d="M465.07,109.14H448.58a1.5,1.5,0,0,1,0-3h16.49a1.5,1.5,0,1,1,0,3Z" style="fill:#263238"></path><path d="M510.53,118.83H448.58a1.5,1.5,0,0,1,0-3h61.95a1.5,1.5,0,0,1,0,3Z" style="fill:#c4c4c4"></path><path d="M606.35,118.83h-62a1.5,1.5,0,0,1,0-3h62a1.5,1.5,0,0,1,0,3Z" style="fill:#c4c4c4"></path><path d="M539.05,118.83H514.54a1.5,1.5,0,0,1,0-3h24.51a1.5,1.5,0,0,1,0,3Z" style="fill:#263238"></path><path d="M484.23,128.51H448.58a1.5,1.5,0,0,1,0-3h35.65a1.5,1.5,0,1,1,0,3Z" style="fill:#263238"></path><path d="M524.34,128.51H488.69a1.5,1.5,0,0,1,0-3h35.65a1.5,1.5,0,1,1,0,3Z" style="fill:#263238"></path><path d="M564.46,128.51H528.8a1.5,1.5,0,0,1,0-3h35.66a1.5,1.5,0,1,1,0,3Z" style="fill:#263238"></path><path d="M584.07,128.51H568.91a1.5,1.5,0,0,1,0-3h15.16a1.5,1.5,0,1,1,0,3Z" style="fill:#263238"></path><path d="M486,109.14H469.52a1.5,1.5,0,0,1,0-3H486a1.5,1.5,0,0,1,0,3Z" style="fill:#263238"></path><path d="M584.07,109.14h-16.5a1.5,1.5,0,0,1,0-3h16.5a1.5,1.5,0,0,1,0,3Z" style="fill:#263238"></path><path d="M562.23,109.14H545.74a1.5,1.5,0,0,1,0-3h16.49a1.5,1.5,0,0,1,0,3Z" style="fill:#c4c4c4"></path><path d="M538.61,109.14H490.47a1.5,1.5,0,0,1,0-3h48.14a1.5,1.5,0,0,1,0,3Z" style="fill:#263238"></path><path d="M465.07,168.28H448.58a1.5,1.5,0,0,1,0-3h16.49a1.5,1.5,0,0,1,0,3Z" style="fill:#263238"></path><path d="M510.53,178H448.58a1.5,1.5,0,0,1,0-3h61.95a1.5,1.5,0,0,1,0,3Z" style="fill:#c4c4c4"></path><path d="M606.35,178h-62a1.5,1.5,0,0,1,0-3h62a1.5,1.5,0,0,1,0,3Z" style="fill:#263238"></path><path d="M539.05,178H514.54a1.5,1.5,0,0,1,0-3h24.51a1.5,1.5,0,0,1,0,3Z" style="fill:#263238"></path><path d="M484.23,187.65H448.58a1.5,1.5,0,0,1,0-3h35.65a1.5,1.5,0,0,1,0,3Z" style="fill:#263238"></path><path d="M524.34,187.65H488.69a1.5,1.5,0,0,1,0-3h35.65a1.5,1.5,0,0,1,0,3Z" style="fill:#263238"></path><path d="M564.46,187.65H528.8a1.5,1.5,0,0,1,0-3h35.66a1.5,1.5,0,0,1,0,3Z" style="fill:#c4c4c4"></path><path d="M584.07,187.65H568.91a1.5,1.5,0,0,1,0-3h15.16a1.5,1.5,0,0,1,0,3Z" style="fill:#263238"></path><path d="M486,168.28H469.52a1.5,1.5,0,0,1,0-3H486a1.5,1.5,0,0,1,0,3Z" style="fill:#263238"></path><path d="M584.07,168.28h-16.5a1.5,1.5,0,0,1,0-3h16.5a1.5,1.5,0,0,1,0,3Z" style="fill:#263238"></path><path d="M562.23,168.28H545.74a1.5,1.5,0,0,1,0-3h16.49a1.5,1.5,0,0,1,0,3Z" style="fill:#c4c4c4"></path><path d="M538.61,168.28H490.47a1.5,1.5,0,0,1,0-3h48.14a1.5,1.5,0,0,1,0,3Z" style="fill:#263238"></path><path d="M465.07,255.46H448.58a1.5,1.5,0,0,1,0-3h16.49a1.5,1.5,0,0,1,0,3Z" style="fill:#263238"></path><path d="M510.53,265.15H448.58a1.5,1.5,0,0,1,0-3h61.95a1.5,1.5,0,0,1,0,3Z" style="fill:#c4c4c4"></path><path d="M606.35,265.15h-62a1.5,1.5,0,0,1,0-3h62a1.5,1.5,0,0,1,0,3Z" style="fill:#263238"></path><path d="M539.05,265.15H514.54a1.5,1.5,0,0,1,0-3h24.51a1.5,1.5,0,0,1,0,3Z" style="fill:#263238"></path><path d="M484.23,274.83H448.58a1.5,1.5,0,0,1,0-3h35.65a1.5,1.5,0,0,1,0,3Z" style="fill:#263238"></path><path d="M524.34,274.83H488.69a1.5,1.5,0,0,1,0-3h35.65a1.5,1.5,0,0,1,0,3Z" style="fill:#263238"></path><path d="M564.46,274.83H528.8a1.5,1.5,0,0,1,0-3h35.66a1.5,1.5,0,0,1,0,3Z" style="fill:#c4c4c4"></path><path d="M584.07,274.83H568.91a1.5,1.5,0,0,1,0-3h15.16a1.5,1.5,0,0,1,0,3Z" style="fill:#263238"></path><path d="M486,255.46H469.52a1.5,1.5,0,0,1,0-3H486a1.5,1.5,0,0,1,0,3Z" style="fill:#263238"></path><path d="M584.07,255.46h-16.5a1.5,1.5,0,0,1,0-3h16.5a1.5,1.5,0,0,1,0,3Z" style="fill:#263238"></path><path d="M562.23,255.46H545.74a1.5,1.5,0,0,1,0-3h16.49a1.5,1.5,0,0,1,0,3Z" style="fill:#c4c4c4"></path><path d="M538.61,255.46H490.47a1.5,1.5,0,0,1,0-3h48.14a1.5,1.5,0,0,1,0,3Z" style="fill:#263238"></path><path d="M557.77,138.71H541.28a1.5,1.5,0,0,1,0-3h16.49a1.5,1.5,0,0,1,0,3Z" style="fill:#263238"></path><path d="M535.93,138.71H519.44a1.5,1.5,0,0,1,0-3h16.49a1.5,1.5,0,0,1,0,3Z" style="fill:#263238"></path><path d="M512.31,138.71H464.18a1.5,1.5,0,0,1,0-3h48.13a1.5,1.5,0,0,1,0,3Z" style="fill:#263238"></path><path d="M557.77,156H541.28a1.5,1.5,0,0,1,0-3h16.49a1.5,1.5,0,0,1,0,3Z" style="fill:#263238"></path><path d="M535.93,156H519.44a1.5,1.5,0,0,1,0-3h16.49a1.5,1.5,0,0,1,0,3Z" style="fill:#263238"></path><path d="M512.31,156H464.18a1.5,1.5,0,0,1,0-3h48.13a1.5,1.5,0,0,1,0,3Z" style="fill:#c4c4c4"></path><path d="M480.67,147.38H464.18a1.5,1.5,0,1,1,0-3h16.49a1.5,1.5,0,0,1,0,3Z" style="fill:#263238"></path><path d="M502.51,147.38H486a1.5,1.5,0,0,1,0-3h16.5a1.5,1.5,0,0,1,0,3Z" style="fill:#263238"></path><path d="M557.77,147.38H509.64a1.5,1.5,0,0,1,0-3h48.13a1.5,1.5,0,0,1,0,3Z" style="fill:#c4c4c4"></path><path d="M557.77,199.38H541.28a1.5,1.5,0,0,1,0-3h16.49a1.5,1.5,0,0,1,0,3Z" style="fill:#263238"></path><path d="M535.93,199.38H519.44a1.5,1.5,0,0,1,0-3h16.49a1.5,1.5,0,0,1,0,3Z" style="fill:#263238"></path><path d="M512.31,199.38H464.18a1.5,1.5,0,1,1,0-3h48.13a1.5,1.5,0,0,1,0,3Z" style="fill:#263238"></path><path d="M557.77,216.71H541.28a1.5,1.5,0,0,1,0-3h16.49a1.5,1.5,0,0,1,0,3Z" style="fill:#263238"></path><path d="M535.93,216.71H519.44a1.5,1.5,0,0,1,0-3h16.49a1.5,1.5,0,0,1,0,3Z" style="fill:#263238"></path><path d="M512.31,216.71H464.18a1.5,1.5,0,0,1,0-3h48.13a1.5,1.5,0,0,1,0,3Z" style="fill:#c4c4c4"></path><path d="M480.67,208.05H464.18a1.5,1.5,0,0,1,0-3h16.49a1.5,1.5,0,0,1,0,3Z" style="fill:#263238"></path><path d="M502.51,208.05H486a1.5,1.5,0,0,1,0-3h16.5a1.5,1.5,0,0,1,0,3Z" style="fill:#263238"></path><path d="M557.77,208.05H509.64a1.5,1.5,0,0,1,0-3h48.13a1.5,1.5,0,0,1,0,3Z" style="fill:#c4c4c4"></path><path d="M480.67,226.91H464.18a1.5,1.5,0,0,1,0-3h16.49a1.5,1.5,0,0,1,0,3Z" style="fill:#263238"></path><path d="M502.51,226.91H486a1.5,1.5,0,0,1,0-3h16.5a1.5,1.5,0,0,1,0,3Z" style="fill:#263238"></path><path d="M557.77,226.91H509.64a1.5,1.5,0,0,1,0-3h48.13a1.5,1.5,0,0,1,0,3Z" style="fill:#c4c4c4"></path><path d="M480.67,244.24H464.18a1.5,1.5,0,0,1,0-3h16.49a1.5,1.5,0,1,1,0,3Z" style="fill:#263238"></path><path d="M502.51,244.24H486a1.5,1.5,0,0,1,0-3h16.5a1.5,1.5,0,0,1,0,3Z" style="fill:#263238"></path><path d="M557.77,244.24H509.64a1.5,1.5,0,0,1,0-3h48.13a1.5,1.5,0,0,1,0,3Z" style="fill:#c4c4c4"></path><path d="M557.77,235.58H541.28a1.5,1.5,0,0,1,0-3h16.49a1.5,1.5,0,0,1,0,3Z" style="fill:#263238"></path><path d="M535.93,235.58H519.44a1.5,1.5,0,0,1,0-3h16.49a1.5,1.5,0,0,1,0,3Z" style="fill:#263238"></path><path d="M512.31,235.58H464.18a1.5,1.5,0,0,1,0-3h48.13a1.5,1.5,0,0,1,0,3Z" style="fill:#c4c4c4"></path><rect x="437.19" y="104.28" width="5.27" height="5.95" style="fill:#263238"></rect><rect x="437.19" y="114.05" width="5.27" height="5.95" style="fill:#263238"></rect><rect x="437.19" y="123.82" width="5.27" height="5.95" style="fill:#263238"></rect><rect x="437.19" y="133.6" width="5.27" height="5.95" style="fill:#263238"></rect><rect x="437.19" y="143.37" width="5.27" height="5.95" style="fill:#263238"></rect><rect x="437.19" y="153.14" width="5.27" height="5.95" style="fill:#263238"></rect><rect x="437.19" y="162.91" width="5.27" height="5.95" style="fill:#263238"></rect><rect x="437.19" y="172.69" width="5.27" height="5.95" style="fill:#263238"></rect><rect x="437.19" y="182.46" width="5.27" height="5.95" style="fill:#263238"></rect><rect x="437.19" y="192.23" width="5.27" height="5.95" style="fill:#263238"></rect><rect x="437.19" y="202" width="5.27" height="5.95" style="fill:#263238"></rect><rect x="437.19" y="211.78" width="5.27" height="5.95" style="fill:#263238"></rect><rect x="437.19" y="221.55" width="5.27" height="5.95" style="fill:#263238"></rect><rect x="437.19" y="231.32" width="5.27" height="5.95" style="fill:#263238"></rect><rect x="437.19" y="241.09" width="5.27" height="5.95" style="fill:#263238"></rect><rect x="437.19" y="250.87" width="5.27" height="5.95" style="fill:#263238"></rect><rect x="437.19" y="260.64" width="5.27" height="5.95" style="fill:#263238"></rect><rect x="437.19" y="270.41" width="5.27" height="5.95" style="fill:#263238"></rect></g><g id="freepik--Documents--inject-200"><rect x="167.6" y="168.01" width="142.46" height="114.54" transform="translate(13.55 464.11) rotate(-90)" style="fill:#fff"></rect><path d="M296.1,297H181.56a.51.51,0,0,1-.5-.5V154.05a.5.5,0,0,1,.5-.5H296.1a.5.5,0,0,1,.5.5V296.51A.5.5,0,0,1,296.1,297Zm-114-1H295.6V154.55H182.06Z" style="fill:#263238"></path><path d="M280.5,273.81H199a.5.5,0,0,1,0-1H280.5a.5.5,0,0,1,0,1Z" style="fill:#263238"></path><path d="M280.5,257.8H199a.5.5,0,0,1,0-1H280.5a.5.5,0,0,1,0,1Z" style="fill:#263238"></path><path d="M280.5,241.79H199a.51.51,0,0,1-.5-.5.5.5,0,0,1,.5-.5H280.5a.5.5,0,0,1,.5.5A.5.5,0,0,1,280.5,241.79Z" style="fill:#263238"></path><path d="M280.5,225.78H199a.51.51,0,0,1-.5-.5.5.5,0,0,1,.5-.5H280.5a.5.5,0,0,1,.5.5A.5.5,0,0,1,280.5,225.78Z" style="fill:#263238"></path><path d="M280.5,209.77H199a.51.51,0,0,1-.5-.5.5.5,0,0,1,.5-.5H280.5a.5.5,0,0,1,.5.5A.5.5,0,0,1,280.5,209.77Z" style="fill:#263238"></path><path d="M280.5,193.75H199a.5.5,0,0,1-.5-.5.51.51,0,0,1,.5-.5H280.5a.5.5,0,0,1,.5.5A.5.5,0,0,1,280.5,193.75Z" style="fill:#263238"></path><path d="M280.5,177.74H199a.5.5,0,0,1-.5-.5.51.51,0,0,1,.5-.5H280.5a.5.5,0,0,1,.5.5A.5.5,0,0,1,280.5,177.74Z" style="fill:#263238"></path><rect x="256.12" y="153.6" width="39.63" height="91.59" style="fill:#263238"></rect><path d="M295.75,245.69H256.12a.51.51,0,0,1-.5-.5V153.6a.5.5,0,0,1,.5-.5h39.63a.5.5,0,0,1,.5.5v91.59A.5.5,0,0,1,295.75,245.69Zm-39.13-1h38.63V154.1H256.62Z" style="fill:#263238"></path><rect x="246.72" y="112.01" width="142.46" height="114.54" transform="translate(148.66 487.23) rotate(-90)" style="fill:#fff"></rect><path d="M375.22,241H260.68a.5.5,0,0,1-.5-.5V98.05a.5.5,0,0,1,.5-.5H375.22a.51.51,0,0,1,.5.5V240.51A.5.5,0,0,1,375.22,241Zm-114-1H374.72V98.55H261.18Z" style="fill:#263238"></path><path d="M359.62,217.82H278.11a.5.5,0,0,1-.5-.5.5.5,0,0,1,.5-.5h81.51a.5.5,0,0,1,.5.5A.51.51,0,0,1,359.62,217.82Z" style="fill:#263238"></path><path d="M359.62,201.81H278.11a.5.5,0,0,1-.5-.5.5.5,0,0,1,.5-.5h81.51a.5.5,0,0,1,.5.5A.51.51,0,0,1,359.62,201.81Z" style="fill:#263238"></path><path d="M359.62,185.8H278.11a.5.5,0,0,1-.5-.5.5.5,0,0,1,.5-.5h81.51a.5.5,0,0,1,.5.5A.51.51,0,0,1,359.62,185.8Z" style="fill:#263238"></path><path d="M359.62,169.78H278.11a.5.5,0,0,1-.5-.5.5.5,0,0,1,.5-.5h81.51a.51.51,0,0,1,.5.5A.5.5,0,0,1,359.62,169.78Z" style="fill:#263238"></path><path d="M359.62,153.77H278.11a.5.5,0,0,1-.5-.5.5.5,0,0,1,.5-.5h81.51a.51.51,0,0,1,.5.5A.5.5,0,0,1,359.62,153.77Z" style="fill:#263238"></path><path d="M359.62,137.76H278.11a.5.5,0,0,1-.5-.5.5.5,0,0,1,.5-.5h81.51a.51.51,0,0,1,.5.5A.5.5,0,0,1,359.62,137.76Z" style="fill:#263238"></path><path d="M359.62,121.75H278.11a.5.5,0,0,1,0-1h81.51a.5.5,0,0,1,0,1Z" style="fill:#263238"></path></g><g id="freepik--Folder--inject-200"><polygon points="334.32 336.57 181.19 336.57 196.49 442.83 347.65 442.83 334.32 336.57" style="fill:#263238"></polygon><path d="M347.65,443.33H196.49a.49.49,0,0,1-.49-.43L180.69,336.64a.49.49,0,0,1,.12-.4.49.49,0,0,1,.38-.17H334.32a.51.51,0,0,1,.5.44l13.32,106.26a.47.47,0,0,1-.12.39A.48.48,0,0,1,347.65,443.33Zm-150.73-1H347.08l-13.2-105.26H181.76Z" style="fill:#263238"></path><rect x="216.06" y="277.33" width="10.13" height="18.49" style="fill:#263238"></rect><path d="M226.18,296.32H216.06a.5.5,0,0,1-.5-.5V277.33a.5.5,0,0,1,.5-.5h10.12a.5.5,0,0,1,.5.5v18.49A.5.5,0,0,1,226.18,296.32Zm-9.62-1h9.12V277.83h-9.12Z" style="fill:#263238"></path><rect x="207.16" y="284.57" width="142.46" height="114.54" transform="translate(-63.45 620.23) rotate(-90)" style="fill:#fff"></rect><path d="M335.66,413.57H221.12a.5.5,0,0,1-.5-.5V270.61a.5.5,0,0,1,.5-.5H335.66a.5.5,0,0,1,.5.5V413.07A.5.5,0,0,1,335.66,413.57Zm-114-1H335.16V271.11H221.62Z" style="fill:#263238"></path><path d="M320.06,390.38H238.55a.5.5,0,0,1-.5-.5.5.5,0,0,1,.5-.5h81.51a.5.5,0,0,1,.5.5A.51.51,0,0,1,320.06,390.38Z" style="fill:#263238"></path><path d="M320.06,374.36H238.55a.5.5,0,0,1-.5-.5.5.5,0,0,1,.5-.5h81.51a.51.51,0,0,1,.5.5A.5.5,0,0,1,320.06,374.36Z" style="fill:#263238"></path><path d="M320.06,358.35H238.55a.5.5,0,0,1-.5-.5.5.5,0,0,1,.5-.5h81.51a.51.51,0,0,1,.5.5A.5.5,0,0,1,320.06,358.35Z" style="fill:#263238"></path><path d="M320.06,342.34H238.55a.5.5,0,0,1,0-1h81.51a.5.5,0,0,1,0,1Z" style="fill:#263238"></path><path d="M320.06,326.33H238.55a.5.5,0,0,1,0-1h81.51a.5.5,0,0,1,0,1Z" style="fill:#263238"></path><path d="M320.06,310.32H238.55a.5.5,0,0,1-.5-.5.5.5,0,0,1,.5-.5h81.51a.5.5,0,0,1,.5.5A.51.51,0,0,1,320.06,310.32Z" style="fill:#263238"></path><path d="M320.06,294.31H238.55a.5.5,0,0,1-.5-.5.5.5,0,0,1,.5-.5h81.51a.5.5,0,0,1,.5.5A.51.51,0,0,1,320.06,294.31Z" style="fill:#263238"></path><path d="M347.67,341.86v-3.63a4.82,4.82,0,0,0-4.82-4.83H281.41a4.83,4.83,0,0,0-4.83,4.83h0a3.64,3.64,0,0,1-3.63,3.63H206l-9.48,101H347.6l9.48-101Z" style="fill:#338BFF"></path><path d="M347.6,443.33H196.49a.52.52,0,0,1-.37-.16.56.56,0,0,1-.13-.39l9.48-101a.5.5,0,0,1,.5-.45h67a3.13,3.13,0,0,0,3.13-3.13,5.33,5.33,0,0,1,5.33-5.33h61.44a5.33,5.33,0,0,1,5.32,5.33v3.13h8.91a.52.52,0,0,1,.37.16.5.5,0,0,1,.12.39l-9.48,101A.5.5,0,0,1,347.6,443.33Zm-150.56-1h150.1l9.39-100h-8.86a.51.51,0,0,1-.5-.5v-3.63a4.33,4.33,0,0,0-4.32-4.33H281.41a4.33,4.33,0,0,0-4.33,4.33,4.14,4.14,0,0,1-4.13,4.13H206.43Z" style="fill:#263238"></path></g></svg>