<svg xmlns="http://www.w3.org/2000/svg" viewBox="0 0 500 500"><g id="freepik--Clouds--inject-39"><path d="M322.1,97.34a9.05,9.05,0,0,1-3.54,1.74c-3.55.79-13,.39-14.6,4.73a9.39,9.39,0,0,1-5.91,5.52s-7.49.4-7.89,2-3.15,4.34-3.15,4.34H416s4.34-6.7-2.76-13c-6.21-5.52-17.56,2.84-19-4" style="fill:none;stroke:#263238;stroke-linecap:round;stroke-linejoin:round"></path><path d="M393.07,88.63c-1.44-5.19-4.47-12.19-10.62-14.79-10.26-4.34-18.93,1.58-21.3,7.49s-3.94,9.86-13,4.73-17-4.73-19.72,2a30.81,30.81,0,0,1-2.93,5.56" style="fill:none;stroke:#263238;stroke-linecap:round;stroke-linejoin:round"></path><path d="M103.05,166.1h44.79s2.62-4-1.67-7.87-12.65,3.34-11.45-4.77c0,0-1-10-7.16-12.64a10,10,0,0,0-9.9.9" style="fill:none;stroke:#263238;stroke-linecap:round;stroke-linejoin:round"></path><path d="M114.68,145.35c-1.43,3.58-2.39,6-7.87,2.86s-10.26-2.86-11.93,1.2-3.82,6.2-6,6.67-7.87.24-8.83,2.87a5.71,5.71,0,0,1-3.58,3.34s-4.53.23-4.77,1.19a9.23,9.23,0,0,1-1.91,2.62H96" style="fill:none;stroke:#263238;stroke-linecap:round;stroke-linejoin:round"></path><path d="M327.25,166.1H348.4s2.62-4-1.67-7.87-12.64,3.34-11.45-4.77c0,0-.95-10-7.16-12.64s-11.44,1-12.88,4.53-2.38,6-7.87,2.86-10.26-2.86-11.92,1.2-3.82,6.2-6,6.67-7.87.24-8.82,2.87a5.73,5.73,0,0,1-3.58,3.34s-4.53.23-4.77,1.19a9.23,9.23,0,0,1-1.91,2.62h49.82" style="fill:none;stroke:#263238;stroke-linecap:round;stroke-linejoin:round"></path></g><g id="freepik--character-2--inject-39"><line x1="208.65" y1="33.36" x2="221.15" y2="152.15" style="fill:none;stroke:#263238;stroke-linecap:round;stroke-linejoin:round"></line><polygon points="246.14 58.6 236.82 60.74 228.29 77.61 214.78 73.75 214.4 77.43 231.2 84.4 237.21 76.06 237.21 90.61 255.25 91.39 258.94 74.9 265.53 80.72 265.53 96.04 269.41 96.04 271.74 76.84 261.46 60.16 246.14 58.6" style="fill:#fff;stroke:#263238;stroke-linecap:round;stroke-linejoin:round"></polygon><line x1="237.21" y1="76.06" x2="237.07" y2="67.85" style="fill:none;stroke:#263238;stroke-linecap:round;stroke-linejoin:round"></line><path d="M246,64l2.53,4.75s7,2.22,8.24,2.53,5.07-.95,8.23-1.58,13.31,4.43,13.31,4.43l8.87.32-4.75-5.7-17.11-2.54-8.87,2.86-6-1.59L251.73,65l-2.85-4.44Z" style="fill:#338BFF;stroke:#263238;stroke-linecap:round;stroke-linejoin:round"></path><path d="M246.91,57.24a2,2,0,0,0-2.33,1.56c-.38,1.94-.77,6.79-.77,6.79l4.65-1.36,5.44,2.33s1.74-5.05.77-6.79S249.24,55.69,246.91,57.24Z" style="fill:#fff;stroke:#263238;stroke-linecap:round;stroke-linejoin:round"></path><path d="M245.94,54.53s.58,5.43.78,7.37,1.36,4.85,2.13,4.27,3.49-6,3.49-6l1.36-3.68Z" style="fill:#fff;stroke:#263238;stroke-linecap:round;stroke-linejoin:round"></path><path d="M246,46.6s-1.7-.15-1.7,2.63,1.23,2.93,1.23,2.93Z" style="fill:#fff;stroke:#263238;stroke-linecap:round;stroke-linejoin:round"></path><path d="M257.37,48.92a1.51,1.51,0,0,1,1.39,1.85c-.31,1.7-3.24,4-3.24,4Z" style="fill:#fff;stroke:#263238;stroke-linecap:round;stroke-linejoin:round"></path><path d="M251.76,41s-3.1-.78-4.85,2.91-1.36,8.15-1,10.67,2.72,3.68,5.05,3.68,5.81-4.84,6.59-8.53S257.77,41,251.76,41Z" style="fill:#fff;stroke:#263238;stroke-linecap:round;stroke-linejoin:round"></path><polygon points="211.03 71.6 211.8 77.42 215.29 77.81 214.71 71.21 211.03 71.6" style="fill:#fff;stroke:#263238;stroke-linecap:round;stroke-linejoin:round"></polygon><polygon points="214.78 71.51 216.19 71.32 216.47 74.42 215.06 74.61 214.78 71.51" style="fill:#fff;stroke:#263238;stroke-linecap:round;stroke-linejoin:round"></polygon><polygon points="265.53 96.04 263.41 99.36 263.96 102.69 265.81 102.51 268.96 101.4 269.41 96.04 265.53 96.04" style="fill:#fff;stroke:#263238;stroke-linecap:round;stroke-linejoin:round"></polygon><polygon points="237.21 90.61 235.84 96.59 220.66 116.57 230.84 145.26 233.43 144.7 231.21 117.31 243.61 104.17 245.09 105.1 245.13 119.76 259.34 143.78 262.3 143.03 255.64 119.9 256.01 95.29 255.25 91.39 237.21 90.61" style="fill:#263238;stroke:#263238;stroke-linecap:round;stroke-linejoin:round"></polygon><path d="M230.84,145.26l-2.22,3.14s-3.52,1.67-4.07,2.59,3,.74,3,.74l4.07-.37,4.26-2.77-2.41-3.89Z" style="fill:#fff;stroke:#263238;stroke-linecap:round;stroke-linejoin:round"></path><path d="M209.18,37.59s-1.86,4.24-9.54,7.15-18.8,4.5-21.71,10.59-2.91,5.57-3.44,9a9.29,9.29,0,0,1-2.65,5.29s2.65.27,4-1.58,1.86-7.15,4-7.95S185.87,58,185.87,58s-3.7,3.18-4,4.77-.53,5.3-1.06,7.68A6.32,6.32,0,0,1,179,73.87s3.44,0,4.5-2.38,0-5.56,3.44-7.95,7.15-1.32,13-1.06,11.39-3.17,11.39-3.17Z" style="fill:#338BFF;stroke:#263238;stroke-linecap:round;stroke-linejoin:round"></path><polygon points="259.34 143.78 256.79 152.25 263.12 152 262.3 143.03 259.34 143.78" style="fill:#fff;stroke:#263238;stroke-linecap:round;stroke-linejoin:round"></polygon><path d="M249.64,48.43c-.11.5-.46.85-.8.78s-.52-.54-.41-1,.46-.85.8-.78S249.74,47.93,249.64,48.43Z" style="fill:#263238"></path><path d="M254.27,49.51c-.11.5-.46.85-.8.78s-.52-.54-.41-1,.46-.85.8-.78S254.37,49,254.27,49.51Z" style="fill:#263238"></path><polyline points="251.19 49.07 249.96 52.78 251.97 52.78" style="fill:none;stroke:#263238;stroke-linecap:round;stroke-linejoin:round"></polyline><path d="M248.42,53.86s1.08,1.85,3.86.77" style="fill:none;stroke:#263238;stroke-linecap:round;stroke-linejoin:round"></path><path d="M248.26,45.83a2,2,0,0,1,2.47.46" style="fill:none;stroke:#263238;stroke-linecap:round;stroke-linejoin:round"></path><path d="M253.05,46.91A2.19,2.19,0,0,1,256.13,48" style="fill:none;stroke:#263238;stroke-linecap:round;stroke-linejoin:round"></path><path d="M245.33,45.37,256.44,44s-.46,1.85.16,2.31.77,2.63.77,2.63l-.46,2.47,2.47-4.32s.77-3.4.15-4.48a2.71,2.71,0,0,0-1.85-1.24,6.32,6.32,0,0,0-6.18-2.77c-4.32.46-6.17,2.62-6.17,4.32Z" style="fill:#263238;stroke:#263238;stroke-linecap:round;stroke-linejoin:round"></path></g><g id="freepik--Mountain--inject-39"><polygon points="237.13 465.2 256.73 352.73 182.75 284.84 209.6 193.36 180.86 194 168.72 204.86 143.35 204.24 139.92 216.61 132.96 215.74 130.56 220.08 118.69 243.78 112.52 267.45 89.52 296.2 87 364.04 49.92 417.56 38.26 465.2 237.13 465.2" style="fill:gray;stroke:#263238;stroke-linecap:round;stroke-linejoin:round"></polygon><path d="M404.06,465.2l-24.55-53.83,40,26.65V395.37L396,367.52l3.48-31.33L363.78,268.3,362,244.8l-12.18-11.32L287.3,238l-4.46-21.95-40-22.63-24,58.11-22.11,9.78,15.58,21.36-2.52,16.93L215,325.74l-87,19.15s-.87,41.78-.87,45.26-17.41,23.5-17.41,23.5l-.81,51.55Z" style="fill:#ababab;stroke:#263238;stroke-linecap:round;stroke-linejoin:round"></path><polygon points="452.51 465.2 442.12 460.65 429.06 432.8 413.39 421.49 406.43 404.95 399.47 391.89 362.27 373.72 368.04 465.2 452.51 465.2" style="fill:#ccc;stroke:#263238;stroke-linecap:round;stroke-linejoin:round"></polygon><polygon points="63.15 465.09 109.66 465.09 110.5 438.02 106.15 422.36 106.15 380.58 95.71 378.84 87 388.41 73.08 396.25 42.91 465.2 63.15 465.2 63.15 465.09" style="fill:#ccc;stroke:#263238;stroke-linecap:round;stroke-linejoin:round"></polygon><line x1="79.24" y1="419.77" x2="80.26" y2="415.43" style="fill:none;stroke:#263238;stroke-miterlimit:10"></line><polyline points="63.15 465.2 69.35 440.71 75.2 436.99 78.62 422.41" style="fill:none;stroke:#263238;stroke-miterlimit:10"></polyline><line x1="53.11" y1="465.46" x2="62.96" y2="437.52" style="fill:none;stroke:#263238;stroke-miterlimit:10"></line><line x1="95.85" y1="390.4" x2="94.89" y2="394.94" style="fill:none;stroke:#263238;stroke-miterlimit:10"></line><line x1="98.08" y1="379.78" x2="96.26" y2="388.45" style="fill:none;stroke:#263238;stroke-miterlimit:10"></line><polygon points="109.66 465.09 110.5 438.02 106.15 422.36 106.15 380.58 97.45 436.28 89.61 438.89 87 454.56 85.38 465.09 109.66 465.09" style="fill:#fff;stroke:#263238;stroke-linecap:round;stroke-linejoin:round"></polygon><path d="M258.61,434.22A56.94,56.94,0,0,0,273,430.3a23.43,23.43,0,0,0,9.4-7c.29-.39.56-.8.82-1.21l-6.87-31L262.8,379.27l-2.26-10.14-13-10.14-4.5,15.78-7.33,10.14-.56,37.19,7,13.38A121.56,121.56,0,0,0,258.61,434.22Z" style="fill:#fff;stroke:#263238;stroke-linecap:round;stroke-linejoin:round"></path><polyline points="258.61 434.22 257.23 422.64 261.3 411.67 261.3 405.17 260.48 395.01" style="fill:none;stroke:#263238;stroke-miterlimit:10"></polyline><polyline points="266.86 399.02 269.02 411.26 273.08 412.07 272.27 422.23 273.89 427.52" style="fill:none;stroke:#263238;stroke-miterlimit:10"></polyline><line x1="265.36" y1="390.54" x2="266.08" y2="394.62" style="fill:none;stroke:#263238;stroke-miterlimit:10"></line><line x1="251.95" y1="364.53" x2="255.2" y2="397.85" style="fill:none;stroke:#263238;stroke-miterlimit:10"></line><path d="M212.25,433.39a185,185,0,0,0,28.25,2.1c1.9,0,3.76-.05,5.59-.12l-.2-10.46-3.38-4.5V388.29l5.64-5.64L247.58,359l-6.76,12.4-9,7.88-5.64,16.34-9,10.71-2.26,11.27-10.7,9-4.27,4.55Q206,432.44,212.25,433.39Z" style="fill:#ccc;stroke:#263238;stroke-linecap:round;stroke-linejoin:round"></path><polygon points="375.1 465.2 422.35 465.11 361.17 428.45 346.38 392.76 334.19 391.02 323.75 377.1 318.52 382.32 322 412.78 308.95 434.54 308.95 448.47 302.86 464.13 332.3 465.2 375.1 465.2" style="fill:#fff;stroke:#263238;stroke-linecap:round;stroke-linejoin:round"></polygon><polygon points="351.4 465.14 349.17 452.69 352.68 445.34 351.72 430.97 354.6 433.85 374.08 465.14 351.4 465.14" style="fill:#ccc;stroke:#263238;stroke-linecap:round;stroke-linejoin:round"></polygon><polygon points="351.72 430.97 365.46 437.68 370.88 444.38 386.53 452.37 397.39 459.08 404.06 465.2 374.08 465.14 351.72 430.97" style="fill:#fff;stroke:#263238;stroke-linecap:round;stroke-linejoin:round"></polygon><polygon points="308.95 434.54 308.95 448.47 302.39 464.92 327.24 465.24 322 435.41 332.45 425.84 318.52 382.32 322 412.78 308.95 434.54" style="fill:#ccc;stroke:#263238;stroke-linecap:round;stroke-linejoin:round"></polygon><polyline points="334.19 391.02 343.38 410.45 347.44 410.86 350.69 420.61" style="fill:none;stroke:#263238;stroke-miterlimit:10"></polyline><line x1="340.36" y1="449.8" x2="341.76" y2="454.34" style="fill:none;stroke:#263238;stroke-miterlimit:10"></line><polyline points="334.85 414.51 337.69 425.49 342.57 433.61 336.88 438.49 339.34 446.48" style="fill:none;stroke:#263238;stroke-miterlimit:10"></polyline><polygon points="218.74 191.25 198.34 213.56 197.64 172.66 217.95 148 218.74 191.25" style="fill:#ccc;stroke:#263238;stroke-linecap:round;stroke-linejoin:round"></polygon><path d="M204.58,280.57l20.86-18.41a22,22,0,0,1,4.95-3.24,37.26,37.26,0,0,1,7-2.5,64.3,64.3,0,0,1,9.4-1.56,108.69,108.69,0,0,1,12-.44,194.19,194.19,0,0,1,28.9,2.55,191.89,191.89,0,0,1,23.51,5.43c6.94,2.07,13,4.29,18.23,6.34s9.55,3.93,13.05,5.31L315.41,291.6c-3.31-1.3-7.42-3.07-12.35-5s-10.68-4-17.25-6a179.14,179.14,0,0,0-22.24-5.09,183.08,183.08,0,0,0-27.36-2.36,102,102,0,0,0-11.38.44,60.79,60.79,0,0,0-8.89,1.49,34.78,34.78,0,0,0-6.67,2.38A20.92,20.92,0,0,0,204.58,280.57Z" style="fill:#ccc;stroke:#263238;stroke-linecap:round;stroke-linejoin:round"></path><path d="M271,431.11l-23.54,9a31.3,31.3,0,0,0,5.88-2.92,19.66,19.66,0,0,0,4.38-3.81,14.9,14.9,0,0,0,2.72-4.75,16.57,16.57,0,0,0,.86-5.75,16.9,16.9,0,0,0-3-9.53A28.36,28.36,0,0,0,249,405.4a91.5,91.5,0,0,0-16.46-7c-6.8-2.29-15-4.55-24.65-6.9a246.72,246.72,0,0,1-38.48-12.36A132.39,132.39,0,0,1,138,360.88a79.28,79.28,0,0,1-21.27-25.4,74.56,74.56,0,0,1-8-33.83,88.89,88.89,0,0,1,1-14.26,80.34,80.34,0,0,1,3.2-13.36,76.61,76.61,0,0,1,5.37-12.35,77.53,77.53,0,0,1,7.49-11.23L142,230.12a80,80,0,0,0-13.58,24.94A84.13,84.13,0,0,0,125,269.19a93.44,93.44,0,0,0-1,15.1,79.22,79.22,0,0,0,8.55,35.85,84.3,84.3,0,0,0,22.54,26.94c9.48,7.63,20.75,14,33.28,19.33a261.42,261.42,0,0,0,40.72,13.14c10.25,2.5,18.88,4.91,26.07,7.34a96.2,96.2,0,0,1,17.41,7.49c4.48,2.61,7.69,5.37,9.81,8.41a17.84,17.84,0,0,1,3.21,10.09,17.27,17.27,0,0,1-.9,6.09,15.73,15.73,0,0,1-2.86,5,20.69,20.69,0,0,1-4.63,4A33,33,0,0,1,271,431.11Z" style="fill:#ccc;stroke:#263238;stroke-linecap:round;stroke-linejoin:round"></path><path d="M155.09,347.08c9.48,7.63,20.75,14,33.28,19.33a261.42,261.42,0,0,0,40.72,13.14c10.25,2.5,18.88,4.91,26.07,7.34a96.2,96.2,0,0,1,17.41,7.49c4.48,2.61,7.69,5.37,9.81,8.41a17.84,17.84,0,0,1,3.21,10.09,16.23,16.23,0,0,1-3.22,10.44,23.43,23.43,0,0,1-9.4,7,56.94,56.94,0,0,1-14.36,3.92,123.3,123.3,0,0,1-18.11,1.27,185,185,0,0,1-28.25-2.1,223.6,223.6,0,0,1-26.61-5.71c-8.5-2.37-16.59-5.11-24.13-8s-14.54-6-20.85-9L127.88,465H357.57a85.75,85.75,0,0,0,16.51-27.25,88.29,88.29,0,0,0,5.38-33.43c-.34-12.17-2.19-23-5.82-32.71a73.46,73.46,0,0,0-16.5-25.92c-7.47-7.66-17-14.41-28.86-20.43s-26.14-11.35-43-16.16Q269,304.36,256.81,300a163.31,163.31,0,0,1-20.26-8.58c-5.4-2.83-9.45-5.64-12.15-8.52s-4.08-5.81-4.14-8.89a15.42,15.42,0,0,1,1.58-7.28,16.49,16.49,0,0,1,6-6.38,34.71,34.71,0,0,1,11.86-4.45,89.68,89.68,0,0,1,19.17-1.49,194.19,194.19,0,0,1,28.9,2.55,191.89,191.89,0,0,1,23.51,5.43c6.94,2.07,13,4.29,18.23,6.34s9.55,3.93,13.05,5.31l14.88-67c-4.68-2-9.71-4-15.22-5.9s-11.51-3.68-18.1-5.29-13.79-3-21.71-4.21-16.59-2.07-26.09-2.63l-.87-39.62L218,148l.79,43.25a151.1,151.1,0,0,0-40.5,11.51A101.72,101.72,0,0,0,148.36,223,81.44,81.44,0,0,0,130,250.62a87.43,87.43,0,0,0-6,33.67,79.22,79.22,0,0,0,8.55,35.85A84.3,84.3,0,0,0,155.09,347.08Z" style="fill:#fff;stroke:#263238;stroke-linecap:round;stroke-linejoin:round"></path><polygon points="127.88 465 140.66 410.67 124.29 420.91 113.87 465 127.88 465" style="fill:#ccc;stroke:#263238;stroke-linecap:round;stroke-linejoin:round"></polygon></g><g id="freepik--character-3--inject-39"><polyline points="370.64 286.16 366.65 281.21 370.24 278.38 372.65 281.39 371.83 283.3 372.51 284.82 371.1 285.83" style="fill:#fff;stroke:#263238;stroke-linecap:round;stroke-linejoin:round"></polyline><path d="M403,294.75s-2.73-2.44-3.75-2.28-14.4,2.4-14.4,2.4l-12.31-10.05-1.88,1.34,11.78,14.78,12.8-.8-2.75,14L380.84,323l19,11.35,3.83-12.08,15.13-14.9L412.92,300Z" style="fill:#338BFF;stroke:#263238;stroke-linecap:round;stroke-linejoin:round"></path><polygon points="406.9 291.52 404.75 296.04 403.96 295.32 402.45 306.31 412.93 299.96 411.88 298.3 412.12 294.87 406.9 291.52" style="fill:#fff;stroke:#263238;stroke-linecap:round;stroke-linejoin:round"></polygon><polygon points="402.45 306.31 408.58 302.59 403.46 298.99 402.45 306.31" style="fill:#fff;stroke:#263238;stroke-linecap:round;stroke-linejoin:round"></polygon><path d="M419,280.75s4.63-5.42,9.34-2,3.41,6.76,6.77,4.93,9.67-6.48,13.47-.56.87,12.12-1.52,13.54-1.76-1.29-1.71-2.6-3.87-3-4.74-.3-5.44,6.86-11.24,6.47-6.92-7.52-6.79-11.71a7.25,7.25,0,0,0-3.59-6.21Z" style="fill:#263238;stroke:#263238;stroke-linecap:round;stroke-linejoin:round"></path><path d="M407.9,279.63s-2.9,6.46-2.3,10.27.28,6.74,2.22,7.48,8.37-3.15,9.79-5.72,3.45-6.28,2.89-9.84S413.12,273.08,407.9,279.63Z" style="fill:#fff;stroke:#263238;stroke-linecap:round;stroke-linejoin:round"></path><path d="M409,286.41c-.15.5-.47.84-.72.76s-.33-.54-.18-1,.47-.84.72-.76S409.11,285.91,409,286.41Z" style="fill:#263238"></path><path d="M413.62,288.33c-.15.5-.48.85-.73.77s-.33-.54-.18-1,.48-.84.73-.77S413.77,287.83,413.62,288.33Z" style="fill:#263238"></path><path d="M410.17,287.24s.3.22-.12,1-1.43.5-1.32,1.17,1.38,1,1.38,1" style="fill:none;stroke:#263238;stroke-linecap:round;stroke-linejoin:round"></path><path d="M407.84,291.57s1.61,1.52,3.05,1.15" style="fill:none;stroke:#263238;stroke-linecap:round;stroke-linejoin:round"></path><line x1="415.14" y1="286.73" x2="412.15" y2="285.97" style="fill:none;stroke:#263238;stroke-linecap:round;stroke-linejoin:round"></line><line x1="409.79" y1="284.84" x2="408.36" y2="283.56" style="fill:none;stroke:#263238;stroke-linecap:round;stroke-linejoin:round"></line><path d="M407.9,279.63s-.43,1-.93,2.37c1.69-.88,4.6-1.87,7.26-.23s4,5.41,4.54,7.72c1.13-2.29,2.14-5,1.73-7.67C419.94,278.26,413.12,273.08,407.9,279.63Z" style="fill:#263238;stroke:#263238;stroke-linecap:round;stroke-linejoin:round"></path><path d="M418.08,289.39s2.08-1.91,2-.17-2.47,2.77-3,2.85-.49-.59-.49-.59" style="fill:#fff;stroke:#263238;stroke-linecap:round;stroke-linejoin:round"></path><path d="M418.79,307.38l-3.2,22.81a2.09,2.09,0,0,1-2,1.79l-.69,0a2.08,2.08,0,0,1-2.15-1.89l-1.25-13.72Z" style="fill:#338BFF;stroke:#263238;stroke-linecap:round;stroke-linejoin:round"></path><path d="M413,327.06,402.73,318l-2.3,1.93,9.86,11.41A2.08,2.08,0,0,0,412,332l.81,0a2.09,2.09,0,0,0,1.94-2.6h0" style="fill:#338BFF;stroke:#263238;stroke-linecap:round;stroke-linejoin:round"></path><polygon points="402.73 317.99 400.32 314.14 394.9 313.54 394.93 316.77 397.53 318.94 399.18 319.17 400.43 319.92 402.73 317.99" style="fill:#fff;stroke:#263238;stroke-linecap:round;stroke-linejoin:round"></polygon><path d="M373.71,330s-11.32,14.73-10.7,17.17,17.16,28.27,17.16,28.27l2.3-1.52-9.09-28.38,18.27-7.27Z" style="fill:#fff;stroke:#263238;stroke-linecap:round;stroke-linejoin:round"></path><polygon points="382.83 335.46 384.17 341.35 390.22 339.03 382.83 335.46" style="fill:#263238;stroke:#263238;stroke-miterlimit:10"></polygon><path d="M380.17,375.39l-3,5s-2.39,3.58-1.69,3.8c1.53.49,5.49-2.11,6.62-2.91s2.34-1.33,3.09-1.86,2.25-.84.2-2.74c-.69-.63-2.88-2.81-2.88-2.81Z" style="fill:#fff;stroke:#263238;stroke-linecap:round;stroke-linejoin:round"></path><path d="M398.86,325.3a137.81,137.81,0,0,0-15.61-5.17c-9.17-2.49-15.95-4.42-15.82-2.13s16.81,39.18,16.81,39.18l2.86-.91-4.36-20.34s7,4.9,12.17,2.47,7.14-9,6.78-11.24" style="fill:#263238;stroke:#263238;stroke-linecap:round;stroke-linejoin:round"></path><path d="M381.3,319.6c-8.16-2.21-14-3.73-13.87-1.6.13,2.29,16.81,39.18,16.81,39.18l2.86-.91-4.36-20.34C384.23,332.3,382.65,324.67,381.3,319.6Z" style="fill:#fff;stroke:#263238;stroke-linecap:round;stroke-linejoin:round"></path><line x1="382.74" y1="335.93" x2="375.55" y2="325.5" style="fill:#fff;stroke:#263238;stroke-linecap:round;stroke-linejoin:round"></line><path d="M384.24,357.18l-2.68,5.05s-5.41,5.24-4.21,5.51,11.37-4.1,12.13-5.14-2.38-6.33-2.38-6.33Z" style="fill:#fff;stroke:#263238;stroke-linecap:round;stroke-linejoin:round"></path><line x1="371.8" y1="283.72" x2="397.02" y2="313.75" style="fill:none;stroke:#263238;stroke-miterlimit:10"></line><line x1="294.2" y1="190.72" x2="368.21" y2="279.28" style="fill:none;stroke:#263238;stroke-miterlimit:10"></line><line x1="399.18" y1="319.16" x2="399.18" y2="465.16" style="fill:none;stroke:#263238;stroke-miterlimit:10"></line></g><g id="freepik--character-1--inject-39"><path d="M158.33,278.59s5.32,31.13-.46,41-20.28,2.77-20.28,2.77v141.8" style="fill:none;stroke:#263238;stroke-miterlimit:10"></path><path d="M126.39,290.24s4.71-.54,5.07.55a6.27,6.27,0,0,1,0,2.71s2.71,2.9,2.71,4.89-2.89,2.9-2.89,2.9l-.54,4.7-7.24.36-.91-5.61S119.87,290.06,126.39,290.24Z" style="fill:#fff;stroke:#263238;stroke-linecap:round;stroke-linejoin:round"></path><path d="M127.84,298l-2-2.9a7.3,7.3,0,0,0,1.08-3.62c0-2-.18-5.61-4.34-5.61s-6.88,3.26-7.78,10.32,3.25,10.5,9.23,9.23S127.84,298,127.84,298Z" style="fill:#263238;stroke:#263238;stroke-linecap:round;stroke-linejoin:round"></path><path d="M127.66,296.76s-3.08-.36-2.9,2a2.52,2.52,0,0,0,4.53,1.27" style="fill:#fff;stroke:#263238;stroke-linecap:round;stroke-linejoin:round"></path><path d="M123.37,308.12,116.7,310s-.52,1.3-1.3,3c-1.05,2.31-3.94,7-3.94,7l-13.35,3.81-4.29,13.83-.95,5.72,7.62-3.82.48-13.34,12-1.85,5.15-13Z" style="fill:#263238;stroke:#263238;stroke-linecap:round;stroke-linejoin:round"></path><path d="M134,306.17s-5.25-2.35-9.23-1.81-3.62,2.54-3.62,2.54l.18,2.71S128,307.62,134,306.17Z" style="fill:#338BFF;stroke:#263238;stroke-linecap:round;stroke-linejoin:round"></path><path d="M116.07,319.39l3.75,17.34a1.32,1.32,0,0,0,1.9,1l8.47-4.23Z" style="fill:#338BFF;stroke:#263238;stroke-linecap:round;stroke-linejoin:round"></path><line x1="125.49" y1="328.62" x2="123.5" y2="332.6" style="fill:#fff;stroke:#263238;stroke-linecap:round;stroke-linejoin:round"></line><polygon points="143.04 346.18 153.97 364.26 152.52 388.71 157.77 388.53 163.02 359.37 155.35 338.94 143.04 346.18" style="fill:#263238;stroke:#263238;stroke-linecap:round;stroke-linejoin:round"></polygon><path d="M121.32,309.61s-5.25,9.05-5.25,9.78,20.46,20.45,20.46,20.45l15.57-10.32-9.78-17L156.4,298.7l1.08-18.65-2.53-.18-4.53,13.58-15,11.82Z" style="fill:#338BFF;stroke:#263238;stroke-linecap:round;stroke-linejoin:round"></path><polygon points="154.95 279.87 155.13 275.71 159.65 272.27 160.02 273.17 160.02 275.89 160.2 278.06 157.48 280.05 154.95 279.87" style="fill:#fff;stroke:#263238;stroke-linecap:round;stroke-linejoin:round"></polygon><path d="M136.53,339.84s3.44,5.79,6,7.6S153,343.64,155,342s9.6-11.4,9.6-11.4l7.06,30.08,4.35-1.81s-2.55-40-3.81-41.12-20.82,11.58-20.82,11.58Z" style="fill:#263238;stroke:#263238;stroke-linecap:round;stroke-linejoin:round"></path><path d="M176,358.88h6.15c1.09,0,3.8-1.63,4-.36s-5.25,4.7-7.43,5.79a26.93,26.93,0,0,1-6.51,1.63l-.55-5.25Z" style="fill:#fff;stroke:#263238;stroke-linecap:round;stroke-linejoin:round"></path><path d="M157.77,388.53l3.08,5.61s3.8,1.63,3.8,2.36-6.15.36-6.7.36-6.69-6-6.69-6l1.26-2.18Z" style="fill:#fff;stroke:#263238;stroke-linecap:round;stroke-linejoin:round"></path><line x1="159.65" y1="272.27" x2="218.74" y2="191.25" style="fill:none;stroke:#263238;stroke-miterlimit:10"></line></g></svg>