<svg xmlns="http://www.w3.org/2000/svg" viewBox="0 0 500 500"><g id="freepik--background-simple--inject-112"><path d="M397.31,385c16.55-18.42,28.9-40.77,37.07-64.25,11.65-33.5,15.25-69.34,15.3-104.81.06-34.4-3.25-69.29-15.48-101.43S400.07,53,369.72,36.78c-53.43-28.48-115-15.45-162.3,19-23.28,16.95-42.72,39.41-58.85,63.14-17.33,25.49-41.57,45.33-62.81,67.43C73.79,198.8,62.5,212,53.54,226.86c-29.27,48.49-30.9,103.21,15.7,140.67C116.6,405.59,189,430.08,248.88,435.76c43.54,4.13,89.5-3.88,124.93-29.52A149.13,149.13,0,0,0,397.31,385Z" style="fill:#338BFF"></path><path d="M397.31,385c16.55-18.42,28.9-40.77,37.07-64.25,11.65-33.5,15.25-69.34,15.3-104.81.06-34.4-3.25-69.29-15.48-101.43S400.07,53,369.72,36.78c-53.43-28.48-115-15.45-162.3,19-23.28,16.95-42.72,39.41-58.85,63.14-17.33,25.49-41.57,45.33-62.81,67.43C73.79,198.8,62.5,212,53.54,226.86c-29.27,48.49-30.9,103.21,15.7,140.67C116.6,405.59,189,430.08,248.88,435.76c43.54,4.13,89.5-3.88,124.93-29.52A149.13,149.13,0,0,0,397.31,385Z" style="fill:#fff;opacity:0.7000000000000001"></path></g><g id="freepik--chart-5--inject-112"><polygon points="366.88 227.5 157.72 306.34 157.72 114.25 366.88 35.42 366.88 227.5" style="fill:#fff"></polygon><path d="M191.58,161.59V162l-2.52,1v-.62c0-2.18-.9-3.12-2.87-2.38s-2.94,2.43-2.94,5v5.42a6.43,6.43,0,0,1,3.91-4.06c3.11-1.17,4.49.55,4.49,4v3.67a8.31,8.31,0,0,1-5.53,8.2c-3.73,1.41-5.56-.32-5.56-4V165.92c0-3.84,1.73-6.87,5.56-8.32S191.58,157.89,191.58,161.59Zm-8.33,12.2v3.63c0,2.17.9,3.15,2.87,2.41a4.48,4.48,0,0,0,2.87-4.58v-3.63c0-2.17-.93-3.14-2.87-2.41A4.46,4.46,0,0,0,183.25,173.79Z" style="fill:#263238"></path><path d="M194,160.73a8.26,8.26,0,0,1,5.53-8.17c3.73-1.41,5.56.28,5.56,4V169a8.31,8.31,0,0,1-5.56,8.21c-3.7,1.4-5.53-.33-5.53-4Zm2.66,11.64c0,2.18.93,3.14,2.87,2.41a4.44,4.44,0,0,0,2.87-4.57V157.42c0-2.21-.9-3.19-2.87-2.44a4.49,4.49,0,0,0-2.87,4.6Z" style="fill:#263238"></path><path d="M214.4,151v7.64a5.23,5.23,0,0,1-3.46,5.21c-2.35.88-3.45-.26-3.45-2.61v-7.63a5.24,5.24,0,0,1,3.45-5.21C213.29,147.46,214.4,148.63,214.4,151Zm-5.19,1.85v7.88c0,1.31.49,2,1.73,1.53a2.76,2.76,0,0,0,1.73-2.83V151.5c0-1.32-.52-2-1.73-1.56A2.77,2.77,0,0,0,209.21,152.8Zm13.17-8.63L212.84,172l-1.62.61,9.54-27.79Zm3.91,11.32v7.6a5.19,5.19,0,0,1-3.46,5.21c-2.35.89-3.45-.25-3.45-2.6v-7.61a5.2,5.2,0,0,1,3.45-5.17C225.22,152,226.29,153.17,226.29,155.49Zm-5.19,1.85v7.84c0,1.32.52,2,1.73,1.56a2.79,2.79,0,0,0,1.73-2.86V156c0-1.31-.52-2-1.73-1.52A2.75,2.75,0,0,0,221.1,157.34Z" style="fill:#263238"></path><polygon points="352.9 188.38 168.2 256.26 168.2 259.37 352.9 191.49 352.9 188.38" style="fill:#e5e5e5"></polygon><polygon points="352.9 170.66 168.2 238.55 168.2 241.65 352.9 173.77 352.9 170.66" style="fill:#e5e5e5"></polygon><polygon points="352.9 152.95 168.2 220.83 168.2 223.94 352.9 156.05 352.9 152.95" style="fill:#e5e5e5"></polygon><polygon points="352.9 135.23 168.2 203.12 168.2 206.22 352.9 138.34 352.9 135.23" style="fill:#e5e5e5"></polygon><polygon points="234.54 161.02 234.54 164.12 352.9 120.62 352.9 117.52 234.54 161.02" style="fill:#e5e5e5"></polygon><polygon points="234.54 143.3 234.54 146.41 352.9 102.91 352.9 99.8 234.54 143.3" style="fill:#e5e5e5"></polygon><polygon points="234.54 125.59 234.54 128.69 352.9 85.19 352.9 82.08 234.54 125.59" style="fill:#e5e5e5"></polygon><path d="M353,60.07c-3.23,12.16-10.18,35.79-19.81,55.05-13.6,27.2-55.85,78.68-85.48,103.94s-78.93,55.56-78.93,55.56l184.22-67Z" style="fill:#338BFF"></path><path d="M169.92,274S324.37,191.52,351.16,62.83" style="fill:none;stroke:#263238;stroke-linecap:round;stroke-linejoin:round;stroke-width:4px"></path><line x1="168.39" y1="130.59" x2="168.39" y2="282.02" style="fill:none;stroke:#263238;stroke-linecap:round;stroke-linejoin:round"></line><line x1="162.65" y1="277.57" x2="354.97" y2="206.89" style="fill:none;stroke:#263238;stroke-linecap:round;stroke-linejoin:round"></line><line x1="181.1" y1="271.1" x2="181.1" y2="277.28" style="fill:none;stroke:#263238;stroke-linecap:round;stroke-linejoin:round"></line><line x1="193.6" y1="266.5" x2="193.6" y2="272.69" style="fill:none;stroke:#263238;stroke-linecap:round;stroke-linejoin:round"></line><line x1="206.11" y1="261.91" x2="206.11" y2="268.09" style="fill:none;stroke:#263238;stroke-linecap:round;stroke-linejoin:round"></line><line x1="218.62" y1="257.31" x2="218.62" y2="263.49" style="fill:none;stroke:#263238;stroke-linecap:round;stroke-linejoin:round"></line><line x1="231.13" y1="252.71" x2="231.13" y2="258.9" style="fill:none;stroke:#263238;stroke-linecap:round;stroke-linejoin:round"></line><line x1="243.63" y1="248.12" x2="243.63" y2="254.3" style="fill:none;stroke:#263238;stroke-linecap:round;stroke-linejoin:round"></line><line x1="256.14" y1="243.52" x2="256.14" y2="249.7" style="fill:none;stroke:#263238;stroke-linecap:round;stroke-linejoin:round"></line><line x1="268.65" y1="238.92" x2="268.65" y2="245.1" style="fill:none;stroke:#263238;stroke-linecap:round;stroke-linejoin:round"></line><line x1="281.16" y1="234.32" x2="281.16" y2="240.51" style="fill:none;stroke:#263238;stroke-linecap:round;stroke-linejoin:round"></line><line x1="293.66" y1="229.73" x2="293.66" y2="235.91" style="fill:none;stroke:#263238;stroke-linecap:round;stroke-linejoin:round"></line><line x1="306.17" y1="225.13" x2="306.17" y2="231.31" style="fill:none;stroke:#263238;stroke-linecap:round;stroke-linejoin:round"></line><line x1="318.68" y1="220.53" x2="318.68" y2="226.72" style="fill:none;stroke:#263238;stroke-linecap:round;stroke-linejoin:round"></line><line x1="331.19" y1="215.94" x2="331.19" y2="222.12" style="fill:none;stroke:#263238;stroke-linecap:round;stroke-linejoin:round"></line><line x1="343.7" y1="211.34" x2="343.7" y2="217.52" style="fill:none;stroke:#263238;stroke-linecap:round;stroke-linejoin:round"></line><line x1="355.3" y1="206.79" x2="355.3" y2="212.97" style="fill:none;stroke:#263238;stroke-linecap:round;stroke-linejoin:round"></line><line x1="181.17" y1="132.97" x2="226.87" y2="115.3" style="fill:none;stroke:#263238;stroke-linecap:round;stroke-linejoin:round"></line><line x1="181.17" y1="140.89" x2="226.87" y2="123.22" style="fill:none;stroke:#263238;stroke-linecap:round;stroke-linejoin:round"></line><line x1="181.17" y1="148.81" x2="226.87" y2="131.14" style="fill:none;stroke:#263238;stroke-linecap:round;stroke-linejoin:round"></line><polygon points="231.63 319.82 214.85 326.14 214.85 316.78 231.63 310.45 231.63 319.82" style="fill:none;stroke:#263238;stroke-linecap:round;stroke-linejoin:round"></polygon><polygon points="268.68 305.89 251.9 312.22 251.9 302.85 268.68 296.53 268.68 305.89" style="fill:none;stroke:#263238;stroke-linecap:round;stroke-linejoin:round"></polygon><polygon points="305.73 291.97 288.95 298.29 288.95 288.93 305.73 282.6 305.73 291.97" style="fill:none;stroke:#263238;stroke-linecap:round;stroke-linejoin:round"></polygon><polygon points="342.78 278.04 326 284.36 326 275 342.78 268.68 342.78 278.04" style="fill:none;stroke:#263238;stroke-linecap:round;stroke-linejoin:round"></polygon></g><g id="freepik--chart-4--inject-112"><polygon points="429.15 92.38 378.65 111.41 378.65 65.03 429.15 46 429.15 92.38" style="fill:none;stroke:#263238;stroke-linecap:round;stroke-linejoin:round"></polygon><line x1="378.38" y1="61.2" x2="399.24" y2="53.61" style="fill:none;stroke:#263238;stroke-linecap:round;stroke-linejoin:round"></line><line x1="378.38" y1="57.98" x2="399.24" y2="50.39" style="fill:none;stroke:#263238;stroke-linecap:round;stroke-linejoin:round"></line><line x1="378.38" y1="54.75" x2="399.24" y2="47.17" style="fill:none;stroke:#263238;stroke-linecap:round;stroke-linejoin:round"></line><polyline points="383.55 104.59 389.11 92.09 399.42 92.48 408.55 71.46 420.06 72.05 426.2 54" style="fill:none;stroke:#263238;stroke-linecap:round;stroke-linejoin:round"></polyline><line x1="381.57" y1="74.04" x2="425.61" y2="57.37" style="fill:none;stroke:#263238;stroke-linecap:round;stroke-linejoin:round"></line><line x1="381.57" y1="79.79" x2="425.61" y2="63.13" style="fill:none;stroke:#263238;stroke-linecap:round;stroke-linejoin:round"></line><line x1="381.57" y1="85.54" x2="425.61" y2="68.88" style="fill:none;stroke:#263238;stroke-linecap:round;stroke-linejoin:round"></line><line x1="381.57" y1="91.3" x2="425.61" y2="74.63" style="fill:none;stroke:#263238;stroke-linecap:round;stroke-linejoin:round"></line><line x1="381.57" y1="97.05" x2="425.61" y2="80.38" style="fill:none;stroke:#263238;stroke-linecap:round;stroke-linejoin:round"></line><line x1="381.57" y1="102.8" x2="425.61" y2="86.14" style="fill:none;stroke:#263238;stroke-linecap:round;stroke-linejoin:round"></line></g><g id="freepik--chart-3--inject-112"><ellipse cx="228.29" cy="45.95" rx="23.1" ry="18.02" transform="translate(42.72 186.63) rotate(-48.55)" style="fill:none;stroke:#263238;stroke-linecap:round;stroke-linejoin:round"></ellipse><path d="M242.28,27.65c-3.66-2.54-8.57-3.45-14-2.1V46Z" style="fill:none;stroke:#263238;stroke-linecap:round;stroke-linejoin:round"></path><line x1="256.19" y1="40.33" x2="279.54" y2="31.84" style="fill:none;stroke:#263238;stroke-linecap:round;stroke-linejoin:round"></line><line x1="256.19" y1="36.72" x2="279.54" y2="28.23" style="fill:none;stroke:#263238;stroke-linecap:round;stroke-linejoin:round"></line><line x1="256.19" y1="33.11" x2="279.54" y2="24.62" style="fill:none;stroke:#263238;stroke-linecap:round;stroke-linejoin:round"></line></g><g id="freepik--chart-2--inject-112"><polygon points="141.05 134.15 84.51 155.46 84.51 103.54 141.05 82.23 141.05 134.15" style="fill:none;stroke:#263238;stroke-linecap:round;stroke-linejoin:round"></polygon><polygon points="126.04 94.33 126.04 134.24 135.54 130.66 135.54 90.75 126.04 94.33" style="fill:none;stroke:#263238;stroke-linecap:round;stroke-linejoin:round"></polygon><polygon points="102.31 143.19 111.58 139.69 111.58 109.13 102.31 112.62 102.31 143.19" style="fill:none;stroke:#263238;stroke-linecap:round;stroke-linejoin:round"></polygon><polygon points="123.44 101.89 114.17 105.39 114.17 138.71 123.44 135.22 123.44 101.89" style="fill:none;stroke:#263238;stroke-linecap:round;stroke-linejoin:round"></polygon><polygon points="99.71 102.35 90 106 90 147.82 99.71 144.16 99.71 102.35" style="fill:none;stroke:#263238;stroke-linecap:round;stroke-linejoin:round"></polygon><line x1="84.21" y1="99.24" x2="107.57" y2="90.75" style="fill:none;stroke:#263238;stroke-linecap:round;stroke-linejoin:round"></line><line x1="84.21" y1="95.64" x2="107.57" y2="87.14" style="fill:none;stroke:#263238;stroke-linecap:round;stroke-linejoin:round"></line><line x1="84.21" y1="92.03" x2="107.57" y2="83.53" style="fill:none;stroke:#263238;stroke-linecap:round;stroke-linejoin:round"></line></g><g id="freepik--chart-1--inject-112"><polygon points="100.87 308.8 58.25 324.87 58.25 331.03 100.87 314.97 100.87 308.8" style="fill:none;stroke:#263238;stroke-linecap:round;stroke-linejoin:round"></polygon><polygon points="105.05 323.46 58.25 341.1 58.25 334.93 105.05 317.29 105.05 323.46" style="fill:none;stroke:#263238;stroke-linecap:round;stroke-linejoin:round"></polygon><polygon points="90.43 332.87 58.25 345 58.25 351.17 90.43 339.04 90.43 332.87" style="fill:none;stroke:#263238;stroke-linecap:round;stroke-linejoin:round"></polygon><polygon points="99.03 339.69 58.25 355.07 58.25 361.23 99.03 345.86 99.03 339.69" style="fill:none;stroke:#263238;stroke-linecap:round;stroke-linejoin:round"></polygon><line x1="52.86" y1="313.33" x2="72.2" y2="306.3" style="fill:none;stroke:#263238;stroke-linecap:round;stroke-linejoin:round"></line><line x1="52.86" y1="310.34" x2="72.2" y2="303.31" style="fill:none;stroke:#263238;stroke-linecap:round;stroke-linejoin:round"></line><line x1="52.86" y1="307.35" x2="72.2" y2="300.32" style="fill:none;stroke:#263238;stroke-linecap:round;stroke-linejoin:round"></line><polygon points="109.76 348.94 53.22 370.24 53.22 318.32 109.76 297.01 109.76 348.94" style="fill:none;stroke:#263238;stroke-linecap:round;stroke-linejoin:round"></polygon></g></svg>