<svg xmlns="http://www.w3.org/2000/svg" viewBox="0 0 500 500"><g id="freepik--background-simple--inject-117"><path d="M465.74,377.39c27.81-59.69,29.68-139.22,10.48-203A212.44,212.44,0,0,0,380.43,52.7c-49.3-28.93-108.06-37.54-161-19.28-13.92,4.8-27.47,9.2-40.59,17.09-53.78,32.34-43.4,112-62.27,139.76-15.88,23.32-46.24,16.45-65.38,34.32C-.4,272.82-.53,394.73,59.06,432.83,122.28,473.26,396.86,525.24,465.74,377.39Z" style="fill:#338BFF"></path><path d="M465.74,377.39c27.81-59.69,29.68-139.22,10.48-203A212.44,212.44,0,0,0,380.43,52.7c-49.3-28.93-108.06-37.54-161-19.28-13.92,4.8-27.47,9.2-40.59,17.09-53.78,32.34-43.4,112-62.27,139.76-15.88,23.32-46.24,16.45-65.38,34.32C-.4,272.82-.53,394.73,59.06,432.83,122.28,473.26,396.86,525.24,465.74,377.39Z" style="fill:#fff;opacity:0.8"></path></g><g id="freepik--Floor--inject-117"><line x1="7.29" y1="445.82" x2="492.72" y2="445.82" style="fill:none;stroke:#263238;stroke-linecap:round;stroke-linejoin:round"></line></g><g id="freepik--Graphics--inject-117"><rect x="349.86" y="32.5" width="14.91" height="14.91" transform="translate(76.41 264.36) rotate(-45)" style="fill:none;stroke:#263238;stroke-linecap:round;stroke-linejoin:round"></rect><rect x="447.56" y="112.35" width="14.91" height="14.91" transform="translate(48.56 356.84) rotate(-45)" style="fill:none;stroke:#263238;stroke-linecap:round;stroke-linejoin:round"></rect><rect x="107.09" y="43.35" width="14.91" height="14.91" transform="translate(-2.38 95.88) rotate(-45)" style="fill:none;stroke:#263238;stroke-linecap:round;stroke-linejoin:round"></rect><rect x="282.54" y="388.65" width="14.91" height="14.91" transform="translate(-195.15 321.07) rotate(-45)" style="fill:none;stroke:#263238;stroke-linecap:round;stroke-linejoin:round"></rect><rect x="299.91" y="371.27" width="14.91" height="14.91" transform="translate(-177.77 328.27) rotate(-45)" style="fill:none;stroke:#263238;stroke-linecap:round;stroke-linejoin:round"></rect><rect x="330.55" y="53.18" width="9.47" height="9.47" transform="translate(57.25 254.04) rotate(-45)" style="fill:none;stroke:#263238;stroke-linecap:round;stroke-linejoin:round"></rect><rect x="44.06" y="335.74" width="9.47" height="9.47" transform="translate(-226.46 134.23) rotate(-45)" style="fill:none;stroke:#263238;stroke-linecap:round;stroke-linejoin:round"></rect><rect x="406.56" y="396.62" width="9.47" height="9.47" transform="translate(-163.33 408.38) rotate(-45)" style="fill:none;stroke:#263238;stroke-linecap:round;stroke-linejoin:round"></rect></g><g id="freepik--Calendar--inject-117"><rect x="399.1" y="266.03" width="62.36" height="54.68" rx="4" style="fill:none;stroke:#263238;stroke-miterlimit:10"></rect><rect x="402.67" y="282.71" width="5.4" height="5.4" style="fill:none;stroke:#263238;stroke-miterlimit:10"></rect><rect x="412.64" y="282.71" width="5.4" height="5.4" style="fill:none;stroke:#263238;stroke-miterlimit:10"></rect><rect x="422.6" y="282.71" width="5.4" height="5.4" style="fill:none;stroke:#263238;stroke-miterlimit:10"></rect><rect x="432.57" y="282.71" width="5.4" height="5.4" style="fill:none;stroke:#263238;stroke-miterlimit:10"></rect><rect x="442.54" y="282.71" width="5.4" height="5.4" style="fill:none;stroke:#263238;stroke-miterlimit:10"></rect><rect x="452.51" y="282.71" width="5.4" height="5.4" style="fill:none;stroke:#263238;stroke-miterlimit:10"></rect><rect x="402.67" y="293.98" width="5.4" height="5.4" style="fill:none;stroke:#263238;stroke-miterlimit:10"></rect><rect x="412.64" y="293.98" width="5.4" height="5.4" style="fill:none;stroke:#263238;stroke-miterlimit:10"></rect><rect x="422.6" y="293.98" width="5.4" height="5.4" style="fill:none;stroke:#263238;stroke-miterlimit:10"></rect><rect x="432.57" y="293.98" width="5.4" height="5.4" style="fill:none;stroke:#263238;stroke-miterlimit:10"></rect><rect x="442.54" y="293.98" width="5.4" height="5.4" style="fill:none;stroke:#263238;stroke-miterlimit:10"></rect><rect x="452.51" y="293.98" width="5.4" height="5.4" style="fill:none;stroke:#263238;stroke-miterlimit:10"></rect><rect x="402.67" y="305.25" width="5.4" height="5.4" style="fill:none;stroke:#263238;stroke-miterlimit:10"></rect><rect x="412.64" y="305.25" width="5.4" height="5.4" style="fill:none;stroke:#263238;stroke-miterlimit:10"></rect><rect x="422.6" y="305.25" width="5.4" height="5.4" style="fill:none;stroke:#263238;stroke-miterlimit:10"></rect><rect x="432.57" y="305.25" width="5.4" height="5.4" style="fill:none;stroke:#263238;stroke-miterlimit:10"></rect><rect x="442.54" y="305.25" width="5.4" height="5.4" style="fill:none;stroke:#263238;stroke-miterlimit:10"></rect><rect x="452.51" y="305.25" width="5.4" height="5.4" style="fill:none;stroke:#263238;stroke-miterlimit:10"></rect><rect x="411.8" y="271.89" width="36.97" height="4.06" style="fill:none;stroke:#263238;stroke-miterlimit:10"></rect></g><g id="freepik--Clock--inject-117"><circle cx="89.09" cy="295.5" r="40.18" transform="translate(-182.85 149.54) rotate(-45)" style="fill:none;stroke:#263238;stroke-miterlimit:10"></circle><circle cx="89.09" cy="295.5" r="34.97" style="fill:none;stroke:#263238;stroke-miterlimit:10"></circle><polyline points="78.45 305.09 89.09 295.5 69.22 277.42" style="fill:none;stroke:#263238;stroke-miterlimit:10"></polyline></g><g id="freepik--kanban-method--inject-117"><path d="M474.31,289V429.64H335.72V76.93a6,6,0,0,1,6-6h126.6a6,6,0,0,1,6,6v202.7" style="fill:none;stroke:#263238;stroke-linecap:round;stroke-linejoin:round"></path><path d="M341.72,70.93h126.6a6,6,0,0,1,6,6V92.45a0,0,0,0,1,0,0H335.72a0,0,0,0,1,0,0V76.93A6,6,0,0,1,341.72,70.93Z" style="fill:#263238;stroke:#263238;stroke-linecap:round;stroke-linejoin:round"></path><path d="M264.53,429.64H185.38V76.93a6,6,0,0,1,6-6H318a6,6,0,0,1,6,6V429.64H273.86" style="fill:none;stroke:#263238;stroke-linecap:round;stroke-linejoin:round"></path><path d="M191.37,70.93H318a6,6,0,0,1,6,6V92.45a0,0,0,0,1,0,0H185.38a0,0,0,0,1,0,0V76.93A6,6,0,0,1,191.37,70.93Z" style="fill:#263238;stroke:#263238;stroke-linecap:round;stroke-linejoin:round"></path><path d="M35,333.71V76.93a6,6,0,0,1,6-6h126.6a6,6,0,0,1,6,6V429.64H35V342.41" style="fill:none;stroke:#263238;stroke-linecap:round;stroke-linejoin:round"></path><path d="M41,70.93h126.6a6,6,0,0,1,6,6V92.45a0,0,0,0,1,0,0H35a0,0,0,0,1,0,0V76.93A6,6,0,0,1,41,70.93Z" style="fill:#263238;stroke:#263238;stroke-linecap:round;stroke-linejoin:round"></path><rect x="345.93" y="112.77" width="16.38" height="26.67" style="fill:#338BFF;stroke:#263238;stroke-linecap:round;stroke-linejoin:round"></rect><rect x="370.71" y="112.77" width="16.38" height="26.67" style="fill:#338BFF;stroke:#263238;stroke-linecap:round;stroke-linejoin:round"></rect><rect x="345.93" y="151.77" width="16.38" height="26.67" style="fill:#263238;stroke:#263238;stroke-linecap:round;stroke-linejoin:round"></rect><rect x="370.71" y="151.77" width="16.38" height="26.67" style="fill:#263238;stroke:#263238;stroke-linecap:round;stroke-linejoin:round"></rect><rect x="396.09" y="151.77" width="16.38" height="26.67" style="fill:#fff;stroke:#263238;stroke-linecap:round;stroke-linejoin:round"></rect><rect x="199.06" y="112.77" width="16.38" height="26.67" style="fill:#338BFF;stroke:#263238;stroke-linecap:round;stroke-linejoin:round"></rect><rect x="223.84" y="112.77" width="16.38" height="26.67" style="fill:#338BFF;stroke:#263238;stroke-linecap:round;stroke-linejoin:round"></rect><rect x="199.06" y="151.77" width="16.38" height="26.67" style="fill:#263238;stroke:#263238;stroke-linecap:round;stroke-linejoin:round"></rect><rect x="224.44" y="151.77" width="16.38" height="26.67" style="fill:#fff;stroke:#263238;stroke-linecap:round;stroke-linejoin:round"></rect><rect x="198.92" y="190.78" width="16.38" height="26.67" style="fill:#b2b2b2;stroke:#263238;stroke-linecap:round;stroke-linejoin:round"></rect><rect x="47.48" y="112.77" width="16.38" height="26.67" style="fill:#338BFF;stroke:#263238;stroke-linecap:round;stroke-linejoin:round"></rect><rect x="72.12" y="112.77" width="16.38" height="26.67" style="fill:#338BFF;stroke:#263238;stroke-linecap:round;stroke-linejoin:round"></rect><rect x="96.77" y="112.77" width="16.38" height="26.67" style="fill:#338BFF;stroke:#263238;stroke-linecap:round;stroke-linejoin:round"></rect><rect x="121.42" y="112.77" width="16.38" height="26.67" style="fill:#338BFF;stroke:#263238;stroke-linecap:round;stroke-linejoin:round"></rect><rect x="146.06" y="112.77" width="16.38" height="26.67" style="fill:#338BFF;stroke:#263238;stroke-linecap:round;stroke-linejoin:round"></rect><rect x="47.48" y="151.77" width="16.38" height="26.67" style="fill:#263238;stroke:#263238;stroke-linecap:round;stroke-linejoin:round"></rect><rect x="72.12" y="151.77" width="16.38" height="26.67" style="fill:#263238;stroke:#263238;stroke-linecap:round;stroke-linejoin:round"></rect><rect x="96.77" y="151.77" width="16.38" height="26.67" style="fill:#263238;stroke:#263238;stroke-linecap:round;stroke-linejoin:round"></rect><rect x="121.42" y="151.77" width="16.38" height="26.67" style="fill:#fff;stroke:#263238;stroke-linecap:round;stroke-linejoin:round"></rect><rect x="146.06" y="151.77" width="16.38" height="26.67" style="fill:#fff;stroke:#263238;stroke-linecap:round;stroke-linejoin:round"></rect><rect x="47.48" y="190.78" width="16.38" height="26.67" style="fill:#fff;stroke:#263238;stroke-linecap:round;stroke-linejoin:round"></rect><rect x="72.12" y="190.78" width="16.38" height="26.67" style="fill:#b2b2b2;stroke:#263238;stroke-linecap:round;stroke-linejoin:round"></rect><rect x="96.77" y="190.78" width="16.38" height="26.67" style="fill:#b2b2b2;stroke:#263238;stroke-linecap:round;stroke-linejoin:round"></rect></g><g id="freepik--speech-bubble--inject-117"><path d="M446.52,170.07H413.68a8.28,8.28,0,0,0-8.28,8.28v20.14a8.28,8.28,0,0,0,8.28,8.28h3.71l-14.11,14.11,23.93-14.11h19.31a8.28,8.28,0,0,0,8.27-8.28V178.35A8.28,8.28,0,0,0,446.52,170.07Z" style="fill:#fff;stroke:#263238;stroke-linecap:round;stroke-linejoin:round"></path><path d="M422.33,189a2.79,2.79,0,1,0-2.79,2.78A2.79,2.79,0,0,0,422.33,189Z" style="fill:#263238"></path><path d="M433.27,189a2.79,2.79,0,1,0-2.79,2.78A2.79,2.79,0,0,0,433.27,189Z" style="fill:#263238"></path><path d="M444.21,189a2.79,2.79,0,1,0-2.79,2.78A2.79,2.79,0,0,0,444.21,189Z" style="fill:#263238"></path></g></svg>
