<svg xmlns="http://www.w3.org/2000/svg" viewBox="0 0 750 500"><g id="freepik--background-complete--inject-303"><path d="M143.13,53.56l-17.72-11L122,48a4.94,4.94,0,0,1-4.66,2.3,29.39,29.39,0,0,0-3.12-.1,5,5,0,0,1-4.5-2.59l-3-5.62L88.36,51.85l3,5.62a5,5,0,0,1-.33,5.18A29.2,29.2,0,0,0,89.4,65.3a5,5,0,0,1-4.49,2.62l-6.39-.21-.64,20.85,6.4.19a5,5,0,0,1,4.32,2.91c.21.46.44.91.69,1.37s.49.9.76,1.33a5,5,0,0,1,0,5.18L86.7,105l17.72,11,3.37-5.44a5,5,0,0,1,4.67-2.3,29.29,29.29,0,0,0,3.11.11,4.93,4.93,0,0,1,4.49,2.58l3,5.63,18.38-9.86-3-5.63a5,5,0,0,1,.34-5.17c.59-.85,1.13-1.74,1.63-2.64a5,5,0,0,1,4.49-2.62l6.4.2L152,70l-6.4-.2a4.94,4.94,0,0,1-4.3-2.89c-.22-.47-.45-.93-.7-1.39s-.49-.89-.76-1.33a5,5,0,0,1,0-5.2ZM130,71.21a17.08,17.08,0,1,1-23.13-7A17.09,17.09,0,0,1,130,71.21Z" style="fill:#ebebeb"></path><path d="M531.84,375.37l-17.72-11-3.36,5.43a5,5,0,0,1-4.66,2.3A29.56,29.56,0,0,0,503,372a5,5,0,0,1-4.5-2.59l-3-5.62-18.38,9.85,3,5.63a5,5,0,0,1-.34,5.18c-.59.86-1.14,1.74-1.64,2.65a5,5,0,0,1-4.5,2.61l-6.38-.2-.65,20.84,6.41.2a4.93,4.93,0,0,1,4.31,2.9c.22.46.45.92.69,1.37s.5.9.76,1.34a4.93,4.93,0,0,1,0,5.18l-3.38,5.46,17.72,11,3.37-5.43a5,5,0,0,1,4.67-2.3,29.1,29.1,0,0,0,3.1.1,5,5,0,0,1,4.5,2.59l3,5.63,18.38-9.86-3-5.63a5,5,0,0,1,.33-5.17,29,29,0,0,0,1.63-2.65,5,5,0,0,1,4.5-2.61l6.4.19.64-20.84-6.39-.2a4.93,4.93,0,0,1-4.3-2.9c-.22-.46-.46-.92-.7-1.38s-.5-.9-.76-1.33a5,5,0,0,1,0-5.21ZM518.68,393a17.08,17.08,0,1,1-23.12-7A17.06,17.06,0,0,1,518.68,393Z" style="fill:#ebebeb"></path><path d="M89.63,142.86l-4.83-8.37L82.24,136a2.34,2.34,0,0,1-2.42-.08,12,12,0,0,0-1.25-.73,2.29,2.29,0,0,1-1.27-2v-3H67.62v3a2.27,2.27,0,0,1-1.27,2,12,12,0,0,0-1.25.73,2.32,2.32,0,0,1-2.41.08l-2.57-1.48-4.83,8.37,2.57,1.49A2.29,2.29,0,0,1,59,146.48c0,.24,0,.48,0,.71s0,.48,0,.72A2.3,2.3,0,0,1,57.87,150l-2.58,1.49,4.83,8.38,2.57-1.48a2.32,2.32,0,0,1,2.42.08,11.85,11.85,0,0,0,1.24.73,2.27,2.27,0,0,1,1.27,2v3H77.3v-3a2.29,2.29,0,0,1,1.27-2,12,12,0,0,0,1.25-.73,2.3,2.3,0,0,1,2.41-.08l2.57,1.48,4.83-8.38L87.06,150a2.32,2.32,0,0,1-1.12-2.13c0-.24,0-.48,0-.72s0-.47,0-.71a2.29,2.29,0,0,1,1.13-2.13Zm-9.24,4.33a7.93,7.93,0,1,1-7.92-7.92A7.92,7.92,0,0,1,80.39,147.19Z" style="fill:#ebebeb"></path><path d="M694.71,328.4,689.88,320l-2.57,1.48a2.32,2.32,0,0,1-2.41-.08,12,12,0,0,0-1.25-.73,2.29,2.29,0,0,1-1.27-2v-3H672.7v3a2.29,2.29,0,0,1-1.27,2,12,12,0,0,0-1.25.73,2.34,2.34,0,0,1-2.42.08L665.2,320l-4.83,8.38,2.57,1.48a2.29,2.29,0,0,1,1.13,2.13c0,.24,0,.48,0,.72s0,.47,0,.71a2.3,2.3,0,0,1-1.12,2.12l-2.58,1.49,4.83,8.38,2.57-1.48a2.32,2.32,0,0,1,2.41.08,12,12,0,0,0,1.25.73,2.29,2.29,0,0,1,1.27,2v3h9.68v-3a2.27,2.27,0,0,1,1.27-2,11.85,11.85,0,0,0,1.24-.73,2.34,2.34,0,0,1,2.42-.08l2.57,1.48,4.83-8.38-2.57-1.48a2.29,2.29,0,0,1-1.12-2.13c0-.23,0-.47,0-.71s0-.48,0-.72a2.29,2.29,0,0,1,1.12-2.13Zm-9.25,4.33a7.93,7.93,0,1,1-7.92-7.93A7.92,7.92,0,0,1,685.46,332.73Z" style="fill:#ebebeb"></path><path d="M116.47,391.63a30.56,30.56,0,1,1-30.23-35v30.56Z" style="fill:#dbdbdb"></path><path d="M123,380.93a31.6,31.6,0,0,1-.33,4.48l-30.23-4.48V350.36A30.55,30.55,0,0,1,123,380.93Z" style="fill:#ebebeb"></path><rect x="101.75" y="403.57" width="32.5" height="1" style="fill:#c7c7c7"></rect><path d="M136.53,406.85a2.78,2.78,0,1,1,2.78-2.78A2.78,2.78,0,0,1,136.53,406.85Zm0-4.55a1.78,1.78,0,1,0,1.78,1.77A1.78,1.78,0,0,0,136.53,402.3Z" style="fill:#c7c7c7"></path><rect x="144.79" y="402.37" width="25.25" height="1.14" style="fill:#c7c7c7"></rect><rect x="144.79" y="404.64" width="14.29" height="1.14" style="fill:#c7c7c7"></rect><rect x="587.05" y="57.02" width="9.95" height="70.81" style="fill:#ebebeb"></rect><rect x="604.15" y="74.16" width="9.95" height="53.67" style="fill:#ebebeb"></rect><rect x="621.25" y="100.99" width="9.95" height="26.83" style="fill:#ebebeb"></rect><rect x="638.36" y="85.66" width="9.95" height="42.16" style="fill:#ebebeb"></rect><rect x="655.46" y="69.57" width="9.95" height="58.26" style="fill:#ebebeb"></rect><rect x="672.56" y="60.1" width="9.95" height="67.72" style="fill:#ebebeb"></rect><path d="M581.28,48,581.4,68l.05,20,.08,39.9-.25-.25q13.71,0,27.43,0l27.44.05,27.43.06,27.44.14-27.44.15-27.43.06-27.44.05q-13.71,0-27.43,0H581v-.26l.08-39.9,0-20Z" style="fill:#ebebeb"></path><path d="M579.08,52a8,8,0,0,1,2.2-.28,7.84,7.84,0,0,1,2.19.28,7.5,7.5,0,0,1-2.19.29A7.61,7.61,0,0,1,579.08,52Z" style="fill:#ebebeb"></path><path d="M579.08,58.08a8,8,0,0,1,2.2-.28,7.84,7.84,0,0,1,2.19.28,7.84,7.84,0,0,1-2.19.28A8,8,0,0,1,579.08,58.08Z" style="fill:#ebebeb"></path><path d="M579.08,64.15a7.61,7.61,0,0,1,2.2-.29,7.5,7.5,0,0,1,2.19.29,7.84,7.84,0,0,1-2.19.28A8,8,0,0,1,579.08,64.15Z" style="fill:#ebebeb"></path><path d="M579.08,70.21a8,8,0,0,1,2.2-.28,7.84,7.84,0,0,1,2.19.28,7.84,7.84,0,0,1-2.19.28A8,8,0,0,1,579.08,70.21Z" style="fill:#ebebeb"></path><path d="M579.08,76.28a7.61,7.61,0,0,1,2.2-.29,7.5,7.5,0,0,1,2.19.29,7.84,7.84,0,0,1-2.19.28A8,8,0,0,1,579.08,76.28Z" style="fill:#ebebeb"></path><path d="M579.08,82.34a8,8,0,0,1,2.2-.28,7.84,7.84,0,0,1,2.19.28,7.16,7.16,0,0,1-2.19.28A7.6,7.6,0,0,1,579.08,82.34Z" style="fill:#ebebeb"></path><path d="M579.08,88.41a8,8,0,0,1,2.2-.28,7.49,7.49,0,0,1,2.19.28,7.84,7.84,0,0,1-2.19.28A8,8,0,0,1,579.08,88.41Z" style="fill:#ebebeb"></path><path d="M579.08,94.47a8,8,0,0,1,2.2-.28,7.84,7.84,0,0,1,2.19.28,7.5,7.5,0,0,1-2.19.29A7.61,7.61,0,0,1,579.08,94.47Z" style="fill:#ebebeb"></path><path d="M579.08,100.54a8,8,0,0,1,2.2-.28,7.84,7.84,0,0,1,2.19.28,7.84,7.84,0,0,1-2.19.28A8,8,0,0,1,579.08,100.54Z" style="fill:#ebebeb"></path><path d="M579.08,106.61a7.61,7.61,0,0,1,2.2-.29,7.5,7.5,0,0,1,2.19.29,7.84,7.84,0,0,1-2.19.28A8,8,0,0,1,579.08,106.61Z" style="fill:#ebebeb"></path><path d="M579.08,112.67a8,8,0,0,1,2.2-.28,7.84,7.84,0,0,1,2.19.28,7.49,7.49,0,0,1-2.19.28A8,8,0,0,1,579.08,112.67Z" style="fill:#ebebeb"></path><path d="M579.08,118.74a7.6,7.6,0,0,1,2.2-.28,7.16,7.16,0,0,1,2.19.28,7.84,7.84,0,0,1-2.19.28A8,8,0,0,1,579.08,118.74Z" style="fill:#ebebeb"></path></g><g id="freepik--kanban-method--inject-303"><rect x="123.05" y="62.13" width="503.9" height="337.13" rx="12.89" style="fill:#263238"></rect><rect x="158.32" y="76.36" width="433.67" height="308.29" style="fill:#fff"></rect><rect x="140.9" y="194.02" width="5.24" height="73.37" rx="1.25" style="fill:#37474f"></rect><path d="M618.51,230.7a9.49,9.49,0,1,1-9.49-9.49A9.49,9.49,0,0,1,618.51,230.7Z" style="fill:#37474f"></path><rect x="158.32" y="76.36" width="433.67" height="308.29" style="fill:#fff"></rect><rect x="158.32" y="76.35" width="433.67" height="10.59" style="fill:#455a64"></rect><path d="M166.68,81.65a2.17,2.17,0,1,1-2.17-2.17A2.17,2.17,0,0,1,166.68,81.65Z" style="fill:#c7c7c7"></path><path d="M175.54,81.65a2.17,2.17,0,1,1-2.17-2.17A2.17,2.17,0,0,1,175.54,81.65Z" style="fill:#fff"></path><path d="M184.41,81.65a2.18,2.18,0,1,1-2.18-2.17A2.18,2.18,0,0,1,184.41,81.65Z" style="fill:#338BFF"></path><rect x="158.32" y="86.95" width="144.56" height="297.7" style="fill:#dbdbdb"></rect><rect x="447.43" y="86.95" width="144.56" height="297.7" style="fill:#dbdbdb"></rect><rect x="459.59" y="119.21" width="120.25" height="57.23" style="fill:#fff"></rect><rect x="459.59" y="119.21" width="120.25" height="6.33" transform="translate(1039.42 244.75) rotate(180)" style="fill:#455a64"></rect><circle cx="477.32" cy="145.58" r="5.97" style="fill:#263238"></circle><rect x="494.97" y="139.61" width="50.42" height="2.06" style="fill:#263238"></rect><rect x="494.97" y="146.99" width="36.42" height="1.73" style="fill:#263238"></rect><rect x="534.88" y="146.99" width="26.82" height="1.73" style="fill:#263238"></rect><rect x="494.97" y="151.48" width="25.21" height="1.73" style="fill:#263238"></rect><rect x="523.37" y="151.48" width="25.21" height="1.73" style="fill:#263238"></rect><rect x="494.97" y="155.96" width="45.19" height="1.73" style="fill:#263238"></rect><rect x="543.72" y="155.96" width="17.97" height="1.73" style="fill:#263238"></rect><rect x="494.97" y="160.44" width="36.42" height="1.73" style="fill:#263238"></rect><rect x="315.03" y="185.2" width="120.25" height="120.25" transform="translate(750.31 490.64) rotate(180)" style="fill:#dbdbdb"></rect><circle cx="335.95" cy="210.67" r="5.97" style="fill:#fff"></circle><rect x="353.6" y="204.71" width="50.42" height="2.06" style="fill:#fff"></rect><rect x="353.6" y="212.09" width="36.42" height="1.73" style="fill:#fff"></rect><rect x="393.51" y="212.09" width="26.82" height="1.73" style="fill:#fff"></rect><rect x="353.6" y="216.57" width="25.21" height="1.73" style="fill:#fff"></rect><rect x="382" y="216.57" width="25.21" height="1.73" style="fill:#fff"></rect><rect x="353.6" y="221.06" width="45.19" height="1.73" style="fill:#fff"></rect><rect x="402.35" y="221.06" width="17.97" height="1.73" style="fill:#fff"></rect><rect x="353.6" y="225.54" width="36.42" height="1.73" style="fill:#fff"></rect><rect x="315.03" y="185.2" width="120.25" height="6.33" transform="translate(750.31 376.72) rotate(180)" style="fill:#455a64"></rect><path d="M376.31,258a22.16,22.16,0,0,1-13.48,20.38L354.18,258Z" style="fill:#338BFF"></path><path d="M351.35,256.46,360,276.84s0,0-.05,0c-.67.27-1.35.53-2,.74a22.28,22.28,0,0,1-6.57,1,22.56,22.56,0,0,1-6.57-1A22.14,22.14,0,0,1,330.23,263a22.33,22.33,0,0,1,0-13.15,22.07,22.07,0,0,1,14.55-14.54,22.08,22.08,0,0,1,13.14,0,22.1,22.1,0,0,1,15.56,21.11Z" style="fill:#338BFF"></path><path d="M351.35,256.46,360,276.84s0,0-.05,0c-.67.27-1.35.53-2,.74a22.28,22.28,0,0,1-6.57,1,22.12,22.12,0,1,1,21.13-28.71,22.28,22.28,0,0,1,1,6.57Z" style="fill:#fff"></path><path d="M351.35,256.47l-14.41,16.77a22.12,22.12,0,1,1,36.53-16.77Z" style="fill:#455a64"></path><polygon points="387.75 285.78 371.04 285.78 350.34 265.08 350.65 264.78 371.22 285.35 387.75 285.35 387.75 285.78" style="fill:#263238"></polygon><rect x="349.33" y="263.77" width="2.33" height="2.33" style="fill:#263238"></rect><polygon points="387.75 269.77 368.92 269.77 359.98 260.83 360.28 260.53 369.09 269.34 387.75 269.34 387.75 269.77" style="fill:#263238"></polygon><rect x="358.97" y="259.52" width="2.33" height="2.33" style="fill:#263238"></rect><rect x="359.27" y="253.93" width="28.48" height="0.43" style="fill:#263238"></rect><rect x="357.8" y="252.98" width="2.33" height="2.33" style="fill:#263238"></rect><rect x="394.23" y="251.8" width="20.69" height="1.92" style="fill:#fff"></rect><rect x="394.23" y="255.82" width="26.84" height="1.92" style="fill:#fff"></rect><rect x="394.23" y="259.84" width="14.35" height="1.92" style="fill:#fff"></rect><rect x="385.42" y="251.8" width="4.67" height="4.67" style="fill:#455a64"></rect><rect x="394.23" y="267.35" width="23.2" height="1.92" style="fill:#fff"></rect><rect x="394.23" y="271.37" width="19.35" height="1.92" style="fill:#fff"></rect><rect x="394.23" y="275.39" width="26.84" height="1.92" style="fill:#fff"></rect><rect x="385.42" y="267.35" width="4.67" height="4.67" style="fill:#338BFF"></rect><rect x="394.23" y="282.9" width="23.2" height="1.92" style="fill:#fff"></rect><rect x="394.23" y="286.92" width="19.35" height="1.92" style="fill:#fff"></rect><rect x="394.23" y="290.94" width="26.84" height="1.92" style="fill:#fff"></rect><rect x="385.42" y="282.9" width="4.67" height="4.67" style="fill:#fff"></rect><rect x="170.47" y="119.21" width="120.25" height="120.25" style="fill:#fff"></rect><rect x="170.47" y="119.21" width="120.25" height="6.33" transform="translate(461.19 244.75) rotate(180)" style="fill:#455a64"></rect><circle cx="188.2" cy="142.55" r="5.97" style="fill:#338BFF"></circle><rect x="205.86" y="136.59" width="50.42" height="2.06" style="fill:#338BFF"></rect><rect x="205.86" y="143.97" width="36.42" height="1.73" style="fill:#338BFF"></rect><rect x="245.76" y="143.97" width="26.82" height="1.73" style="fill:#338BFF"></rect><rect x="205.86" y="148.45" width="25.21" height="1.73" style="fill:#338BFF"></rect><rect x="234.26" y="148.45" width="25.21" height="1.73" style="fill:#338BFF"></rect><rect x="205.86" y="152.94" width="45.19" height="1.73" style="fill:#338BFF"></rect><rect x="254.61" y="152.94" width="17.97" height="1.73" style="fill:#338BFF"></rect><rect x="205.86" y="157.42" width="36.42" height="1.73" style="fill:#338BFF"></rect><circle cx="188.2" cy="177.31" r="5.97" style="fill:#455a64"></circle><rect x="205.86" y="171.34" width="50.42" height="2.06" style="fill:#455a64"></rect><rect x="205.86" y="178.72" width="36.42" height="1.73" style="fill:#455a64"></rect><rect x="245.76" y="178.72" width="26.82" height="1.73" style="fill:#455a64"></rect><rect x="205.86" y="183.21" width="25.21" height="1.73" style="fill:#455a64"></rect><rect x="234.26" y="183.21" width="25.21" height="1.73" style="fill:#455a64"></rect><rect x="205.86" y="187.69" width="45.19" height="1.73" style="fill:#455a64"></rect><rect x="254.61" y="187.69" width="17.97" height="1.73" style="fill:#455a64"></rect><rect x="205.86" y="192.17" width="36.42" height="1.73" style="fill:#455a64"></rect><circle cx="188.2" cy="212.06" r="5.97" style="fill:#dbdbdb"></circle><rect x="205.86" y="206.09" width="50.42" height="2.06" style="fill:#dbdbdb"></rect><rect x="205.86" y="213.48" width="36.42" height="1.73" style="fill:#dbdbdb"></rect><rect x="245.76" y="213.48" width="26.82" height="1.73" style="fill:#dbdbdb"></rect><rect x="205.86" y="217.96" width="25.21" height="1.73" style="fill:#dbdbdb"></rect><rect x="234.26" y="217.96" width="25.21" height="1.73" style="fill:#dbdbdb"></rect><rect x="205.86" y="222.45" width="45.19" height="1.73" style="fill:#dbdbdb"></rect><rect x="254.61" y="222.45" width="17.97" height="1.73" style="fill:#dbdbdb"></rect><rect x="205.86" y="226.93" width="36.42" height="1.73" style="fill:#dbdbdb"></rect><rect x="170.47" y="248.22" width="120.25" height="57.23" style="fill:#338BFF"></rect><rect x="170.47" y="248.22" width="120.25" height="6.33" transform="translate(461.19 502.77) rotate(180)" style="fill:#455a64"></rect><path d="M184.29,262l46.31-.08c15.43,0,30.87,0,46.3.08-15.43.06-30.87.05-46.3.07Z" style="fill:#fff"></path><path d="M184.29,264.28l46.31-.08c15.43,0,30.87,0,46.3.08-15.43.06-30.87.05-46.3.07Z" style="fill:#fff"></path><path d="M184.29,266.6l46.31-.08c15.43,0,30.87,0,46.3.08-15.43.06-30.87,0-46.3.07Z" style="fill:#fff"></path><path d="M184.29,268.92l46.31-.08c15.43,0,30.87,0,46.3.08-15.43.06-30.87.05-46.3.07Z" style="fill:#fff"></path><path d="M184.29,271.24l46.31-.08c15.43,0,30.87,0,46.3.08-15.43.06-30.87,0-46.3.07Z" style="fill:#fff"></path><path d="M184.29,273.55l46.31-.07c15.43,0,30.87,0,46.3.07-15.43.07-30.87.05-46.3.08Z" style="fill:#fff"></path><path d="M184.29,275.87l46.31-.07c15.43,0,30.87,0,46.3.07-15.43.07-30.87.05-46.3.08Z" style="fill:#fff"></path><path d="M184.29,278.19l46.31-.07c15.43,0,30.87,0,46.3.07-15.43.07-30.87.05-46.3.08Z" style="fill:#fff"></path><path d="M184.29,280.51l46.31-.07c15.43,0,30.87,0,46.3.07-15.43.07-30.87.05-46.3.08Z" style="fill:#fff"></path><path d="M184.29,282.83l46.31-.08c15.43,0,30.87,0,46.3.08-15.43.07-30.87.05-46.3.08Z" style="fill:#fff"></path><path d="M184.29,285.15l46.31-.08c15.43,0,30.87,0,46.3.08-15.43.06-30.87.05-46.3.07Z" style="fill:#fff"></path><path d="M184.29,287.47l46.31-.08c15.43,0,30.87,0,46.3.08-15.43.06-30.87,0-46.3.07Z" style="fill:#fff"></path><path d="M184.29,289.79l46.31-.08c15.43,0,30.87,0,46.3.08-15.43.06-30.87,0-46.3.07Z" style="fill:#fff"></path><path d="M184.29,292.11,230.6,292c15.43,0,30.87,0,46.3.08-15.43.06-30.87,0-46.3.07Z" style="fill:#fff"></path><path d="M184.29,294.42l46.31-.07c15.43,0,30.87,0,46.3.07-15.43.07-30.87.05-46.3.08Z" style="fill:#fff"></path><rect x="194.09" y="278.19" width="7.02" height="18.94" style="fill:#dbdbdb"></rect><rect x="207.11" y="270.18" width="7.02" height="26.95" style="fill:#263238"></rect><rect x="220.14" y="275.95" width="7.02" height="21.17" style="fill:#fff"></rect><rect x="233.17" y="268.92" width="7.02" height="28.21" style="fill:#dbdbdb"></rect><rect x="246.2" y="272.7" width="7.02" height="24.43" style="fill:#263238"></rect><rect x="259.23" y="286.54" width="7.02" height="10.59" style="fill:#ebebeb"></rect><path d="M186.81,260.33l.19,9.2.13,9.2c.09,6.13.12,12.27.13,18.4l-.45-.28h22.52l22.52,0,22.53.09,22.52.17-22.52.16-22.53.1-22.52,0h-23v-.28c0-6.13,0-12.27.13-18.4l.13-9.2Z" style="fill:#fff"></path><rect x="194.09" y="299.07" width="7.02" height="0.39" style="fill:#ebebeb"></rect><rect x="207.11" y="299.07" width="7.02" height="0.39" style="fill:#ebebeb"></rect><rect x="220.14" y="299.07" width="7.02" height="0.39" style="fill:#ebebeb"></rect><rect x="233.17" y="299.07" width="7.02" height="0.39" style="fill:#ebebeb"></rect><rect x="246.2" y="299.07" width="7.02" height="0.39" style="fill:#ebebeb"></rect><rect x="259.23" y="299.07" width="7.02" height="0.39" style="fill:#ebebeb"></rect><rect x="170.47" y="314.2" width="120.25" height="57.23" style="fill:#fff"></rect><rect x="170.47" y="314.2" width="120.25" height="6.33" transform="translate(461.19 634.74) rotate(180)" style="fill:#455a64"></rect><circle cx="188.2" cy="340.57" r="5.97" style="fill:#263238"></circle><rect x="205.86" y="334.6" width="50.42" height="2.06" style="fill:#263238"></rect><rect x="205.86" y="341.99" width="36.42" height="1.73" style="fill:#263238"></rect><rect x="245.76" y="341.99" width="26.82" height="1.73" style="fill:#263238"></rect><rect x="205.86" y="346.47" width="25.21" height="1.73" style="fill:#263238"></rect><rect x="234.26" y="346.47" width="25.21" height="1.73" style="fill:#263238"></rect><rect x="205.86" y="350.95" width="45.19" height="1.73" style="fill:#263238"></rect><rect x="254.61" y="350.95" width="17.97" height="1.73" style="fill:#263238"></rect><rect x="205.86" y="355.44" width="36.42" height="1.73" style="fill:#263238"></rect><polygon points="315.53 121.71 314.53 121.71 314.53 118.71 317.53 118.71 317.53 119.71 315.53 119.71 315.53 121.71" style="fill:#dbdbdb"></polygon><path d="M427.77,119.71h-5v-1h5Zm-10,0h-5v-1h5Zm-10,0h-5v-1h5Zm-10,0h-5v-1h5Zm-10,0h-5v-1h5Zm-10,0h-5v-1h5Zm-10,0h-5v-1h5Zm-10,0h-5v-1h5Zm-10,0h-5v-1h5Zm-10,0h-5v-1h5Zm-10,0h-5v-1h5Z" style="fill:#dbdbdb"></path><polygon points="435.78 121.71 434.78 121.71 434.78 119.71 432.78 119.71 432.78 118.71 435.78 118.71 435.78 121.71" style="fill:#dbdbdb"></polygon><path d="M435.78,169.19h-1v-4.75h1Zm0-9.5h-1V155h1Zm0-9.49h-1v-4.75h1Zm0-9.5h-1V136h1Zm0-9.49h-1v-4.75h1Z" style="fill:#dbdbdb"></path><polygon points="435.78 176.94 432.78 176.94 432.78 175.94 434.78 175.94 434.78 173.94 435.78 173.94 435.78 176.94" style="fill:#dbdbdb"></polygon><path d="M427.77,176.94h-5v-1h5Zm-10,0h-5v-1h5Zm-10,0h-5v-1h5Zm-10,0h-5v-1h5Zm-10,0h-5v-1h5Zm-10,0h-5v-1h5Zm-10,0h-5v-1h5Zm-10,0h-5v-1h5Zm-10,0h-5v-1h5Zm-10,0h-5v-1h5Zm-10,0h-5v-1h5Z" style="fill:#dbdbdb"></path><polygon points="317.53 176.94 314.53 176.94 314.53 173.94 315.53 173.94 315.53 175.94 317.53 175.94 317.53 176.94" style="fill:#dbdbdb"></polygon><path d="M315.53,169.19h-1v-4.75h1Zm0-9.5h-1V155h1Zm0-9.49h-1v-4.75h1Zm0-9.5h-1V136h1Zm0-9.49h-1v-4.75h1Z" style="fill:#dbdbdb"></path><rect x="373.15" y="135.86" width="4.01" height="23.94" style="fill:#dbdbdb"></rect><rect x="373.15" y="135.86" width="4.01" height="23.94" transform="translate(227.33 522.98) rotate(-90)" style="fill:#dbdbdb"></rect><polygon points="315.53 316.7 314.53 316.7 314.53 313.7 317.53 313.7 317.53 314.7 315.53 314.7 315.53 316.7" style="fill:#dbdbdb"></polygon><path d="M427.77,314.7h-5v-1h5Zm-10,0h-5v-1h5Zm-10,0h-5v-1h5Zm-10,0h-5v-1h5Zm-10,0h-5v-1h5Zm-10,0h-5v-1h5Zm-10,0h-5v-1h5Zm-10,0h-5v-1h5Zm-10,0h-5v-1h5Zm-10,0h-5v-1h5Zm-10,0h-5v-1h5Z" style="fill:#dbdbdb"></path><polygon points="435.78 316.7 434.78 316.7 434.78 314.7 432.78 314.7 432.78 313.7 435.78 313.7 435.78 316.7" style="fill:#dbdbdb"></polygon><path d="M435.78,364.18h-1v-4.75h1Zm0-9.49h-1v-4.75h1Zm0-9.5h-1v-4.75h1Zm0-9.49h-1V331h1Zm0-9.5h-1v-4.75h1Z" style="fill:#dbdbdb"></path><polygon points="435.78 371.93 432.78 371.93 432.78 370.93 434.78 370.93 434.78 368.93 435.78 368.93 435.78 371.93" style="fill:#dbdbdb"></polygon><path d="M427.77,371.93h-5v-1h5Zm-10,0h-5v-1h5Zm-10,0h-5v-1h5Zm-10,0h-5v-1h5Zm-10,0h-5v-1h5Zm-10,0h-5v-1h5Zm-10,0h-5v-1h5Zm-10,0h-5v-1h5Zm-10,0h-5v-1h5Zm-10,0h-5v-1h5Zm-10,0h-5v-1h5Z" style="fill:#dbdbdb"></path><polygon points="317.53 371.93 314.53 371.93 314.53 368.93 315.53 368.93 315.53 370.93 317.53 370.93 317.53 371.93" style="fill:#dbdbdb"></polygon><path d="M315.53,364.18h-1v-4.75h1Zm0-9.49h-1v-4.75h1Zm0-9.5h-1v-4.75h1Zm0-9.49h-1V331h1Zm0-9.5h-1v-4.75h1Z" style="fill:#dbdbdb"></path><rect x="373.15" y="330.85" width="4.01" height="23.94" style="fill:#dbdbdb"></rect><rect x="373.15" y="330.85" width="4.01" height="23.94" transform="translate(32.34 717.97) rotate(-90)" style="fill:#dbdbdb"></rect><path d="M577.31,242.92h-5v-1h5Zm-10,0h-5v-1h5Zm-10,0h-5v-1h5Zm-10,0h-5v-1h5Zm-10,0h-5v-1h5Zm-10,0h-5v-1h5Zm-10,0h-5v-1h5Zm-10,0h-5v-1h5Zm-10,0h-5v-1h5Zm-10,0h-5v-1h5Zm-10,0h-5v-1h5Zm-10,0h-5v-1h5Zm-7.22-2.77h-1v-5h1Zm120.24-.2h-1v-5h1Zm-120.24-9.8h-1v-5h1Zm120.24-.2h-1v-5h1Zm-120.24-9.8h-1v-5h1Zm120.24-.2h-1v-5h1Zm-120.24-9.8h-1v-5h1Zm120.24-.2h-1v-5h1Zm-120.24-9.8h-1v-5h1Zm120.24-.2h-1v-5h1Zm-120.24-9.8h-1V184.7h5.5v1h-4.5Zm120.24-.2h-1V185.2h.26v-.5h.74Zm-5.74-4.25h-5v-1h5Zm-10,0h-5v-1h5Zm-10,0h-5v-1h5Zm-10,0h-5v-1h5Zm-10,0h-5v-1h5Zm-10,0h-5v-1h5Zm-10,0h-5v-1h5Zm-10,0h-5v-1h5Zm-10,0h-5v-1h5Zm-10,0h-5v-1h5Zm-10,0h-5v-1h5Z" style="fill:#fff"></path><rect x="517.71" y="201.84" width="4.01" height="23.94" style="fill:#fff"></rect><rect x="517.71" y="201.84" width="4.01" height="23.94" transform="translate(305.9 733.52) rotate(-90)" style="fill:#fff"></rect><path d="M580.33,371.93h-5v-1h5Zm-10,0h-5v-1h5Zm-10,0h-5v-1h5Zm-10,0h-5v-1h5Zm-10,0h-5v-1h5Zm-10,0h-5v-1h5Zm-10,0h-5v-1h5Zm-10,0h-5v-1h5Zm-10,0h-5v-1h5Zm-10,0h-5v-1h5Zm-10,0h-5v-1h5Zm-10,0h-5v-1h5Zm-10,0h-1.24v-4.75h1v3.75h.24Zm120-6h-1v-5h1Zm-120.24-3.75h-1v-5h1Zm120.24-6.25h-1v-5h1Zm-120.24-3.75h-1v-5h1Zm120.24-6.25h-1v-5h1Zm-120.24-3.75h-1v-5h1Zm120.24-6.25h-1v-5h1Zm-120.24-3.75h-1v-5h1Zm120.24-6.25h-1v-5h1Zm-120.24-3.75h-1v-5h1Zm120.24-6.25h-1v-5h1Zm-120.24-3.75h-1v-5h1Zm120.24-6.25h-1v-5h1Zm-120.24-3.75h-1v-5h1Zm120.24-6.25h-1v-5h1Zm-120.24-3.75h-1v-5h1Zm120.24-6.25h-1v-5h1Zm-120.24-3.75h-1v-5h1Zm120.24-6.25h-1v-5h1Zm-120.24-3.75h-1v-5h1Zm120.24-6.25h-1v-5h1Zm-120.24-3.75h-1v-5h1Zm120.24-6.25h-1v-4.75h.26v-.5h.74Zm-120.24-3.75h-1v-1.5h5.5v1h-4.5Zm114.5-.5h-5v-1h5Zm-10,0h-5v-1h5Zm-10,0h-5v-1h5Zm-10,0h-5v-1h5Zm-10,0h-5v-1h5Zm-10,0h-5v-1h5Zm-10,0h-5v-1h5Zm-10,0h-5v-1h5Zm-10,0h-5v-1h5Zm-10,0h-5v-1h5Zm-10,0h-5v-1h5Z" style="fill:#fff"></path><rect x="517.71" y="299.34" width="4.01" height="23.94" style="fill:#fff"></rect><rect x="517.71" y="299.34" width="4.01" height="23.94" transform="translate(208.4 831.02) rotate(-90)" style="fill:#fff"></rect><path d="M216.91,101.78H215v6.55a.66.66,0,0,1-.67.67.67.67,0,0,1-.68-.67v-6.55h-1.93a.68.68,0,0,1,0-1.36h5.23a.68.68,0,0,1,0,1.36Z" style="fill:#fff"></path><path d="M225.7,101.49a4.5,4.5,0,0,1,0,6.2,4,4,0,0,1-2.93,1.31,4.13,4.13,0,0,1-3-1.31,4.58,4.58,0,0,1,0-6.2,4.09,4.09,0,0,1,3-1.31A4,4,0,0,1,225.7,101.49Zm-.16,3.1a3.16,3.16,0,0,0-.83-2.14,2.64,2.64,0,0,0-3.92,0,3.08,3.08,0,0,0-.84,2.14,3,3,0,0,0,.84,2.13,2.62,2.62,0,0,0,3.92,0A3.12,3.12,0,0,0,225.54,104.59Z" style="fill:#fff"></path><path d="M233,108.33V101.1a.67.67,0,0,1,.67-.68h1.45a4.29,4.29,0,0,1,0,8.58h-1.45A.66.66,0,0,1,233,108.33Zm1.36-.69h.76a2.93,2.93,0,0,0,0-5.86h-.76Z" style="fill:#fff"></path><path d="M248.43,101.49a4.5,4.5,0,0,1,0,6.2A4,4,0,0,1,245.5,109a4.13,4.13,0,0,1-3-1.31,4.58,4.58,0,0,1,0-6.2,4.09,4.09,0,0,1,3-1.31A4,4,0,0,1,248.43,101.49Zm-.16,3.1a3.16,3.16,0,0,0-.83-2.14,2.64,2.64,0,0,0-3.92,0,3.07,3.07,0,0,0-.83,2.14,3,3,0,0,0,.83,2.13,2.62,2.62,0,0,0,3.92,0A3.12,3.12,0,0,0,248.27,104.59Z" style="fill:#fff"></path><path d="M335,101.1a.67.67,0,0,1,.68-.68.69.69,0,0,1,.68.68v7.23a.68.68,0,0,1-.68.67.67.67,0,0,1-.68-.67Z" style="fill:#dbdbdb"></path><path d="M340,108.33a.67.67,0,1,1-1.33,0v-7.12h0a.66.66,0,0,1,1.2-.42l4,5.48v-5.05a.66.66,0,0,1,.66-.66.67.67,0,0,1,.67.66v7.12a.66.66,0,0,1-1.17.43l-.07-.08L340,103.24Z" style="fill:#dbdbdb"></path><path d="M354.64,105.67h-1.5v2.66a.68.68,0,0,1-.69.67.67.67,0,0,1-.67-.67V101.1a.67.67,0,0,1,.67-.68h2.19a2.63,2.63,0,1,1,0,5.25Zm-1.5-1.36h1.5a1.27,1.27,0,1,0,0-2.53h-1.5Z" style="fill:#dbdbdb"></path><path d="M364.6,108a.67.67,0,0,1-.43.86,1.19,1.19,0,0,1-.27,0h0a.91.91,0,0,1-.48-.14,1.13,1.13,0,0,1-.39-.42,3.33,3.33,0,0,1-.26-1.47,1,1,0,0,0-.15-.53,1.12,1.12,0,0,0-.36-.36,2.26,2.26,0,0,0-.69-.29h-1.45v2.66a.68.68,0,0,1-1.36,0V101.1a.67.67,0,0,1,.68-.68h2.19a2.62,2.62,0,0,1,2.62,2.64,2.58,2.58,0,0,1-.95,2,2.06,2.06,0,0,1,.43.45,2.38,2.38,0,0,1,.4,1.33,3.51,3.51,0,0,0,.05.72A.65.65,0,0,1,364.6,108Zm-1.72-4.92a1.27,1.27,0,0,0-1.26-1.28h-1.51v2.53h1.51A1.26,1.26,0,0,0,362.88,103.06Z" style="fill:#dbdbdb"></path><path d="M373.14,101.49a4.5,4.5,0,0,1,0,6.2,4,4,0,0,1-2.92,1.31,4.14,4.14,0,0,1-3-1.31,4.58,4.58,0,0,1,0-6.2,4.1,4.1,0,0,1,3-1.31A4,4,0,0,1,373.14,101.49Zm-.15,3.1a3.17,3.17,0,0,0-.84-2.14,2.6,2.6,0,0,0-1.93-.87,2.65,2.65,0,0,0-2,.87,3.11,3.11,0,0,0-.83,2.14,3.07,3.07,0,0,0,.83,2.13,2.69,2.69,0,0,0,2,.88,2.65,2.65,0,0,0,1.93-.88A3.12,3.12,0,0,0,373,104.59Z" style="fill:#dbdbdb"></path><path d="M376.42,104.6a4.47,4.47,0,0,1,4.52-4.42,4.53,4.53,0,0,1,2.8.95.71.71,0,0,1,.13,1,.72.72,0,0,1-1,.11,3.15,3.15,0,0,0-1.94-.66,3,3,0,0,0-2.2.89,2.9,2.9,0,0,0,0,4.24,3,3,0,0,0,2.2.89,3.38,3.38,0,0,0,1.68-.46v-1.68h-1.75a.71.71,0,0,1-.7-.7.69.69,0,0,1,.7-.68h2.44a.69.69,0,0,1,.71.68v2.71a.71.71,0,0,1,0,.21s0,0,0,.06h0a.64.64,0,0,1-.23.3,4.54,4.54,0,0,1-2.79,1A4.46,4.46,0,0,1,376.42,104.6Z" style="fill:#dbdbdb"></path><path d="M392.46,108a.68.68,0,0,1-.43.86,1.19,1.19,0,0,1-.27,0h0a.89.89,0,0,1-.48-.14,1.06,1.06,0,0,1-.39-.42,3.2,3.2,0,0,1-.26-1.47,1,1,0,0,0-.15-.53,1.07,1.07,0,0,0-.37-.36,2.13,2.13,0,0,0-.68-.29H388v2.66a.68.68,0,0,1-1.36,0V101.1a.67.67,0,0,1,.68-.68h2.19a2.63,2.63,0,0,1,1.67,4.65,2,2,0,0,1,.42.45,2.31,2.31,0,0,1,.41,1.33,2.9,2.9,0,0,0,0,.72A.7.7,0,0,1,392.46,108Zm-1.72-4.92a1.27,1.27,0,0,0-1.26-1.28H388v2.53h1.51A1.26,1.26,0,0,0,390.74,103.06Z" style="fill:#dbdbdb"></path><path d="M394.45,108.33V101.1a.67.67,0,0,1,.67-.68h4a.68.68,0,0,1,0,1.36h-3.32V104h2.85a.68.68,0,1,1,0,1.36h-2.85v2.25h3.32a.69.69,0,0,1,.67.69.68.68,0,0,1-.67.67h-4s0,0,0,0h0A.66.66,0,0,1,394.45,108.33Z" style="fill:#dbdbdb"></path><path d="M401.45,106.87a.63.63,0,0,1,.89-.09,4,4,0,0,0,2.34,1,2.6,2.6,0,0,0,1.53-.46,1.09,1.09,0,0,0,.53-.88.71.71,0,0,0-.11-.39,1.08,1.08,0,0,0-.37-.37,4.79,4.79,0,0,0-1.68-.57h0a6.5,6.5,0,0,1-1.58-.48,2.61,2.61,0,0,1-1.14-1,1.91,1.91,0,0,1-.28-1,2.23,2.23,0,0,1,1-1.79,3.58,3.58,0,0,1,2.12-.65,4.79,4.79,0,0,1,2.67,1,.63.63,0,0,1,.17.87.62.62,0,0,1-.87.18,3.57,3.57,0,0,0-2-.78,2.3,2.3,0,0,0-1.37.42.94.94,0,0,0-.47.77.54.54,0,0,0,.09.34,1.12,1.12,0,0,0,.33.32,4.13,4.13,0,0,0,1.53.54h0a7.14,7.14,0,0,1,1.69.51,2.88,2.88,0,0,1,1.23,1,2,2,0,0,1,.29,1,2.37,2.37,0,0,1-1.05,1.9,3.85,3.85,0,0,1-2.27.7,5.18,5.18,0,0,1-3.13-1.23A.64.64,0,0,1,401.45,106.87Z" style="fill:#dbdbdb"></path><path d="M409.5,106.87a.65.65,0,0,1,.9-.09,4,4,0,0,0,2.34,1,2.65,2.65,0,0,0,1.53-.46,1.09,1.09,0,0,0,.53-.88.71.71,0,0,0-.11-.39,1.29,1.29,0,0,0-.37-.37,4.94,4.94,0,0,0-1.68-.57h0a6.73,6.73,0,0,1-1.59-.48,2.59,2.59,0,0,1-1.13-1,1.83,1.83,0,0,1-.29-1,2.26,2.26,0,0,1,1-1.79,3.62,3.62,0,0,1,2.12-.65,4.79,4.79,0,0,1,2.68,1,.64.64,0,0,1,.17.87.62.62,0,0,1-.87.18,3.63,3.63,0,0,0-2-.78,2.3,2.3,0,0,0-1.37.42,1,1,0,0,0-.46.77.61.61,0,0,0,.08.34,1.12,1.12,0,0,0,.33.32,4.2,4.2,0,0,0,1.53.54h0a7.29,7.29,0,0,1,1.69.51,3,3,0,0,1,1.23,1,2,2,0,0,1,.29,1,2.37,2.37,0,0,1-1.05,1.9,3.85,3.85,0,0,1-2.27.7,5.21,5.21,0,0,1-3.14-1.23A.65.65,0,0,1,409.5,106.87Z" style="fill:#dbdbdb"></path><path d="M503.65,108.33V101.1a.67.67,0,0,1,.68-.68h1.44a4.29,4.29,0,0,1,0,8.58h-1.44A.67.67,0,0,1,503.65,108.33Zm1.36-.69h.76a2.93,2.93,0,0,0,0-5.86H505Z" style="fill:#fff"></path><path d="M519.05,101.49a4.49,4.49,0,0,1,0,6.2,4,4,0,0,1-2.93,1.31,4.11,4.11,0,0,1-3-1.31,4.55,4.55,0,0,1,0-6.2,4.08,4.08,0,0,1,3-1.31A4,4,0,0,1,519.05,101.49Zm-.16,3.1a3.16,3.16,0,0,0-.83-2.14,2.62,2.62,0,0,0-1.94-.87,2.66,2.66,0,0,0-2,.87,3.11,3.11,0,0,0-.83,2.14,3.07,3.07,0,0,0,.83,2.13,2.71,2.71,0,0,0,2,.88,2.67,2.67,0,0,0,1.94-.88A3.12,3.12,0,0,0,518.89,104.59Z" style="fill:#fff"></path><path d="M523.74,108.33a.67.67,0,0,1-1.34,0v-7.12h0a.7.7,0,0,1,.27-.57.67.67,0,0,1,.93.15l4,5.48v-5.05a.66.66,0,0,1,.66-.66.68.68,0,0,1,.68.66v7.12a.67.67,0,0,1-1.18.43.21.21,0,0,1-.06-.08l-3.92-5.44Z" style="fill:#fff"></path><path d="M531.05,108.33V101.1a.67.67,0,0,1,.67-.68h4a.68.68,0,0,1,0,1.36h-3.32V104h2.85a.68.68,0,0,1,0,1.36h-2.85v2.25h3.32a.69.69,0,0,1,.67.69.68.68,0,0,1-.67.67h-4s0,0,0,0h0A.66.66,0,0,1,531.05,108.33Z" style="fill:#fff"></path></g></svg>
