<svg xmlns="http://www.w3.org/2000/svg" viewBox="0 0 500 500"><g id="freepik--background-complete--inject-127"><rect x="416.78" y="398.49" width="33.12" height="0.25" style="fill:#ebebeb"></rect><rect x="322.53" y="401.21" width="8.69" height="0.25" style="fill:#ebebeb"></rect><rect x="396.59" y="389.21" width="19.19" height="0.25" style="fill:#ebebeb"></rect><rect x="52.46" y="390.89" width="43.19" height="0.25" style="fill:#ebebeb"></rect><rect x="104.56" y="390.89" width="6.33" height="0.25" style="fill:#ebebeb"></rect><rect x="131.47" y="395.11" width="93.68" height="0.25" style="fill:#ebebeb"></rect><path d="M237,337.8H43.92a5.71,5.71,0,0,1-5.71-5.71V60.66A5.71,5.71,0,0,1,43.92,55H237a5.71,5.71,0,0,1,5.71,5.71V332.09A5.71,5.71,0,0,1,237,337.8ZM43.92,55.2a5.47,5.47,0,0,0-5.46,5.46V332.09a5.47,5.47,0,0,0,5.46,5.46H237a5.47,5.47,0,0,0,5.46-5.46V60.66A5.47,5.47,0,0,0,237,55.2Z" style="fill:#ebebeb"></path><path d="M453.31,337.8H260.21a5.72,5.72,0,0,1-5.71-5.71V60.66A5.72,5.72,0,0,1,260.21,55h193.1A5.71,5.71,0,0,1,459,60.66V332.09A5.71,5.71,0,0,1,453.31,337.8ZM260.21,55.2a5.47,5.47,0,0,0-5.46,5.46V332.09a5.47,5.47,0,0,0,5.46,5.46h193.1a5.47,5.47,0,0,0,5.46-5.46V60.66a5.47,5.47,0,0,0-5.46-5.46Z" style="fill:#ebebeb"></path><rect y="382.4" width="500" height="0.25" style="fill:#ebebeb"></rect><path d="M428.78,140.85v6A18.08,18.08,0,0,1,439,151.14l4.27-4.27A24.06,24.06,0,0,0,428.78,140.85Z" style="fill:#f0f0f0"></path><path d="M425.86,182.91a18.07,18.07,0,0,1-16.55-16.55h-6A24.09,24.09,0,0,0,425.86,189Z" style="fill:#e6e6e6"></path><path d="M409.31,163.45a18.09,18.09,0,0,1,16.55-16.56v-6a24.11,24.11,0,0,0-22.59,22.6Z" style="fill:#ebebeb"></path><path d="M445.36,148.93l-4.27,4.27a18.06,18.06,0,0,1-12.31,29.71v6a24.09,24.09,0,0,0,16.58-40Z" style="fill:#e0e0e0"></path><path d="M245.87,153.75h4.44a2.75,2.75,0,0,1,2.75,2.75V285.59a0,0,0,0,1,0,0h-9.95a0,0,0,0,1,0,0V156.5A2.75,2.75,0,0,1,245.87,153.75Z" style="fill:#e6e6e6"></path><path d="M248.93,153.75h-2.74a3.08,3.08,0,0,0-3.08,3.07V285.59h2.74V156.82A3.08,3.08,0,0,1,248.93,153.75Z" style="fill:#f0f0f0"></path><rect x="240.29" y="277.08" width="15.66" height="105.57" style="fill:#ebebeb"></rect><path d="M234.72,378.38h26.8a3.82,3.82,0,0,1,3.82,3.82v.44a0,0,0,0,1,0,0H230.9a0,0,0,0,1,0,0v-.44A3.82,3.82,0,0,1,234.72,378.38Z" style="fill:#e6e6e6"></path><path d="M396.42,330.5h25.25a8.22,8.22,0,0,0,8.21-8.21V285.37a1.5,1.5,0,0,0-1.5-1.5h0a1.5,1.5,0,0,0-1.5,1.5v36.92a5.21,5.21,0,0,1-5.21,5.21H396.42Z" style="fill:#e0e0e0"></path><path d="M389.2,365.88V331.5l-2-.63a5.46,5.46,0,0,1-3.82-5.2h19.05a5.45,5.45,0,0,1-3.82,5.2l-2,.63v34.38L412.42,373v3l-19.53-6.83L373.36,376v-3Z" style="fill:#e0e0e0"></path><path d="M368,327.5h49.81a5.41,5.41,0,0,0,5.41-5.41h0a5.41,5.41,0,0,0-5.41-5.4H368a5.4,5.4,0,0,0-5.4,5.4h0A5.4,5.4,0,0,0,368,327.5Z" style="fill:#f0f0f0"></path><path d="M426.58,298.36l2.69-38.44a5.4,5.4,0,0,0-5-5.76h0a5.4,5.4,0,0,0-5.77,5l-2.69,38.44a5.41,5.41,0,0,0,5,5.77h0A5.41,5.41,0,0,0,426.58,298.36Z" style="fill:#ebebeb"></path><path d="M409,378.11a3.42,3.42,0,1,0,3.42-3.42A3.42,3.42,0,0,0,409,378.11Z" style="fill:#e0e0e0"></path><path d="M369.94,378.11a3.42,3.42,0,1,0,3.42-3.42A3.42,3.42,0,0,0,369.94,378.11Z" style="fill:#e0e0e0"></path><path d="M100.37,330.5H75.12a8.22,8.22,0,0,1-8.22-8.21V285.37a1.5,1.5,0,0,1,1.5-1.5h0a1.5,1.5,0,0,1,1.5,1.5v36.92a5.22,5.22,0,0,0,5.22,5.21h25.25Z" style="fill:#e0e0e0"></path><path d="M107.59,365.88V331.5l2-.63a5.45,5.45,0,0,0,3.81-5.2h-19a5.46,5.46,0,0,0,3.82,5.2l2,.63v34.38L84.37,373v3l19.53-6.83L123.43,376v-3Z" style="fill:#e0e0e0"></path><path d="M128.8,327.5H79a5.41,5.41,0,0,1-5.4-5.41h0a5.4,5.4,0,0,1,5.4-5.4H128.8a5.41,5.41,0,0,1,5.41,5.4h0A5.41,5.41,0,0,1,128.8,327.5Z" style="fill:#f0f0f0"></path><path d="M70.2,298.36l-2.69-38.44a5.4,5.4,0,0,1,5-5.76h0a5.4,5.4,0,0,1,5.77,5L81,297.61a5.41,5.41,0,0,1-5,5.77h0A5.41,5.41,0,0,1,70.2,298.36Z" style="fill:#ebebeb"></path><path d="M87.78,378.11a3.42,3.42,0,1,1-3.41-3.42A3.41,3.41,0,0,1,87.78,378.11Z" style="fill:#e0e0e0"></path><path d="M126.84,378.11a3.42,3.42,0,1,1-3.41-3.42A3.41,3.41,0,0,1,126.84,378.11Z" style="fill:#e0e0e0"></path><polygon points="207.68 382.65 188.18 382.65 186.18 345.67 209.68 345.67 207.68 382.65" style="fill:#ebebeb"></polygon><polygon points="192.68 382.65 184.68 382.65 184.68 381 192.68 380 192.68 382.65" style="fill:#e0e0e0"></polygon><path d="M189.15,342.67h17.56a3,3,0,0,1,3,3v0a0,0,0,0,1,0,0H186.17a0,0,0,0,1,0,0v0a3,3,0,0,1,3-3Z" style="fill:#e0e0e0"></path><polygon points="167.68 286.74 136.46 286.74 136.46 283 167.68 281 167.68 286.74" style="fill:#e0e0e0"></polygon><rect x="121.51" y="290.55" width="92.33" height="12.78" style="fill:#f0f0f0"></rect><rect x="102.7" y="286.74" width="130.28" height="7.62" style="fill:#fafafa"></rect><polygon points="220.88 382.65 226.76 382.65 216.58 294.36 209.68 294.36 220.88 382.65" style="fill:#e6e6e6"></polygon><polygon points="126 294.36 119.1 294.36 108.91 382.65 114.8 382.65 126 294.36" style="fill:#e6e6e6"></polygon><path d="M199.29,284.84q-4-19.86-8-39.74c-.38-1.89-3.28-1.09-2.9.8L196,283.74h-16.5a1.5,1.5,0,0,0,0,3h18.33A1.52,1.52,0,0,0,199.29,284.84Z" style="fill:#e0e0e0"></path><path d="M180.61,274.18h0l5.14-73.48h0a13.61,13.61,0,0,1,5.67,12.05L187.91,263A13.64,13.64,0,0,1,180.61,274.18Z" style="fill:#fafafa"></path><rect x="209.4" y="265.38" width="14.16" height="21.36" rx="2.9" style="fill:#f5f5f5"></rect><path d="M215,257.43c-2.21,0-4,.55-4,1.22s1.8-.24,4-.24a7.92,7.92,0,0,1,.85,0v4.84h1.26v-4.65c1.14.21,1.9.44,1.9,0C219,258,217.21,257.43,215,257.43Z" style="fill:#e0e0e0"></path><rect x="214.23" y="261.73" width="4.51" height="4.51" style="fill:#f0f0f0"></rect><rect x="282.94" y="290.55" width="92.33" height="12.78" transform="translate(658.22 593.89) rotate(180)" style="fill:#f0f0f0"></rect><rect x="263.8" y="286.74" width="130.28" height="7.62" transform="translate(657.89 581.11) rotate(180)" style="fill:#fafafa"></rect><polygon points="275.91 382.65 270.02 382.65 280.2 294.36 287.1 294.36 275.91 382.65" style="fill:#e6e6e6"></polygon><polygon points="370.79 294.36 377.69 294.36 387.87 382.65 381.98 382.65 370.79 294.36" style="fill:#e6e6e6"></polygon><polygon points="348.63 286.74 379.84 286.74 379.84 283 348.63 281 348.63 286.74" style="fill:#263238"></polygon><polygon points="348.63 286.74 379.84 286.74 379.84 283 348.63 281 348.63 286.74" style="fill:#fff;opacity:0.6000000000000001"></polygon><path d="M285.84,219.67v67.07h4.34l1-5.95a4.53,4.53,0,0,1,4.47-3.76H336a4.53,4.53,0,0,1,4.47,3.76l1,5.95h4.33V219.67Z" style="fill:#fafafa"></path><path d="M305.25,284.84q4-19.86,8-39.74c.38-1.89,3.27-1.09,2.89.8l-7.62,37.84H325a1.5,1.5,0,0,1,0,3H306.69A1.52,1.52,0,0,1,305.25,284.84Z" style="fill:#e0e0e0"></path><path d="M323.92,274.18h0l-5.14-73.48h0a13.64,13.64,0,0,0-5.67,12.05L316.62,263A13.66,13.66,0,0,0,323.92,274.18Z" style="fill:#e0e0e0"></path><polygon points="245.49 74.85 239.46 74.85 239.46 106.33 245.49 106.31 245.49 74.85" style="fill:#ebebeb"></polygon><path d="M227.71,81.38v24.91a3.71,3.71,0,0,0,.67.06h5.36v-25Z" style="fill:#e6e6e6"></path><path d="M263.86,71.58v34.7h5.38a4.48,4.48,0,0,0,.65-.06V71.58Z" style="fill:#f0f0f0"></path><polygon points="257.84 87.8 251.81 87.8 251.81 106.3 257.84 106.29 257.84 87.8" style="fill:#e0e0e0"></polygon><path d="M71.82,140.63v23.89l8.86,22.19a24.14,24.14,0,0,0-8.86-46.08Z" style="fill:#e0e0e0"></path><path d="M69.73,164.22V140.63A23.41,23.41,0,0,0,47.43,164q0,.44,0,.87c0,.3,0,.59,0,.89a23.39,23.39,0,0,0,31.05,22.12Z" style="fill:#f0f0f0"></path></g><g id="freepik--Shadow--inject-127"><ellipse id="freepik--path--inject-127" cx="245.18" cy="412.39" rx="193.89" ry="11.32" style="fill:#f5f5f5"></ellipse></g><g id="freepik--Board--inject-127"><path d="M224.68,407.12,243.4,388.4l18.72,18.72a2.58,2.58,0,0,0,1.82.75h0a2.57,2.57,0,0,0,1.82-4.39L243.4,381.12,221,403.48a2.57,2.57,0,0,0,1.82,4.39h0A2.58,2.58,0,0,0,224.68,407.12Z" style="fill:#407BFF"></path><polygon points="244.03 381.76 242.77 381.76 237.03 387.49 237.03 394.5 237.3 394.5 243.4 388.4 249.5 394.5 249.77 394.5 249.77 387.49 244.03 381.76" style="opacity:0.2"></polygon><path d="M239.57,323.37h7.66a0,0,0,0,1,0,0v81.5a3,3,0,0,1-3,3h-1.66a3,3,0,0,1-3-3v-81.5A0,0,0,0,1,239.57,323.37Z" style="fill:#407BFF"></path><rect x="239.57" y="323.37" width="7.66" height="30.03" style="opacity:0.2"></rect><path d="M379.74,342.63H107.06a10.17,10.17,0,0,1-10.15-10.16V120.93h293V332.47A10.17,10.17,0,0,1,379.74,342.63ZM100.34,124.36V332.47a6.73,6.73,0,0,0,6.72,6.73H379.74a6.73,6.73,0,0,0,6.72-6.73V124.36Z" style="fill:#407BFF"></path><g style="opacity:0.8"><path d="M379.74,342.63H107.06a10.17,10.17,0,0,1-10.15-10.16V120.93h293V332.47A10.17,10.17,0,0,1,379.74,342.63ZM100.34,124.36V332.47a6.73,6.73,0,0,0,6.72,6.73H379.74a6.73,6.73,0,0,0,6.72-6.73V124.36Z" style="fill:#fff"></path></g><path d="M100.34,124.36V332.47a6.73,6.73,0,0,0,6.72,6.73H379.74a6.73,6.73,0,0,0,6.72-6.73V124.36Z" style="fill:#fff"></path><rect x="90.29" y="118.79" width="306.22" height="7.72" style="fill:#407BFF"></rect><rect x="90.29" y="118.79" width="306.22" height="3.86" style="fill:#fff;opacity:0.5"></rect><path d="M127.54,302.3s170.65-3.18,223.21-151.9l-1.81,152.24Z" style="fill:#407BFF"></path><g style="opacity:0.7000000000000001"><path d="M127.54,302.3s170.65-3.18,223.21-151.9l-1.81,152.24Z" style="fill:#fff"></path></g><path d="M128.86,303.16a1,1,0,0,1-.05-2c8.28-.39,51.91-3.38,98.89-23.86,60-26.18,100.92-69,121.52-127.3a1,1,0,0,1,1.88.66c-11.35,32.15-29.17,60-53,82.83-19.38,18.59-42.81,33.94-69.64,45.64-47.3,20.63-91.26,23.64-99.59,24Z" style="fill:#407BFF"></path><path d="M137.76,312.52a1,1,0,0,1-1-1v-8.31a1,1,0,0,1,2,0v8.31A1,1,0,0,1,137.76,312.52Z" style="fill:#407BFF"></path><path d="M172.47,312.56a1,1,0,0,1-1-1v-8.31a1,1,0,0,1,2,0v8.31A1,1,0,0,1,172.47,312.56Z" style="fill:#407BFF"></path><path d="M207.18,312.59a1,1,0,0,1-1-1v-8.31a1,1,0,0,1,2,0v8.31A1,1,0,0,1,207.18,312.59Z" style="fill:#407BFF"></path><path d="M241.89,312.62a1,1,0,0,1-1-1v-8.31a1,1,0,0,1,2,0v8.31A1,1,0,0,1,241.89,312.62Z" style="fill:#407BFF"></path><path d="M276.6,312.65a1,1,0,0,1-1-1v-8.3a1,1,0,0,1,2,0v8.3A1,1,0,0,1,276.6,312.65Z" style="fill:#407BFF"></path><path d="M311.3,312.69a1,1,0,0,1-1-1v-8.31a1,1,0,0,1,2,0v8.31A1,1,0,0,1,311.3,312.69Z" style="fill:#407BFF"></path><path d="M346,312.72a1,1,0,0,1-1-1v-8.31a1,1,0,0,1,2,0v8.31A1,1,0,0,1,346,312.72Z" style="fill:#407BFF"></path><path d="M128,159.65h-4.48a1,1,0,0,1,0-2H128a1,1,0,0,1,0,2Z" style="fill:#407BFF"></path><path d="M128,181.42h-4.48a1,1,0,0,1,0-2H128a1,1,0,0,1,0,2Z" style="fill:#407BFF"></path><path d="M128,203.2h-4.48a1,1,0,1,1,0-2H128a1,1,0,0,1,0,2Z" style="fill:#407BFF"></path><path d="M128,225h-4.48a1,1,0,0,1,0-2H128a1,1,0,0,1,0,2Z" style="fill:#407BFF"></path><path d="M128,246.75h-4.48a1,1,0,0,1,0-2H128a1,1,0,0,1,0,2Z" style="fill:#407BFF"></path><path d="M128,268.53h-4.48a1,1,0,0,1,0-2H128a1,1,0,0,1,0,2Z" style="fill:#407BFF"></path><path d="M128,290.3h-4.48a1,1,0,1,1,0-2H128a1,1,0,0,1,0,2Z" style="fill:#407BFF"></path><path d="M357.4,304.21H128.86a1,1,0,0,1-1-1V150.05a1,1,0,0,1,2,0V302.21H357.4a1,1,0,0,1,0,2Z" style="fill:#407BFF"></path><path d="M190,153.91v2.55l-8,17.95H178l7.7-17.28h-8.06v3.49h-3.54v-6.71Z" style="fill:#407BFF"></path><path d="M191.8,164.16c0-6.74,3.69-10.55,8.56-10.55s8.58,3.81,8.58,10.55-3.69,10.54-8.58,10.54S191.8,170.9,191.8,164.16Zm13.3,0c0-4.95-1.93-7.24-4.74-7.24s-4.72,2.29-4.72,7.24,1.93,7.23,4.72,7.23S205.1,169.11,205.1,164.16Z" style="fill:#407BFF"></path><path d="M211.2,159.33c0-3.37,2-5.63,4.89-5.63s4.92,2.23,4.92,5.63-2,5.62-4.92,5.62S211.2,162.7,211.2,159.33Zm7.41,0c0-2.29-.94-3.58-2.52-3.58s-2.52,1.32-2.52,3.58,1,3.57,2.52,3.57S218.61,161.61,218.61,159.33Zm9.78-5.42h2.87l-14,20.5h-2.87ZM224.64,169c0-3.37,2-5.62,4.89-5.62s4.92,2.25,4.92,5.62-2,5.63-4.92,5.63S224.64,172.36,224.64,169Zm7.41,0c0-2.25-1-3.57-2.52-3.57S227,166.71,227,169s1,3.58,2.52,3.58S232.05,171.25,232.05,169Z" style="fill:#407BFF"></path><rect x="181.97" y="179.91" width="46.26" height="3.22" style="fill:#407BFF"></rect><rect x="174.22" y="187.66" width="54.01" height="3.22" style="fill:#407BFF"></rect><rect x="174.22" y="195.21" width="54.01" height="3.22" style="fill:#407BFF"></rect><rect x="174.22" y="202.76" width="42.08" height="3.22" style="fill:#407BFF"></rect></g></svg>