<?xml version="1.0" encoding="UTF-8"?>
<!DOCTYPE svg PUBLIC "-//W3C//DTD SVG 1.1//EN" "http://www.w3.org/Graphics/SVG/1.1/DTD/svg11.dtd">
<svg xmlns="http://www.w3.org/2000/svg" version="1.1" width="4100px" height="1080px" style="shape-rendering:geometricPrecision; text-rendering:geometricPrecision; image-rendering:optimizeQuality; fill-rule:evenodd; clip-rule:evenodd" xmlns:xlink="http://www.w3.org/1999/xlink">
<g><path style="opacity:1" fill="#000000" d="M 110.5,201.5 C 345.167,201.5 579.833,201.5 814.5,201.5C 814.5,218.167 814.5,234.833 814.5,251.5C 712.833,251.5 611.167,251.5 509.5,251.5C 509.333,346.167 509.5,440.834 510,535.5C 611.43,534.501 712.93,534.168 814.5,534.5C 814.5,551.5 814.5,568.5 814.5,585.5C 712.833,585.5 611.167,585.5 509.5,585.5C 509.5,686.5 509.5,787.5 509.5,888.5C 492.833,888.5 476.167,888.5 459.5,888.5C 459.5,787.5 459.5,686.5 459.5,585.5C 360.167,585.5 260.833,585.5 161.5,585.5C 161.5,686.5 161.5,787.5 161.5,888.5C 144.5,888.5 127.5,888.5 110.5,888.5C 110.5,659.5 110.5,430.5 110.5,201.5 Z M 161.5,251.5 C 260.833,251.5 360.167,251.5 459.5,251.5C 459.667,346.167 459.5,440.834 459,535.5C 359.904,534.501 260.737,534.168 161.5,534.5C 161.5,440.167 161.5,345.833 161.5,251.5 Z"/></g>
<g><path style="opacity:1" fill="#000000" d="M 1277.5,318.5 C 1296.17,318.5 1314.83,318.5 1333.5,318.5C 1333.33,397.501 1333.5,476.501 1334,555.5C 1360.63,517.914 1396.8,495.081 1442.5,487C 1485.86,478.818 1527.86,483.152 1568.5,500C 1613.01,521.531 1639.84,556.698 1649,605.5C 1650.89,615.426 1652.23,625.426 1653,635.5C 1653.5,722.166 1653.67,808.833 1653.5,895.5C 1634.83,895.5 1616.17,895.5 1597.5,895.5C 1597.67,811.833 1597.5,728.166 1597,644.5C 1589.25,572.088 1548.92,535.088 1476,533.5C 1440.39,533.039 1408.55,543.539 1380.5,565C 1349.94,593.309 1334.44,628.476 1334,670.5C 1333.5,745.499 1333.33,820.499 1333.5,895.5C 1314.83,895.5 1296.17,895.5 1277.5,895.5C 1277.5,703.167 1277.5,510.833 1277.5,318.5 Z"/></g>
<g><path style="opacity:1" fill="#000000" d="M 805.5,351.5 C 951.833,351.5 1098.17,351.5 1244.5,351.5C 1244.5,368.5 1244.5,385.5 1244.5,402.5C 1181.17,402.5 1117.83,402.5 1054.5,402.5C 1054.5,566.833 1054.5,731.167 1054.5,895.5C 1034.83,895.5 1015.17,895.5 995.5,895.5C 995.5,731.167 995.5,566.833 995.5,402.5C 932.167,402.5 868.833,402.5 805.5,402.5C 805.5,385.5 805.5,368.5 805.5,351.5 Z"/></g>
<g><path style="opacity:1" fill="#000000" d="M 1903.5,482.5 C 1966.25,479.344 2019.08,500.344 2062,545.5C 2100.44,592.54 2116.94,646.54 2111.5,707.5C 1997.83,707.5 1884.17,707.5 1770.5,707.5C 1776.31,770.798 1808.64,814.298 1867.5,838C 1919.61,855.344 1969.94,851.344 2018.5,826C 2031.94,817.266 2044.27,807.1 2055.5,795.5C 2065.82,806.659 2075.99,817.992 2086,829.5C 2086.67,830.5 2086.67,831.5 2086,832.5C 2051.5,870.831 2008.34,892.331 1956.5,897C 1902.45,903.325 1852.12,892.658 1805.5,865C 1744.64,822.969 1714.31,764.635 1714.5,690C 1713.79,624.731 1737.45,570.397 1785.5,527C 1820,499.444 1859.33,484.611 1903.5,482.5 Z M 1896.5,531.5 C 1963.53,526.421 2013.03,553.087 2045,611.5C 2052.64,628.718 2057.14,646.718 2058.5,665.5C 1962.5,665.833 1866.5,665.5 1770.5,664.5C 1777.31,600.892 1810.64,558.392 1870.5,537C 1879.24,534.828 1887.9,532.995 1896.5,531.5 Z"/></g>
<g><path style="opacity:1" fill="#000000" d="M 2332.5,482.5 C 2399.03,479.495 2455.2,501.828 2501,549.5C 2540.73,598.037 2557.06,653.704 2550,716.5C 2542.52,781.009 2512.02,831.175 2458.5,867C 2415,892.967 2368,902.967 2317.5,897C 2243.17,887.621 2189.01,849.787 2155,783.5C 2129.8,723.113 2129.13,662.446 2153,601.5C 2181.03,541.056 2227.53,503.223 2292.5,488C 2305.88,485.388 2319.21,483.555 2332.5,482.5 Z M 2336.5,531.5 C 2404.73,530.838 2453.23,561.171 2482,622.5C 2498.92,668.623 2498.59,714.623 2481,760.5C 2456.5,812.974 2415.33,842.141 2357.5,848C 2300.8,852.35 2255.3,832.183 2221,787.5C 2198.83,753.479 2189.49,716.145 2193,675.5C 2196.62,625.079 2218.78,585.246 2259.5,556C 2283.11,541.074 2308.77,532.907 2336.5,531.5 Z"/></g>
<g><path style="opacity:1" fill="#000000" d="M 2809.5,482.5 C 2813.83,482.5 2818.17,482.5 2822.5,482.5C 2822.5,500.833 2822.5,519.167 2822.5,537.5C 2785.49,533.336 2751.82,541.836 2721.5,563C 2698.15,582.169 2683.32,606.669 2677,636.5C 2674.27,649.362 2672.6,662.362 2672,675.5C 2671.5,748.499 2671.33,821.499 2671.5,894.5C 2652.83,894.5 2634.17,894.5 2615.5,894.5C 2615.5,758.167 2615.5,621.833 2615.5,485.5C 2633.5,485.5 2651.5,485.5 2669.5,485.5C 2669.33,510.836 2669.5,536.169 2670,561.5C 2691.05,521.474 2723.89,496.974 2768.5,488C 2782.2,485.314 2795.87,483.481 2809.5,482.5 Z"/></g>
<g><path style="opacity:1" fill="#000000" d="M 3027.5,482.5 C 3090.25,479.344 3143.08,500.344 3186,545.5C 3224.44,592.54 3240.94,646.54 3235.5,707.5C 3121.83,707.5 3008.17,707.5 2894.5,707.5C 2900.31,770.798 2932.64,814.298 2991.5,838C 3043.61,855.344 3093.94,851.344 3142.5,826C 3155.94,817.266 3168.27,807.1 3179.5,795.5C 3189.82,806.659 3199.99,817.992 3210,829.5C 3210.67,830.5 3210.67,831.5 3210,832.5C 3175.5,870.831 3132.34,892.331 3080.5,897C 3026.45,903.325 2976.12,892.658 2929.5,865C 2868.64,822.969 2838.31,764.635 2838.5,690C 2837.79,624.731 2861.45,570.397 2909.5,527C 2944,499.444 2983.33,484.611 3027.5,482.5 Z M 3020.5,531.5 C 3087.53,526.421 3137.03,553.087 3169,611.5C 3176.64,628.718 3181.14,646.718 3182.5,665.5C 3086.5,665.833 2990.5,665.5 2894.5,664.5C 2901.31,600.892 2934.64,558.392 2994.5,537C 3003.24,534.828 3011.9,532.995 3020.5,531.5 Z"/></g>
<g><path style="opacity:1" fill="#000000" d="M 3493.5,482.5 C 3528.02,480.703 3560.69,487.537 3591.5,503C 3617.63,517.963 3636.96,539.129 3649.5,566.5C 3677.97,522.238 3718.3,495.405 3770.5,486C 3800.3,480.945 3829.96,481.612 3859.5,488C 3926.2,506.156 3964.04,549.656 3973,618.5C 3973.9,626.146 3974.57,633.812 3975,641.5C 3975.5,725.833 3975.67,810.166 3975.5,894.5C 3956.83,894.5 3938.17,894.5 3919.5,894.5C 3919.67,812.833 3919.5,731.166 3919,649.5C 3918.27,618.308 3908.27,590.642 3889,566.5C 3864.96,543.424 3836.13,532.424 3802.5,533.5C 3744.63,532.944 3703.47,558.61 3679,610.5C 3670.9,632.434 3666.9,655.1 3667,678.5C 3666.5,750.499 3666.33,822.499 3666.5,894.5C 3647.83,894.5 3629.17,894.5 3610.5,894.5C 3610.67,810.499 3610.5,726.499 3610,642.5C 3603.17,571.835 3564.34,535.502 3493.5,533.5C 3433.27,533.169 3391.44,560.503 3368,615.5C 3362.1,633.018 3358.76,651.018 3358,669.5C 3357.5,744.499 3357.33,819.499 3357.5,894.5C 3338.83,894.5 3320.17,894.5 3301.5,894.5C 3301.5,758.167 3301.5,621.833 3301.5,485.5C 3319.5,485.5 3337.5,485.5 3355.5,485.5C 3355.33,509.502 3355.5,533.502 3356,557.5C 3380.38,519.504 3414.88,496.004 3459.5,487C 3470.92,484.99 3482.25,483.49 3493.5,482.5 Z"/></g>
</svg>
