<svg xmlns="http://www.w3.org/2000/svg" width="2216" height="2194" viewBox="0 0 2216 2194">
  <defs>
    <style>
      .cls-1 {
        fill-rule: evenodd;
      }
    </style>
  </defs>
  <path d="M448,2044H2216a0,0,0,0,1,0,0v110a40,40,0,0,1-40,40H448a20,20,0,0,1-20-20V2064A20,20,0,0,1,448,2044Z"/>
  <path d="M18,1026H1768a20,20,0,0,1,20,20v110a20,20,0,0,1-20,20H18a0,0,0,0,1,0,0V1026A0,0,0,0,1,18,1026Z"/>
  <path d="M448,0H2176a40,40,0,0,1,40,40V150a0,0,0,0,1,0,0H448a20,20,0,0,1-20-20V20A20,20,0,0,1,448,0Z"/>
  <rect width="150" height="2185" rx="20" ry="20"/>
  <path d="M939,1282h110a20,20,0,0,1,20,20v832a0,0,0,0,1,0,0H919a0,0,0,0,1,0,0V1302A20,20,0,0,1,939,1282Z"/>
  <path class="cls-1" d="M919,5h150V863.99a20,20,0,0,1-20,20H939a20,20,0,0,1-20-20V5Z"/>
  <path d="M2065,10h110a40,40,0,0,1,40,40V923a20,20,0,0,1-20,20H2085a20,20,0,0,1-20-20V10A0,0,0,0,1,2065,10Z"/>
  <path d="M2085,1251h110a20,20,0,0,1,20,20v883a40,40,0,0,1-40,40H2065a0,0,0,0,1,0,0V1271A20,20,0,0,1,2085,1251Z"/>
</svg>
