<?xml version="1.0" encoding="UTF-8"?>
<!DOCTYPE svg PUBLIC "-//W3C//DTD SVG 1.1//EN" "http://www.w3.org/Graphics/SVG/1.1/DTD/svg11.dtd">
<svg xmlns="http://www.w3.org/2000/svg" version="1.1" width="5100px" height="900px" style="shape-rendering:geometricPrecision; text-rendering:geometricPrecision; image-rendering:optimizeQuality; fill-rule:evenodd; clip-rule:evenodd" xmlns:xlink="http://www.w3.org/1999/xlink">
<g><path style="opacity:1" fill="#000000" d="M 70.5,138.5 C 85.1818,138.167 99.8485,138.501 114.5,139.5C 114.808,140.308 115.308,140.975 116,141.5C 116.5,236.499 116.667,331.499 116.5,426.5C 268.5,426.333 420.5,426.5 572.5,427C 573.333,427.833 574.167,428.667 575,429.5C 575.667,443.833 575.667,458.167 575,472.5C 574.308,473.025 573.808,473.692 573.5,474.5C 421.168,475.5 268.835,475.833 116.5,475.5C 116.667,568.834 116.5,662.167 116,755.5C 115.097,756.701 113.931,757.535 112.5,758C 98.5,758.667 84.5,758.667 70.5,758C 69.6667,757.167 68.8333,756.333 68,755.5C 67.3333,550.833 67.3333,346.167 68,141.5C 68.6979,140.309 69.5313,139.309 70.5,138.5 Z"/></g>
<g><path style="opacity:1" fill="#000000" d="M 191.5,138.5 C 358.58,138.003 525.58,138.503 692.5,140C 694.049,141.214 695.215,142.714 696,144.5C 696.667,231.167 696.667,317.833 696,404.5C 695.25,405.126 694.416,405.626 693.5,406C 679.833,406.667 666.167,406.667 652.5,406C 651.069,405.535 649.903,404.701 649,403.5C 648.5,331.501 648.333,259.501 648.5,187.5C 558.167,187.5 467.833,187.5 377.5,187.5C 377.667,253.501 377.5,319.501 377,385.5C 376.535,386.931 375.701,388.097 374.5,389C 360.167,389.667 345.833,389.667 331.5,389C 330.975,388.308 330.308,387.808 329.5,387.5C 328.5,320.837 328.167,254.17 328.5,187.5C 283.499,187.667 238.499,187.5 193.5,187C 192.069,186.535 190.903,185.701 190,184.5C 189.333,169.833 189.333,155.167 190,140.5C 190.717,139.956 191.217,139.289 191.5,138.5 Z"/></g>
<g><path style="opacity:1" fill="#000000" d="M 1069.5,155.5 C 1131.18,153.589 1189.18,167.089 1243.5,196C 1248.89,199.02 1253.89,202.52 1258.5,206.5C 1251.72,221.718 1245.22,237.051 1239,252.5C 1237.95,253.517 1236.78,253.684 1235.5,253C 1194.9,226.338 1150.23,211.338 1101.5,208C 1070.3,205.822 1039.64,208.822 1009.5,217C 972.525,228.307 948.692,252.474 938,289.5C 930.165,330.324 944.331,360.824 980.5,381C 999.94,391.149 1020.27,399.149 1041.5,405C 1077.96,413.864 1114.29,423.197 1150.5,433C 1183.27,442.384 1213.27,457.051 1240.5,477C 1257.22,491.619 1269.06,509.452 1276,530.5C 1293.31,618.391 1260.48,678.891 1177.5,712C 1152.22,720.659 1126.22,725.659 1099.5,727C 1030.13,732.127 964.797,718.46 903.5,686C 888.527,677.192 874.86,666.692 862.5,654.5C 870.006,638.817 878.006,623.484 886.5,608.5C 923.59,641.042 966.59,661.876 1015.5,671C 1058.39,678.966 1101.05,677.966 1143.5,668C 1175.93,659.887 1199.76,641.054 1215,611.5C 1231.85,562.689 1217.68,526.189 1172.5,502C 1149.28,491.482 1125.28,483.149 1100.5,477C 1065.58,468.937 1030.91,459.937 996.5,450C 970.102,441.967 945.768,429.967 923.5,414C 895.301,392.108 879.801,363.274 877,327.5C 873.808,250.378 908.308,198.212 980.5,171C 1009.55,161.497 1039.22,156.33 1069.5,155.5 Z"/></g>
<g><path style="opacity:1" fill="#000000" d="M 1385.5,160.5 C 1514.17,160.5 1642.83,160.5 1771.5,160.5C 1771.5,177.833 1771.5,195.167 1771.5,212.5C 1662.83,212.5 1554.17,212.5 1445.5,212.5C 1445.5,278.833 1445.5,345.167 1445.5,411.5C 1542.5,411.5 1639.5,411.5 1736.5,411.5C 1736.5,428.833 1736.5,446.167 1736.5,463.5C 1639.5,463.5 1542.5,463.5 1445.5,463.5C 1445.5,532.5 1445.5,601.5 1445.5,670.5C 1558.17,670.5 1670.83,670.5 1783.5,670.5C 1783.5,688.167 1783.5,705.833 1783.5,723.5C 1650.83,723.5 1518.17,723.5 1385.5,723.5C 1385.5,535.833 1385.5,348.167 1385.5,160.5 Z"/></g>
<g><path style="opacity:1" fill="#000000" d="M 1898.5,160.5 C 1915.17,160.333 1931.84,160.5 1948.5,161C 2068.55,312.258 2188.71,463.424 2309,614.5C 2309.5,463.167 2309.67,311.834 2309.5,160.5C 2329.17,160.5 2348.83,160.5 2368.5,160.5C 2368.5,347.833 2368.5,535.167 2368.5,722.5C 2351.49,722.833 2334.49,722.499 2317.5,721.5C 2198.24,570.651 2078.74,419.985 1959,269.5C 1958.5,420.5 1958.33,571.5 1958.5,722.5C 1938.5,722.5 1918.5,722.5 1898.5,722.5C 1898.5,535.167 1898.5,347.833 1898.5,160.5 Z"/></g>
<g><path style="opacity:1" fill="#000000" d="M 2437.5,160.5 C 2589.17,160.5 2740.83,160.5 2892.5,160.5C 2892.5,177.833 2892.5,195.167 2892.5,212.5C 2826.5,212.5 2760.5,212.5 2694.5,212.5C 2694.5,382.5 2694.5,552.5 2694.5,722.5C 2674.5,722.5 2654.5,722.5 2634.5,722.5C 2634.5,552.5 2634.5,382.5 2634.5,212.5C 2568.83,212.5 2503.17,212.5 2437.5,212.5C 2437.5,195.167 2437.5,177.833 2437.5,160.5 Z"/></g>
<g><path style="opacity:1" fill="#000000" d="M 2962.5,160.5 C 3039.17,160.333 3115.83,160.5 3192.5,161C 3242.16,161.826 3287.83,175.493 3329.5,202C 3379.98,239.309 3404.32,289.642 3402.5,353C 3403.54,425.956 3372.54,480.289 3309.5,516C 3298.37,521.567 3287.04,526.567 3275.5,531C 3321.03,594.361 3366.36,657.861 3411.5,721.5C 3389.51,722.666 3367.51,722.833 3345.5,722C 3302.83,662.333 3260.17,602.667 3217.5,543C 3152.56,544.44 3087.56,544.94 3022.5,544.5C 3022.5,603.833 3022.5,663.167 3022.5,722.5C 3002.5,722.5 2982.5,722.5 2962.5,722.5C 2962.5,535.167 2962.5,347.833 2962.5,160.5 Z M 3022.5,212.5 C 3081.18,212.095 3139.85,212.595 3198.5,214C 3233.63,215.77 3265.63,226.437 3294.5,246C 3327.76,273.889 3343.76,309.722 3342.5,353.5C 3340.97,425.869 3304.97,470.369 3234.5,487C 3219.34,490.309 3204,492.309 3188.5,493C 3133.17,493.5 3077.83,493.667 3022.5,493.5C 3022.5,399.833 3022.5,306.167 3022.5,212.5 Z"/></g>
<g><path style="opacity:1" fill="#000000" d="M 3684.5,160.5 C 3704.41,160.174 3724.24,160.507 3744,161.5C 3829.37,348.408 3914.87,535.242 4000.5,722C 3978.93,722.826 3957.43,722.66 3936,721.5C 3914.57,672.141 3892.74,622.975 3870.5,574C 3766.17,573.333 3661.83,573.333 3557.5,574C 3535.34,623.149 3513.17,672.316 3491,721.5C 3469.91,722.66 3448.74,722.826 3427.5,722C 3513.27,534.863 3598.93,347.697 3684.5,160.5 Z M 3712.5,225.5 C 3714.34,226.122 3715.5,227.456 3716,229.5C 3759.83,327.167 3803.67,424.833 3847.5,522.5C 3758.5,523.833 3669.5,523.833 3580.5,522.5C 3624.79,423.586 3668.79,324.586 3712.5,225.5 Z"/></g>
<g><path style="opacity:1" fill="#000000" d="M 4068.5,160.5 C 4197.17,160.5 4325.83,160.5 4454.5,160.5C 4454.5,177.833 4454.5,195.167 4454.5,212.5C 4345.83,212.5 4237.17,212.5 4128.5,212.5C 4128.5,278.833 4128.5,345.167 4128.5,411.5C 4225.5,411.5 4322.5,411.5 4419.5,411.5C 4419.5,428.833 4419.5,446.167 4419.5,463.5C 4322.5,463.5 4225.5,463.5 4128.5,463.5C 4128.5,532.5 4128.5,601.5 4128.5,670.5C 4241.17,670.5 4353.83,670.5 4466.5,670.5C 4466.5,687.833 4466.5,705.167 4466.5,722.5C 4333.83,722.5 4201.17,722.5 4068.5,722.5C 4068.5,535.167 4068.5,347.833 4068.5,160.5 Z"/></g>
<g><path style="opacity:1" fill="#000000" d="M 4747.5,160.5 C 4767.41,160.174 4787.24,160.507 4807,161.5C 4892.37,348.408 4977.87,535.242 5063.5,722C 5041.93,722.826 5020.43,722.66 4999,721.5C 4977.57,672.141 4955.74,622.975 4933.5,574C 4829.17,573.333 4724.83,573.333 4620.5,574C 4598.34,623.149 4576.17,672.316 4554,721.5C 4532.91,722.66 4511.74,722.826 4490.5,722C 4576.27,534.863 4661.93,347.697 4747.5,160.5 Z M 4775.5,225.5 C 4777.34,226.122 4778.5,227.456 4779,229.5C 4822.83,327.167 4866.67,424.833 4910.5,522.5C 4821.5,523.833 4732.5,523.833 4643.5,522.5C 4687.79,423.586 4731.79,324.586 4775.5,225.5 Z"/></g>
<g><path style="opacity:1" fill="#000000" d="M 652.5,492.5 C 666.171,492.333 679.837,492.5 693.5,493C 694.416,493.374 695.25,493.874 696,494.5C 696.667,581.5 696.667,668.5 696,755.5C 694.833,756.667 693.667,757.833 692.5,759C 684.933,760.135 677.266,760.635 669.5,760.5C 510.169,759.697 350.836,759.197 191.5,759C 191,758.5 190.5,758 190,757.5C 189.167,742.489 189.334,727.489 190.5,712.5C 191.308,712.192 191.975,711.692 192.5,711C 237.832,710.5 283.165,710.333 328.5,710.5C 328.167,641.83 328.5,573.163 329.5,504.5C 330.308,504.192 330.975,503.692 331.5,503C 345.5,502.333 359.5,502.333 373.5,503C 375.333,503.5 376.5,504.667 377,506.5C 377.5,574.499 377.667,642.499 377.5,710.5C 467.833,710.5 558.167,710.5 648.5,710.5C 648.333,638.833 648.5,567.166 649,495.5C 650.145,494.364 651.312,493.364 652.5,492.5 Z"/></g>
</svg>
