<?xml version="1.0" encoding="UTF-8"?>
<!DOCTYPE svg PUBLIC "-//W3C//DTD SVG 1.1//EN" "http://www.w3.org/Graphics/SVG/1.1/DTD/svg11.dtd">
<svg xmlns="http://www.w3.org/2000/svg" version="1.1" width="4500px" height="900px" style="shape-rendering:geometricPrecision; text-rendering:geometricPrecision; image-rendering:optimizeQuality; fill-rule:evenodd; clip-rule:evenodd" xmlns:xlink="http://www.w3.org/1999/xlink">
<g><path style="opacity:1" fill="#000000" d="M 74.5,105.5 C 85.505,105.333 96.505,105.5 107.5,106C 108.701,106.903 109.535,108.069 110,109.5C 110.5,218.499 110.667,327.499 110.5,436.5C 303.834,436.333 497.167,436.5 690.5,437C 693.102,437.935 694.602,439.768 695,442.5C 695.667,452.167 695.667,461.833 695,471.5C 694.487,473.521 693.32,475.021 691.5,476C 497.834,476.5 304.167,476.667 110.5,476.5C 110.667,584.834 110.5,693.167 110,801.5C 109.167,803.667 107.667,805.167 105.5,806C 95.8333,806.667 86.1667,806.667 76.5,806C 74.714,805.215 73.214,804.049 72,802.5C 71.3333,571.167 71.3333,339.833 72,108.5C 73.045,107.627 73.8783,106.627 74.5,105.5 Z"/></g>
<g><path style="opacity:1" fill="#000000" d="M 154.5,105.5 C 360.834,105.333 567.167,105.5 773.5,106C 777.219,107.263 779.719,109.763 781,113.5C 781.667,220.5 781.667,327.5 781,434.5C 780.167,435.333 779.333,436.167 778.5,437C 767.833,437.667 757.167,437.667 746.5,437C 744.277,436.348 743.11,434.848 743,432.5C 742.5,336.501 742.333,240.501 742.5,144.5C 629.833,144.5 517.167,144.5 404.5,144.5C 404.667,226.501 404.5,308.501 404,390.5C 403.021,392.32 401.521,393.487 399.5,394C 389.833,394.667 380.167,394.667 370.5,394C 368.714,393.215 367.214,392.049 366,390.5C 365.5,308.501 365.333,226.501 365.5,144.5C 295.499,144.667 225.499,144.5 155.5,144C 153.448,143.07 151.948,141.57 151,139.5C 150.333,129.833 150.333,120.167 151,110.5C 151.697,108.416 152.864,106.749 154.5,105.5 Z"/></g>
<g><path style="opacity:1" fill="#000000" d="M 1108.5,215.5 C 1165.79,211.258 1219.79,222.425 1270.5,249C 1274.17,251.333 1277.83,253.667 1281.5,256C 1282.06,256.725 1282.39,257.558 1282.5,258.5C 1277.52,271.97 1271.69,284.97 1265,297.5C 1209.01,262.472 1148.51,251.305 1083.5,264C 1048.44,271.4 1024.94,291.9 1013,325.5C 1005.13,362.594 1017.96,389.761 1051.5,407C 1068.89,415.243 1086.89,421.91 1105.5,427C 1133.29,433.531 1160.96,440.531 1188.5,448C 1216.89,455.559 1242.89,467.893 1266.5,485C 1294.87,510.088 1306.7,541.588 1302,579.5C 1296.32,623.498 1273.82,655.665 1234.5,676C 1214.9,685.756 1194.23,692.09 1172.5,695C 1106.02,704.532 1043.02,693.865 983.5,663C 970.692,655.531 959.025,646.531 948.5,636C 955.206,622.755 962.039,609.588 969,596.5C 1000.17,624.805 1036.67,642.638 1078.5,650C 1115.05,656.704 1151.39,655.704 1187.5,647C 1226.16,636.016 1247.83,610.682 1252.5,571C 1252.26,548.513 1243.26,530.513 1225.5,517C 1214.84,509.167 1203.17,503.167 1190.5,499C 1178.96,494.93 1167.29,491.263 1155.5,488C 1117.62,479.532 1080.29,469.199 1043.5,457C 971.126,428.749 945.959,377.249 968,302.5C 981.896,268.271 1006.06,244.438 1040.5,231C 1062.53,222.432 1085.19,217.265 1108.5,215.5 Z"/></g>
<g><path style="opacity:1" fill="#000000" d="M 1383.5,219.5 C 1492.17,219.5 1600.83,219.5 1709.5,219.5C 1709.5,234.167 1709.5,248.833 1709.5,263.5C 1617.83,263.5 1526.17,263.5 1434.5,263.5C 1434.5,319.5 1434.5,375.5 1434.5,431.5C 1516.17,431.5 1597.83,431.5 1679.5,431.5C 1679.5,445.833 1679.5,460.167 1679.5,474.5C 1597.83,474.5 1516.17,474.5 1434.5,474.5C 1434.5,532.833 1434.5,591.167 1434.5,649.5C 1529.5,649.5 1624.5,649.5 1719.5,649.5C 1719.5,664.5 1719.5,679.5 1719.5,694.5C 1607.5,694.5 1495.5,694.5 1383.5,694.5C 1383.5,536.167 1383.5,377.833 1383.5,219.5 Z"/></g>
<g><path style="opacity:1" fill="#000000" d="M 1809.5,219.5 C 1823.85,219.167 1838.18,219.501 1852.5,220.5C 1953.33,347.5 2054.17,474.5 2155,601.5C 2155.5,474.167 2155.67,346.834 2155.5,219.5C 2172.5,219.5 2189.5,219.5 2206.5,219.5C 2206.5,377.5 2206.5,535.5 2206.5,693.5C 2192.16,693.667 2177.83,693.5 2163.5,693C 2062.31,566.106 1961.47,438.94 1861,311.5C 1860.5,439.166 1860.33,566.833 1860.5,694.5C 1843.5,694.5 1826.5,694.5 1809.5,694.5C 1809.5,536.167 1809.5,377.833 1809.5,219.5 Z"/></g>
<g><path style="opacity:1" fill="#000000" d="M 2257.5,219.5 C 2385.5,219.5 2513.5,219.5 2641.5,219.5C 2641.5,234.167 2641.5,248.833 2641.5,263.5C 2586.17,263.5 2530.83,263.5 2475.5,263.5C 2475.5,406.833 2475.5,550.167 2475.5,693.5C 2458.5,693.5 2441.5,693.5 2424.5,693.5C 2424.5,550.167 2424.5,406.833 2424.5,263.5C 2368.83,263.5 2313.17,263.5 2257.5,263.5C 2257.5,248.833 2257.5,234.167 2257.5,219.5 Z"/></g>
<g><path style="opacity:1" fill="#000000" d="M 2693.5,219.5 C 2761.17,219.333 2828.83,219.5 2896.5,220C 2935.79,221.876 2971.79,233.543 3004.5,255C 3046.19,286.714 3066.52,329.047 3065.5,382C 3063.52,456.678 3027.52,506.678 2957.5,532C 2995.83,585.667 3034.17,639.333 3072.5,693C 3053.83,693.667 3035.17,693.667 3016.5,693C 2980.52,642.197 2944.19,591.697 2907.5,541.5C 2902.89,542.279 2898.22,542.779 2893.5,543C 2843.83,543.5 2794.17,543.667 2744.5,543.5C 2744.5,593.5 2744.5,643.5 2744.5,693.5C 2727.5,693.5 2710.5,693.5 2693.5,693.5C 2693.5,535.5 2693.5,377.5 2693.5,219.5 Z M 2744.5,263.5 C 2792.17,263.333 2839.83,263.5 2887.5,264C 2916.14,264.994 2942.81,272.66 2967.5,287C 2987.82,301 3001.66,319.833 3009,343.5C 3018.15,378.121 3014.81,411.455 2999,443.5C 2981.39,470.079 2956.89,486.913 2925.5,494C 2915.29,496.411 2904.95,498.078 2894.5,499C 2844.51,500.391 2794.51,500.891 2744.5,500.5C 2744.5,421.5 2744.5,342.5 2744.5,263.5 Z"/></g>
<g><path style="opacity:1" fill="#000000" d="M 3295.5,219.5 C 3312.74,219.175 3329.91,219.508 3347,220.5C 3419.04,378.075 3491.2,535.575 3563.5,693C 3545.16,693.833 3526.82,693.666 3508.5,692.5C 3490.17,651.167 3471.83,609.833 3453.5,568.5C 3365.5,567.333 3277.5,567.167 3189.5,568C 3170.54,609.425 3151.7,650.925 3133,692.5C 3115.23,693.825 3097.4,693.825 3079.5,692.5C 3151.79,534.931 3223.79,377.264 3295.5,219.5 Z M 3320.5,273.5 C 3358.68,357.206 3396.35,441.206 3433.5,525.5C 3358.5,525.833 3283.5,525.5 3208.5,524.5C 3246.12,440.93 3283.45,357.263 3320.5,273.5 Z"/></g>
<g><path style="opacity:1" fill="#000000" d="M 3613.5,219.5 C 3722.17,219.5 3830.83,219.5 3939.5,219.5C 3939.5,234.167 3939.5,248.833 3939.5,263.5C 3847.83,263.5 3756.17,263.5 3664.5,263.5C 3664.5,319.5 3664.5,375.5 3664.5,431.5C 3746.17,431.5 3827.83,431.5 3909.5,431.5C 3909.5,445.833 3909.5,460.167 3909.5,474.5C 3827.83,474.5 3746.17,474.5 3664.5,474.5C 3664.5,532.833 3664.5,591.167 3664.5,649.5C 3759.5,649.5 3854.5,649.5 3949.5,649.5C 3949.5,664.167 3949.5,678.833 3949.5,693.5C 3837.5,693.5 3725.5,693.5 3613.5,693.5C 3613.5,535.5 3613.5,377.5 3613.5,219.5 Z"/></g>
<g><path style="opacity:1" fill="#000000" d="M 4179.5,219.5 C 4196.74,219.175 4213.91,219.508 4231,220.5C 4303.4,377.961 4375.23,535.628 4446.5,693.5C 4428.49,693.833 4410.49,693.5 4392.5,692.5C 4374.17,651.167 4355.83,609.833 4337.5,568.5C 4249.5,567.333 4161.5,567.167 4073.5,568C 4054.54,609.425 4035.7,650.925 4017,692.5C 3999.23,693.825 3981.4,693.825 3963.5,692.5C 4035.79,534.931 4107.79,377.264 4179.5,219.5 Z M 4204.5,273.5 C 4242.68,357.206 4280.35,441.206 4317.5,525.5C 4242.5,525.833 4167.5,525.5 4092.5,524.5C 4130.12,440.93 4167.45,357.263 4204.5,273.5 Z"/></g>
<g><path style="opacity:1" fill="#000000" d="M 745.5,478.5 C 756.505,478.333 767.505,478.5 778.5,479C 779.333,479.833 780.167,480.667 781,481.5C 781.667,587.833 781.667,694.167 781,800.5C 779.719,804.237 777.219,806.737 773.5,808C 567.167,808.667 360.833,808.667 154.5,808C 152.741,806.992 151.574,805.492 151,803.5C 150.333,793.833 150.333,784.167 151,774.5C 151.833,772.333 153.333,770.833 155.5,770C 225.499,769.5 295.499,769.333 365.5,769.5C 365.333,688.833 365.5,608.166 366,527.5C 367.558,525.232 369.724,524.066 372.5,524C 381.167,523.333 389.833,523.333 398.5,524C 400.848,524.346 402.681,525.513 404,527.5C 404.5,608.166 404.667,688.833 404.5,769.5C 517.167,769.5 629.833,769.5 742.5,769.5C 742.333,674.166 742.5,578.833 743,483.5C 743.366,481.548 744.199,479.882 745.5,478.5 Z"/></g>
</svg>
